SplineFontDB: 3.0
FontName: Auvaiyar-BoldItalic
FullName: Auvaiyar Bold Italic
FamilyName: Auvaiyar
Weight: Bold
Copyright: Copyright (c) 1995-2015, NLCI (http://www.nlci.in/fonts/) Derived from TAM Auvaiyar Bold Italic by ttfbuilder v0.33
Version: 1.0 Wed Feb 01 17:08:28 1995
ItalicAngle: 12
UnderlinePosition: -634.88
UnderlineWidth: 40.96
Ascent: 1638
Descent: 410
InvalidEm: 0
sfntRevision: 0x00010000
LayerCount: 2
Layer: 0 1 "Back" 1
Layer: 1 1 "Fore" 0
XUID: [1021 476 -567166726 7370668]
StyleMap: 0x0021
FSType: 0
OS2Version: 1
OS2_WeightWidthSlopeOnly: 0
OS2_UseTypoMetrics: 0
CreationTime: 1522121139
ModificationTime: 1522121177
PfmFamily: 17
TTFWeight: 700
TTFWidth: 5
LineGap: 0
VLineGap: 0
Panose: 2 0 0 3 0 0 0 0 0 0
OS2TypoAscent: 1536
OS2TypoAOffset: 0
OS2TypoDescent: -674
OS2TypoDOffset: 0
OS2TypoLinegap: 0
OS2WinAscent: 1536
OS2WinAOffset: 0
OS2WinDescent: 674
OS2WinDOffset: 0
HheadAscent: 1536
HheadAOffset: 0
HheadDescent: -674
HheadDOffset: 0
OS2SubXSize: 1434
OS2SubYSize: 1331
OS2SubXOff: 0
OS2SubYOff: 293
OS2SupXSize: 1434
OS2SupYSize: 1331
OS2SupXOff: 0
OS2SupYOff: 928
OS2StrikeYSize: 102
OS2StrikeYPos: 530
OS2Vendor: 'Phsc'
OS2CodePages: 00000001.00000000
OS2UnicodeRanges: 80108003.02002000.00000000.00000000
Lookup: 260 0 0 "_holdAnchorsbase" { "_someAnchorsbase"  } []
DEI: 91125
ShortTable: maxp 16
  1
  0
  339
  249
  12
  365
  16
  1
  0
  0
  0
  0
  134
  0
  3
  2
EndShort

StartChar: .notdef
Encoding: 0 -1 0
Width: 1024
Flags: W
LayerCount: 2
Fore
SplineSet
63 0 m 1,0,-1
 63 1536 l 1,1,-1
 961 1536 l 1,2,-1
 961 0 l 1,3,-1
 63 0 l 1,0,-1
897 63 m 1,4,-1
 897 1473 l 1,5,-1
 127 1473 l 1,6,-1
 127 63 l 1,7,-1
 897 63 l 1,4,-1
EndSplineSet
EndChar

StartChar: exclam
Encoding: 4 33 4
Width: 778
Flags: W
LayerCount: 2
Fore
SplineSet
694 1262 m 0,0,1
 642 1103 642 1103 592 951 c 0,2,3
 571 886 571 886 547.5 816 c 0,4,5
 524 746 524 746 501.5 677 c 0,6,7
 479 608 479 608 457.5 543.5 c 0,8,9
 436 479 436 479 418 426 c 0,10,-1
 307 426 l 0,11,-1
 354 1214 l 0,12,13
 354 1257 354 1257 371 1292.5 c 0,14,15
 388 1328 388 1328 416 1353.5 c 0,16,17
 444 1379 444 1379 480.5 1393 c 0,18,19
 517 1407 517 1407 555 1407 c 0,20,21
 630 1407 630 1407 662 1372 c 0,22,23
 694 1337 694 1337 694 1262 c 0,0,1
492 133 m 0,24,25
 492 99 492 99 478.5 70 c 0,26,27
 465 41 465 41 442 20 c 0,28,29
 419 -1 419 -1 388.5 -13 c 0,30,31
 358 -25 358 -25 324 -25 c 0,32,33
 291 -25 291 -25 263 -11.5 c 0,34,35
 235 2 235 2 214 25 c 0,36,37
 193 48 193 48 181.5 78 c 0,38,39
 170 108 170 108 170 141 c 0,40,41
 170 175 170 175 182 204.5 c 0,42,43
 194 234 194 234 215 256.5 c 0,44,45
 236 279 236 279 264.5 292 c 0,46,47
 293 305 293 305 326 305 c 0,48,49
 363 305 363 305 393.5 291 c 0,50,51
 424 277 424 277 446 253.5 c 0,52,53
 468 230 468 230 480 198.5 c 0,54,55
 492 167 492 167 492 133 c 0,24,25
EndSplineSet
EndChar

StartChar: quotedbl
Encoding: 5 34 5
Width: 770
Flags: W
LayerCount: 2
Fore
SplineSet
862 1370 m 0,0,1
 862 1360 862 1360 851 1324 c 0,2,3
 840 1288 840 1288 822.5 1238 c 0,4,5
 805 1188 805 1188 783.5 1129.5 c 0,6,7
 762 1071 762 1071 742 1017 c 0,8,9
 722 963 722 963 706 919 c 0,10,11
 690 875 690 875 682 854 c 0,12,-1
 606 854 l 0,13,-1
 623 1333 l 0,14,15
 624 1361 624 1361 636 1384.5 c 0,16,17
 648 1408 648 1408 668 1425 c 0,18,19
 688 1442 688 1442 713 1452 c 0,20,21
 738 1462 738 1462 764 1462 c 0,22,23
 809 1462 809 1462 835.5 1440 c 0,24,25
 862 1418 862 1418 862 1370 c 0,0,1
461 1370 m 0,26,27
 461 1360 461 1360 450 1324 c 0,28,29
 439 1288 439 1288 421.5 1238 c 0,30,31
 404 1188 404 1188 382.5 1129.5 c 0,32,33
 361 1071 361 1071 341 1017 c 0,34,35
 321 963 321 963 304.5 919 c 0,36,37
 288 875 288 875 281 854 c 0,38,-1
 205 854 l 0,39,-1
 219 1333 l 0,40,41
 220 1361 220 1361 233 1384.5 c 0,42,43
 246 1408 246 1408 266 1425 c 0,44,45
 286 1442 286 1442 311 1452 c 0,46,47
 336 1462 336 1462 362 1462 c 0,48,49
 407 1462 407 1462 434 1440 c 0,50,51
 461 1418 461 1418 461 1370 c 0,26,27
EndSplineSet
EndChar

StartChar: numbersign
Encoding: 6 35 6
Width: 1518
Flags: W
LayerCount: 2
Fore
SplineSet
1079 848 m 0,0,-1
 991 578 l 0,1,-1
 1309 578 l 0,2,-1
 1309 449 l 0,3,-1
 946 449 l 0,4,-1
 791 -49 l 0,5,-1
 649 -14 l 0,6,-1
 801 449 l 0,7,-1
 545 449 l 0,8,-1
 385 -49 l 0,9,-1
 248 -12 l 0,10,-1
 401 449 l 0,11,-1
 127 449 l 0,12,-1
 127 578 l 0,13,-1
 442 578 l 0,14,-1
 530 848 l 0,15,-1
 227 848 l 0,16,-1
 227 983 l 0,17,-1
 573 983 l 0,18,-1
 731 1454 l 0,19,-1
 868 1417 l 0,20,-1
 717 983 l 0,21,-1
 983 983 l 0,22,-1
 1135 1454 l 0,23,-1
 1276 1415 l 0,24,-1
 1122 983 l 0,25,-1
 1391 983 l 0,26,-1
 1391 848 l 0,27,-1
 1079 848 l 0,0,-1
678 848 m 0,28,-1
 588 578 l 0,29,-1
 842 578 l 0,30,-1
 936 848 l 0,31,-1
 678 848 l 0,28,-1
EndSplineSet
EndChar

StartChar: dollar
Encoding: 7 36 7
Width: 1225
Flags: W
LayerCount: 2
Fore
SplineSet
694 1237 m 0,0,1
 652 1231 652 1231 615 1210 c 0,2,3
 583 1191 583 1191 553 1154 c 0,4,5
 523 1117 523 1117 510 1051 c 0,6,7
 504 1020 504 1020 505 994.5 c 0,8,9
 506 969 506 969 513 949 c 0,10,11
 520 929 520 929 530 914 c 0,12,13
 540 899 540 899 552 888 c 0,14,15
 579 862 579 862 618 850 c 0,16,-1
 694 1237 l 0,0,1
821 346 m 0,17,18
 831 397 831 397 819.5 432 c 0,19,20
 808 467 808 467 785 490 c 0,21,22
 762 513 762 513 733 526.5 c 0,23,24
 704 540 704 540 680 547 c 0,25,-1
 598 133 l 0,26,27
 650 140 650 140 695 165 c 0,28,29
 714 175 714 175 733.5 191 c 0,30,31
 753 207 753 207 770 228.5 c 0,32,33
 787 250 787 250 800 279 c 0,34,35
 813 308 813 308 821 346 c 0,17,18
1133 967 m 0,36,-1
 991 967 l 0,37,-1
 995 1182 l 0,38,39
 997 1194 997 1194 992 1198.5 c 0,40,41
 987 1203 987 1203 979 1206 c 0,42,43
 964 1213 964 1213 940 1219.5 c 0,44,45
 916 1226 916 1226 892 1231.5 c 0,46,47
 868 1237 868 1237 847 1240 c 0,48,49
 826 1243 826 1243 817 1243 c 0,50,-1
 733 821 l 0,51,52
 765 812 765 812 808 798.5 c 0,53,54
 851 785 851 785 896 764.5 c 0,55,56
 941 744 941 744 983.5 714.5 c 0,57,58
 1026 685 1026 685 1055.5 643.5 c 0,59,60
 1085 602 1085 602 1097.5 547 c 0,61,62
 1110 492 1110 492 1096 420 c 0,63,64
 1079 332 1079 332 1032.5 261 c 0,65,66
 986 190 986 190 917 137 c 0,67,68
 848 84 848 84 759.5 50 c 0,69,70
 671 16 671 16 571 2 c 0,71,-1
 530 -209 l 0,72,-1
 410 -209 l 0,73,-1
 451 0 l 0,74,75
 379 3 379 3 308 12 c 0,76,77
 246 20 246 20 175.5 33 c 0,78,79
 105 46 105 46 43 68 c 0,80,-1
 113 422 l 0,81,-1
 260 422 l 0,82,-1
 254 201 l 0,83,-1
 254 187 l 0,84,85
 254 183 254 183 255.5 181 c 0,86,87
 257 179 257 179 260 177.5 c 0,88,89
 263 176 263 176 270 172 c 0,90,91
 299 155 299 155 334.5 146.5 c 0,92,93
 370 138 370 138 402 133 c 0,94,95
 438 128 438 128 475 127 c 0,96,-1
 563 578 l 0,97,98
 527 589 527 589 485 604 c 0,99,100
 443 619 443 619 402 640 c 0,101,102
 361 661 361 661 325 690.5 c 0,103,104
 289 720 289 720 264.5 760.5 c 0,105,106
 240 801 240 801 231 854.5 c 0,107,108
 222 908 222 908 236 977 c 0,109,110
 249 1047 249 1047 277.5 1101 c 0,111,112
 306 1155 306 1155 342.5 1196 c 0,113,114
 379 1237 379 1237 421.5 1265.5 c 0,115,116
 464 1294 464 1294 506 1313 c 0,117,118
 605 1358 605 1358 721 1368 c 0,119,-1
 752 1520 l 0,120,-1
 872 1520 l 0,121,-1
 842 1368 l 0,122,123
 905 1368 905 1368 968.5 1358.5 c 0,124,125
 1032 1349 1032 1349 1084 1338 c 0,126,127
 1144 1325 1144 1325 1200 1309 c 0,128,-1
 1133 967 l 0,36,-1
EndSplineSet
EndChar

StartChar: percent
Encoding: 8 37 8
Width: 1843
Flags: W
LayerCount: 2
Fore
SplineSet
1763 535 m 0,0,1
 1763 467 1763 467 1751 398.5 c 0,2,3
 1739 330 1739 330 1714.5 266.5 c 0,4,5
 1690 203 1690 203 1652.5 148.5 c 0,6,7
 1615 94 1615 94 1565 53.5 c 0,8,9
 1515 13 1515 13 1452 -10 c 0,10,11
 1389 -33 1389 -33 1313 -33 c 0,12,13
 1172 -33 1172 -33 1103 41 c 0,14,15
 1034 115 1034 115 1034 254 c 0,16,17
 1034 321 1034 321 1046 389.5 c 0,18,19
 1058 458 1058 458 1082 521.5 c 0,20,21
 1106 585 1106 585 1143 640 c 0,22,23
 1180 695 1180 695 1230 735.5 c 0,24,25
 1280 776 1280 776 1343 799.5 c 0,26,27
 1406 823 1406 823 1483 823 c 0,28,29
 1623 823 1623 823 1693 748.5 c 0,30,31
 1763 674 1763 674 1763 535 c 0,0,1
463 0 m 0,32,-1
 315 0 l 0,33,-1
 1438 1374 l 0,34,-1
 1587 1374 l 0,35,-1
 463 0 l 0,32,-1
868 1118 m 0,36,37
 868 1050 868 1050 856 982 c 0,38,39
 844 914 844 914 819.5 850.5 c 0,40,41
 795 787 795 787 758 732 c 0,42,43
 721 677 721 677 671.5 636.5 c 0,44,45
 622 596 622 596 559 572.5 c 0,46,47
 496 549 496 549 420 549 c 0,48,49
 278 549 278 549 207.5 625 c 0,50,51
 137 701 137 701 137 840 c 0,52,53
 137 941 137 941 164.5 1042.5 c 0,54,55
 192 1144 192 1144 248 1225 c 0,56,57
 304 1306 304 1306 389 1356.5 c 0,58,59
 474 1407 474 1407 588 1407 c 0,60,61
 728 1407 728 1407 798 1332.5 c 0,62,63
 868 1258 868 1258 868 1118 c 0,36,37
1548 584 m 0,64,65
 1548 605 1548 605 1545 630 c 0,66,67
 1542 655 1542 655 1533 676.5 c 0,68,69
 1524 698 1524 698 1507 712.5 c 0,70,71
 1490 727 1490 727 1462 727 c 0,72,73
 1420 727 1420 727 1387.5 698 c 0,74,75
 1355 669 1355 669 1330 623.5 c 0,76,77
 1305 578 1305 578 1287.5 521 c 0,78,79
 1270 464 1270 464 1258.5 408 c 0,80,81
 1247 352 1247 352 1242 303 c 0,82,83
 1237 254 1237 254 1237 223 c 0,84,85
 1237 199 1237 199 1240 171 c 0,86,87
 1243 143 1243 143 1253 119 c 0,88,89
 1263 95 1263 95 1281.5 79 c 0,90,91
 1300 63 1300 63 1331 63 c 0,92,93
 1371 63 1371 63 1402.5 93.5 c 0,94,95
 1434 124 1434 124 1458 172 c 0,96,97
 1482 220 1482 220 1499.5 279.5 c 0,98,99
 1517 339 1517 339 1527.5 397 c 0,100,101
 1538 455 1538 455 1543 505 c 0,102,103
 1548 555 1548 555 1548 584 c 0,64,65
655 1165 m 0,104,105
 655 1187 655 1187 652 1213 c 0,106,107
 649 1239 649 1239 640 1260.5 c 0,108,109
 631 1282 631 1282 614 1296.5 c 0,110,111
 597 1311 597 1311 569 1311 c 0,112,113
 527 1311 527 1311 494 1282.5 c 0,114,115
 461 1254 461 1254 435.5 1208.5 c 0,116,117
 410 1163 410 1163 392.5 1106.5 c 0,118,119
 375 1050 375 1050 363.5 994.5 c 0,120,121
 352 939 352 939 347 890 c 0,122,123
 342 841 342 841 342 811 c 0,124,125
 342 786 342 786 345 757 c 0,126,127
 348 728 348 728 358.5 703 c 0,128,129
 369 678 369 678 387.5 661.5 c 0,130,131
 406 645 406 645 438 645 c 0,132,133
 477 645 477 645 508.5 675.5 c 0,134,135
 540 706 540 706 564.5 754.5 c 0,136,137
 589 803 589 803 606 862.5 c 0,138,139
 623 922 623 922 634 979.5 c 0,140,141
 645 1037 645 1037 650 1087 c 0,142,143
 655 1137 655 1137 655 1165 c 0,104,105
EndSplineSet
EndChar

StartChar: ampersand
Encoding: 9 38 9
Width: 1526
Flags: W
LayerCount: 2
Fore
SplineSet
1309 625 m 0,0,1
 1265 537 1265 537 1200.5 444 c 0,2,3
 1136 351 1136 351 1059 270 c 0,4,5
 1096 222 1096 222 1130 191 c 0,6,7
 1164 160 1164 160 1202.5 142 c 0,8,9
 1241 124 1241 124 1286.5 117.5 c 0,10,11
 1332 111 1332 111 1391 111 c 0,12,-1
 1391 4 l 0,13,14
 1317 1 1317 1 1276 -2 c 0,15,16
 1235 -5 1235 -5 1206 -6 c 0,17,18
 1128 -12 1128 -12 1051 0 c 0,19,20
 1000 11 1000 11 957.5 36 c 0,21,22
 915 61 915 61 870 109 c 0,23,24
 830 82 830 82 784.5 58 c 0,25,26
 739 34 739 34 685 16 c 0,27,28
 631 -2 631 -2 568.5 -12.5 c 0,29,30
 506 -23 506 -23 432 -23 c 0,31,32
 336 -23 336 -23 260.5 2.5 c 0,33,34
 185 28 185 28 132.5 73.5 c 0,35,36
 80 119 80 119 52.5 182.5 c 0,37,38
 25 246 25 246 25 322 c 0,39,40
 25 397 25 397 52.5 459.5 c 0,41,42
 80 522 80 522 127 575 c 0,43,44
 174 628 174 628 238 672 c 0,45,46
 302 716 302 716 375 754 c 0,47,48
 328 817 328 817 297 879.5 c 0,49,50
 266 942 266 942 266 1014 c 0,51,52
 266 1093 266 1093 300 1163.5 c 0,53,54
 334 1234 334 1234 398.5 1286.5 c 0,55,56
 463 1339 463 1339 555 1370 c 0,57,58
 647 1401 647 1401 764 1401 c 0,59,60
 851 1401 851 1401 917.5 1377.5 c 0,61,62
 984 1354 984 1354 1028.5 1315 c 0,63,64
 1073 1276 1073 1276 1095.5 1226 c 0,65,66
 1118 1176 1118 1176 1118 1124 c 0,67,68
 1118 1052 1118 1052 1088 993.5 c 0,69,70
 1058 935 1058 935 1003.5 887 c 0,71,72
 949 839 949 839 873.5 800.5 c 0,73,74
 798 762 798 762 707 731 c 0,75,-1
 952 414 l 0,76,77
 989 462 989 462 1018 512 c 0,78,79
 1047 562 1047 562 1067 602 c 0,80,81
 1069 605 1069 605 1067 613 c 0,82,83
 1065 621 1065 621 1063 621 c 0,84,-1
 942 641 l 0,85,-1
 942 752 l 0,86,-1
 1460 752 l 0,87,-1
 1460 641 l 0,88,-1
 1309 625 l 0,0,1
836 1108 m 0,89,90
 836 1141 836 1141 831.5 1172 c 0,91,92
 827 1203 827 1203 814.5 1227 c 0,93,94
 802 1251 802 1251 780 1265.5 c 0,95,96
 758 1280 758 1280 723 1280 c 0,97,98
 705 1280 705 1280 673.5 1269 c 0,99,100
 642 1258 642 1258 611.5 1233 c 0,101,102
 581 1208 581 1208 558 1167 c 0,103,104
 535 1126 535 1126 535 1067 c 0,105,106
 535 1035 535 1035 542.5 1003.5 c 0,107,108
 550 972 550 972 562.5 942 c 0,109,110
 575 912 575 912 592 884 c 0,111,112
 609 856 609 856 627 831 c 0,113,114
 674 853 674 853 712.5 880.5 c 0,115,116
 751 908 751 908 778.5 941.5 c 0,117,118
 806 975 806 975 821 1016 c 0,119,120
 836 1057 836 1057 836 1108 c 0,89,90
463 633 m 0,121,122
 398 582 398 582 362 520 c 0,123,124
 326 458 326 458 326 381 c 0,125,126
 326 318 326 318 347.5 270.5 c 0,127,128
 369 223 369 223 401 191 c 0,129,130
 433 159 433 159 469.5 143 c 0,131,132
 506 127 506 127 537 127 c 0,133,134
 569 127 569 127 596 133 c 0,135,136
 623 139 623 139 649.5 151 c 0,137,138
 676 163 676 163 705 182 c 0,139,140
 734 201 734 201 770 227 c 0,141,-1
 463 633 l 0,121,122
EndSplineSet
EndChar

StartChar: quotesingle
Encoding: 10 39 10
Width: 358
Flags: W
LayerCount: 2
Fore
SplineSet
461 1370 m 0,0,1
 461 1354 461 1354 450 1315.5 c 0,2,3
 439 1277 439 1277 421.5 1226.5 c 0,4,5
 404 1176 404 1176 382.5 1119.5 c 0,6,7
 361 1063 361 1063 341 1011.5 c 0,8,9
 321 960 321 960 304.5 917.5 c 0,10,11
 288 875 288 875 281 854 c 0,12,-1
 205 854 l 0,13,-1
 219 1333 l 0,14,15
 220 1361 220 1361 233 1384.5 c 0,16,17
 246 1408 246 1408 266 1425 c 0,18,19
 286 1442 286 1442 311 1452 c 0,20,21
 336 1462 336 1462 362 1462 c 0,22,23
 407 1462 407 1462 434 1440 c 0,24,25
 461 1418 461 1418 461 1370 c 0,0,1
EndSplineSet
EndChar

StartChar: parenleft
Encoding: 11 40 11
Width: 868
Flags: W
LayerCount: 2
Fore
SplineSet
944 1358 m 0,0,1
 866 1348 866 1348 801.5 1307.5 c 0,2,3
 737 1267 737 1267 683.5 1205 c 0,4,5
 630 1143 630 1143 587.5 1063 c 0,6,7
 545 983 545 983 513 893.5 c 0,8,9
 481 804 481 804 458 710 c 0,10,11
 435 616 435 616 420.5 524.5 c 0,12,13
 406 433 406 433 399.5 349.5 c 0,14,15
 393 266 393 266 393 199 c 0,16,17
 393 132 393 132 403 68 c 0,18,19
 413 4 413 4 440.5 -48 c 0,20,21
 468 -100 468 -100 516.5 -135 c 0,22,23
 565 -170 565 -170 641 -180 c 0,24,-1
 618 -291 l 0,25,26
 489 -288 489 -288 399 -242.5 c 0,27,28
 309 -197 309 -197 252.5 -120.5 c 0,29,30
 196 -44 196 -44 170.5 58.5 c 0,31,32
 145 161 145 161 145 279 c 0,33,34
 145 401 145 401 166 535 c 0,35,36
 187 669 187 669 230 800 c 0,37,38
 273 931 273 931 339.5 1050 c 0,39,40
 406 1169 406 1169 497 1260.5 c 0,41,42
 588 1352 588 1352 705.5 1408 c 0,43,44
 823 1464 823 1464 967 1468 c 0,45,-1
 944 1358 l 0,0,1
EndSplineSet
EndChar

StartChar: parenright
Encoding: 12 41 12
Width: 868
Flags: W
LayerCount: 2
Fore
SplineSet
723 899 m 0,0,1
 723 778 723 778 702.5 644 c 0,2,3
 682 510 682 510 638.5 379 c 0,4,5
 595 248 595 248 529 128.5 c 0,6,7
 463 9 463 9 371.5 -83 c 0,8,9
 280 -175 280 -175 163 -231 c 0,10,11
 46 -287 46 -287 -98 -291 c 0,12,-1
 -78 -180 l 0,13,14
 0 -170 0 -170 65 -129.5 c 0,15,16
 130 -89 130 -89 183 -26.5 c 0,17,18
 236 36 236 36 278.5 116.5 c 0,19,20
 321 197 321 197 353.5 286.5 c 0,21,22
 386 376 386 376 409 470.5 c 0,23,24
 432 565 432 565 446.5 656 c 0,25,26
 461 747 461 747 468 830.5 c 0,27,28
 475 914 475 914 475 981 c 0,29,30
 475 1048 475 1048 465 1111.5 c 0,31,32
 455 1175 455 1175 427.5 1226.5 c 0,33,34
 400 1278 400 1278 351.5 1313 c 0,35,36
 303 1348 303 1348 227 1358 c 0,37,-1
 250 1468 l 0,38,39
 378 1464 378 1464 468 1419 c 0,40,41
 558 1374 558 1374 614.5 1298 c 0,42,43
 671 1222 671 1222 697 1119.5 c 0,44,45
 723 1017 723 1017 723 899 c 0,0,1
EndSplineSet
EndChar

StartChar: asterisk
Encoding: 13 42 13
Width: 1024
Flags: W
LayerCount: 2
Fore
SplineSet
954 1036 m 0,0,-1
 690 1038 l 0,1,-1
 678 1069 l 0,2,-1
 895 1229 l 0,3,-1
 1044 1169 l 0,4,-1
 954 1036 l 0,0,-1
657 1092 m 0,5,-1
 625 1092 l 0,6,-1
 541 1348 l 0,7,-1
 641 1470 l 0,8,-1
 743 1348 l 0,9,-1
 657 1092 l 0,5,-1
893 692 m 0,10,-1
 735 733 l 0,11,-1
 653 987 l 0,12,-1
 680 1012 l 0,13,-1
 897 852 l 0,14,-1
 893 692 l 0,10,-1
594 1038 m 0,15,-1
 328 1036 l 0,16,-1
 240 1169 l 0,17,-1
 385 1229 l 0,18,-1
 604 1067 l 0,19,-1
 594 1038 l 0,15,-1
549 733 m 0,20,-1
 391 692 l 0,21,-1
 385 852 l 0,22,-1
 604 1012 l 0,23,-1
 631 987 l 0,24,-1
 549 733 l 0,20,-1
EndSplineSet
EndChar

StartChar: plus
Encoding: 14 43 14
Width: 2048
Flags: W
LayerCount: 2
Fore
SplineSet
1087 551 m 0,0,-1
 1087 0 l 0,1,-1
 961 0 l 0,2,-1
 961 551 l 0,3,-1
 410 551 l 0,4,-1
 410 678 l 0,5,-1
 961 678 l 0,6,-1
 961 1229 l 0,7,-1
 1087 1229 l 0,8,-1
 1087 678 l 0,9,-1
 1638 678 l 0,10,-1
 1638 551 l 0,11,-1
 1087 551 l 0,0,-1
EndSplineSet
EndChar

StartChar: comma
Encoding: 15 44 15
Width: 657
Flags: W
LayerCount: 2
Fore
SplineSet
410 172 m 0,0,1
 410 112 410 112 387.5 51 c 0,2,3
 365 -10 365 -10 326 -68 c 0,4,5
 287 -126 287 -126 235.5 -177.5 c 0,6,7
 184 -229 184 -229 126 -268 c 0,8,9
 68 -307 68 -307 6.5 -331.5 c 0,10,11
 -55 -356 -55 -356 -113 -360 c 0,12,-1
 -94 -260 l 0,13,14
 -37 -252 -37 -252 13.5 -230 c 0,15,16
 64 -208 64 -208 104 -173.5 c 0,17,18
 144 -139 144 -139 171 -92 c 0,19,20
 198 -45 198 -45 207 14 c 0,21,-1
 82 14 l 0,22,23
 62 33 62 33 51.5 58 c 0,24,25
 41 83 41 83 41 111 c 0,26,27
 41 152 41 152 58.5 189.5 c 0,28,29
 76 227 76 227 105 255.5 c 0,30,31
 134 284 134 284 172 300.5 c 0,32,33
 210 317 210 317 252 317 c 0,34,35
 321 317 321 317 365.5 281.5 c 0,36,37
 410 246 410 246 410 172 c 0,0,1
EndSplineSet
EndChar

StartChar: hyphen
Encoding: 16 45 16
Width: 713
Flags: W
LayerCount: 2
Fore
SplineSet
598 385 m 0,0,-1
 61 385 l 0,1,-1
 104 602 l 0,2,-1
 641 602 l 0,3,-1
 598 385 l 0,0,-1
EndSplineSet
EndChar

StartChar: period
Encoding: 17 46 17
Width: 651
Flags: W
LayerCount: 2
Fore
SplineSet
391 145 m 0,0,1
 391 110 391 110 377.5 79 c 0,2,3
 364 48 364 48 341 25 c 0,4,5
 318 2 318 2 287 -11.5 c 0,6,7
 256 -25 256 -25 221 -25 c 0,8,9
 186 -25 186 -25 154.5 -11.5 c 0,10,11
 123 2 123 2 99.5 25 c 0,12,13
 76 48 76 48 62.5 79 c 0,14,15
 49 110 49 110 49 145 c 0,16,17
 49 181 49 181 62.5 212 c 0,18,19
 76 243 76 243 99.5 266.5 c 0,20,21
 123 290 123 290 154.5 303.5 c 0,22,23
 186 317 186 317 221 317 c 0,24,25
 256 317 256 317 287 303.5 c 0,26,27
 318 290 318 290 341 266.5 c 0,28,29
 364 243 364 243 377.5 212 c 0,30,31
 391 181 391 181 391 145 c 0,0,1
EndSplineSet
EndChar

StartChar: slash
Encoding: 18 47 18
Width: 1026
Flags: W
LayerCount: 2
Fore
SplineSet
160 -190 m 0,0,-1
 0 -190 l 0,1,-1
 864 1374 l 0,2,-1
 1026 1374 l 0,3,-1
 160 -190 l 0,0,-1
EndSplineSet
EndChar

StartChar: zero
Encoding: 19 48 19
Width: 1225
Flags: W
LayerCount: 2
Fore
SplineSet
1214 942 m 0,0,1
 1214 826 1214 826 1194 709 c 0,2,3
 1174 592 1174 592 1134 483.5 c 0,4,5
 1094 375 1094 375 1035 281 c 0,6,7
 976 187 976 187 897.5 117 c 0,8,9
 819 47 819 47 722 7 c 0,10,11
 625 -33 625 -33 510 -33 c 0,12,13
 394 -33 394 -33 311 0 c 0,14,15
 228 33 228 33 174.5 94 c 0,16,17
 121 155 121 155 95.5 240.5 c 0,18,19
 70 326 70 326 70 430 c 0,20,21
 70 534 70 534 88 647 c 0,22,23
 106 760 106 760 143 868.5 c 0,24,25
 180 977 180 977 237 1074.5 c 0,26,27
 294 1172 294 1172 372.5 1246 c 0,28,29
 451 1320 451 1320 552 1363.5 c 0,30,31
 653 1407 653 1407 778 1407 c 0,32,33
 900 1407 900 1407 983.5 1369 c 0,34,35
 1067 1331 1067 1331 1118 1267.5 c 0,36,37
 1169 1204 1169 1204 1191.5 1119.5 c 0,38,39
 1214 1035 1214 1035 1214 942 c 0,0,1
907 979 m 0,40,41
 907 1065 907 1065 891 1123 c 0,42,43
 875 1181 875 1181 851.5 1216.5 c 0,44,45
 828 1252 828 1252 802.5 1267 c 0,46,47
 777 1282 777 1282 758 1282 c 0,48,49
 709 1282 709 1282 661.5 1243.5 c 0,50,51
 614 1205 614 1205 572 1139 c 0,52,53
 530 1073 530 1073 494.5 985.5 c 0,54,55
 459 898 459 898 433.5 799.5 c 0,56,57
 408 701 408 701 393.5 597.5 c 0,58,59
 379 494 379 494 379 397 c 0,60,61
 379 326 379 326 389 276 c 0,62,63
 399 226 399 226 414 192.5 c 0,64,65
 429 159 429 159 447 139 c 0,66,67
 465 119 465 119 482 109 c 0,68,69
 499 99 499 99 512 96.5 c 0,70,71
 525 94 525 94 530 94 c 0,72,73
 576 94 576 94 622 132.5 c 0,74,75
 668 171 668 171 710 236.5 c 0,76,77
 752 302 752 302 788 389.5 c 0,78,79
 824 477 824 477 850.5 575 c 0,80,81
 877 673 877 673 892 777 c 0,82,83
 907 881 907 881 907 979 c 0,40,41
EndSplineSet
EndChar

StartChar: one
Encoding: 20 49 20
Width: 1225
Flags: W
LayerCount: 2
Fore
SplineSet
709 156 m 0,0,1
 706 143 706 143 717.5 136 c 0,2,3
 729 129 729 129 748 127 c 0,4,-1
 901 113 l 0,5,-1
 901 0 l 0,6,-1
 172 0 l 0,7,-1
 172 115 l 0,8,-1
 383 127 l 0,9,10
 395 127 395 127 405.5 136 c 0,11,12
 416 145 416 145 418 156 c 0,13,-1
 623 1194 l 0,14,-1
 305 1151 l 0,15,-1
 305 1266 l 0,16,-1
 815 1407 l 0,17,-1
 954 1407 l 0,18,-1
 709 156 l 0,0,1
EndSplineSet
EndChar

StartChar: two
Encoding: 21 50 21
Width: 1225
Flags: W
LayerCount: 2
Fore
SplineSet
1182 1096 m 0,0,1
 1182 1026 1182 1026 1157.5 957.5 c 0,2,3
 1133 889 1133 889 1090 823 c 0,4,5
 1047 757 1047 757 989.5 694 c 0,6,7
 932 631 932 631 866 573 c 0,8,9
 755 476 755 476 618 381 c 0,10,11
 481 286 481 286 342 190 c 0,12,-1
 864 190 l 0,13,-1
 934 360 l 0,14,-1
 1092 360 l 0,15,-1
 1024 0 l 0,16,-1
 -43 0 l 0,17,-1
 -16 145 l 0,18,19
 207 301 207 301 371.5 424 c 0,20,21
 536 547 536 547 644.5 654 c 0,22,23
 753 761 753 761 806.5 861 c 0,24,25
 860 961 860 961 860 1071 c 0,26,27
 860 1131 860 1131 843 1170.5 c 0,28,29
 826 1210 826 1210 801 1233.5 c 0,30,31
 776 1257 776 1257 747 1266.5 c 0,32,33
 718 1276 718 1276 694 1276 c 0,34,35
 672 1276 672 1276 650 1271.5 c 0,36,37
 628 1267 628 1267 608.5 1261 c 0,38,39
 589 1255 589 1255 573 1248 c 0,40,41
 557 1241 557 1241 547 1237 c 0,42,-1
 506 1024 l 0,43,44
 496 1018 496 1018 486 1008.5 c 0,45,46
 476 999 476 999 461 990.5 c 0,47,48
 446 982 446 982 423.5 975.5 c 0,49,50
 401 969 401 969 367 969 c 0,51,52
 331 969 331 969 302.5 979.5 c 0,53,54
 274 990 274 990 253.5 1007.5 c 0,55,56
 233 1025 233 1025 222 1048.5 c 0,57,58
 211 1072 211 1072 211 1098 c 0,59,60
 211 1168 211 1168 251 1225.5 c 0,61,62
 291 1283 291 1283 364 1323 c 0,63,64
 437 1363 437 1363 537.5 1385 c 0,65,66
 638 1407 638 1407 760 1407 c 0,67,68
 859 1407 859 1407 937.5 1388 c 0,69,70
 1016 1369 1016 1369 1070 1330.5 c 0,71,72
 1124 1292 1124 1292 1153 1233.5 c 0,73,74
 1182 1175 1182 1175 1182 1096 c 0,0,1
EndSplineSet
EndChar

StartChar: three
Encoding: 22 51 22
Width: 1225
Flags: W
LayerCount: 2
Fore
SplineSet
1178 1110 m 0,0,1
 1178 1059 1178 1059 1157 1005.5 c 0,2,3
 1136 952 1136 952 1092 902.5 c 0,4,5
 1048 853 1048 853 979.5 809.5 c 0,6,7
 911 766 911 766 817 735 c 0,8,9
 951 709 951 709 1022.5 645.5 c 0,10,11
 1094 582 1094 582 1094 471 c 0,12,13
 1094 408 1094 408 1073 346.5 c 0,14,15
 1052 285 1052 285 1012.5 229 c 0,16,17
 973 173 973 173 915.5 125 c 0,18,19
 858 77 858 77 784.5 42 c 0,20,21
 711 7 711 7 622 -13 c 0,22,23
 533 -33 533 -33 432 -33 c 0,24,25
 321 -33 321 -33 243.5 -10 c 0,26,27
 166 13 166 13 117 48 c 0,28,29
 68 83 68 83 45.5 124 c 0,30,31
 23 165 23 165 23 201 c 0,32,33
 23 216 23 216 33 241 c 0,34,35
 43 266 43 266 63 290 c 0,36,37
 83 314 83 314 112.5 331 c 0,38,39
 142 348 142 348 182 348 c 0,40,41
 206 348 206 348 224 342.5 c 0,42,43
 242 337 242 337 256.5 329 c 0,44,45
 271 321 271 321 282 313 c 0,46,47
 293 305 293 305 303 301 c 0,48,-1
 336 129 l 0,49,50
 342 125 342 125 355.5 119 c 0,51,52
 369 113 369 113 386.5 107 c 0,53,54
 404 101 404 101 422.5 96.5 c 0,55,56
 441 92 441 92 457 92 c 0,57,58
 511 92 511 92 567.5 117.5 c 0,59,60
 624 143 624 143 671 189 c 0,61,62
 718 235 718 235 748 299.5 c 0,63,64
 778 364 778 364 778 442 c 0,65,66
 778 490 778 490 766 524 c 0,67,68
 754 558 754 558 735.5 581 c 0,69,70
 717 604 717 604 694.5 617.5 c 0,71,72
 672 631 672 631 651.5 638 c 0,73,74
 631 645 631 645 615 647 c 0,75,76
 599 649 599 649 594 649 c 0,77,78
 579 649 579 649 564 648 c 0,79,80
 549 647 549 647 528 644 c 0,81,82
 507 641 507 641 477 636.5 c 0,83,84
 447 632 447 632 403 625 c 0,85,-1
 426 784 l 0,86,87
 520 779 520 779 599 798 c 0,88,89
 678 817 678 817 735.5 856 c 0,90,91
 793 895 793 895 825.5 952.5 c 0,92,93
 858 1010 858 1010 858 1083 c 0,94,95
 858 1144 858 1144 836.5 1183 c 0,96,97
 815 1222 815 1222 787 1244 c 0,98,99
 759 1266 759 1266 732.5 1274 c 0,100,101
 706 1282 706 1282 696 1282 c 0,102,103
 669 1282 669 1282 645 1276.5 c 0,104,105
 621 1271 621 1271 602 1262.5 c 0,106,107
 583 1254 583 1254 569 1245.5 c 0,108,109
 555 1237 555 1237 547 1231 c 0,110,-1
 514 1036 l 0,111,112
 503 1031 503 1031 486 1024 c 0,113,114
 469 1017 469 1017 449.5 1010 c 0,115,116
 430 1003 430 1003 409.5 998 c 0,117,118
 389 993 389 993 371 993 c 0,119,120
 348 993 348 993 323.5 1004 c 0,121,122
 299 1015 299 1015 278.5 1034.5 c 0,123,124
 258 1054 258 1054 244.5 1079 c 0,125,126
 231 1104 231 1104 231 1133 c 0,127,128
 231 1193 231 1193 273 1243 c 0,129,130
 315 1293 315 1293 387 1329.5 c 0,131,132
 459 1366 459 1366 556 1386.5 c 0,133,134
 653 1407 653 1407 764 1407 c 0,135,136
 872 1407 872 1407 950 1386 c 0,137,138
 1028 1365 1028 1365 1078.5 1326 c 0,139,140
 1129 1287 1129 1287 1153.5 1232 c 0,141,142
 1178 1177 1178 1177 1178 1110 c 0,0,1
EndSplineSet
EndChar

StartChar: four
Encoding: 23 52 23
Width: 1225
Flags: W
LayerCount: 2
Fore
SplineSet
1126 408 m 0,0,-1
 936 408 l 0,1,-1
 846 -55 l 0,2,-1
 567 -55 l 0,3,-1
 659 408 l 0,4,-1
 43 408 l 0,5,-1
 70 555 l 0,6,-1
 903 1407 l 0,7,-1
 1135 1407 l 0,8,-1
 971 567 l 0,9,-1
 1157 567 l 0,10,-1
 1126 408 l 0,0,-1
371 567 m 0,11,-1
 692 567 l 0,12,-1
 774 981 l 0,13,-1
 371 567 l 0,11,-1
EndSplineSet
EndChar

StartChar: five
Encoding: 24 53 24
Width: 1225
Flags: W
LayerCount: 2
Fore
SplineSet
1163 1190 m 0,0,-1
 567 1190 l 0,1,-1
 496 836 l 0,2,3
 528 842 528 842 568.5 846 c 0,4,5
 609 850 609 850 657 850 c 0,6,7
 746 850 746 850 824.5 831 c 0,8,9
 903 812 903 812 961.5 771.5 c 0,10,11
 1020 731 1020 731 1053.5 667 c 0,12,13
 1087 603 1087 603 1087 512 c 0,14,15
 1087 406 1087 406 1037.5 307.5 c 0,16,17
 988 209 988 209 898 133.5 c 0,18,19
 808 58 808 58 682.5 12.5 c 0,20,21
 557 -33 557 -33 406 -33 c 0,22,23
 307 -33 307 -33 234 -18 c 0,24,25
 161 -3 161 -3 113.5 24 c 0,26,27
 66 51 66 51 43 87.5 c 0,28,29
 20 124 20 124 20 166 c 0,30,31
 20 193 20 193 33 220.5 c 0,32,33
 46 248 46 248 68.5 269.5 c 0,34,35
 91 291 91 291 122 305 c 0,36,37
 153 319 153 319 190 319 c 0,38,39
 205 319 205 319 217.5 315 c 0,40,41
 230 311 230 311 241.5 305.5 c 0,42,43
 253 300 253 300 264 294.5 c 0,44,45
 275 289 275 289 287 287 c 0,46,-1
 342 113 l 0,47,48
 348 111 348 111 362.5 108 c 0,49,50
 377 105 377 105 393.5 101 c 0,51,52
 410 97 410 97 426.5 94.5 c 0,53,54
 443 92 443 92 453 92 c 0,55,56
 510 92 510 92 568.5 120.5 c 0,57,58
 627 149 627 149 675 199 c 0,59,60
 723 249 723 249 753.5 316 c 0,61,62
 784 383 784 383 784 461 c 0,63,64
 784 539 784 539 754.5 587 c 0,65,66
 725 635 725 635 681 661.5 c 0,67,68
 637 688 637 688 584.5 697.5 c 0,69,70
 532 707 532 707 487 707 c 0,71,72
 466 707 466 707 428.5 704 c 0,73,74
 391 701 391 701 351 697.5 c 0,75,76
 311 694 311 694 274.5 690 c 0,77,78
 238 686 238 686 219 684 c 0,79,-1
 362 1374 l 0,80,-1
 1198 1374 l 0,81,-1
 1163 1190 l 0,0,-1
EndSplineSet
EndChar

StartChar: six
Encoding: 25 54 25
Width: 1225
Flags: W
LayerCount: 2
Fore
SplineSet
1149 557 m 0,0,1
 1149 481 1149 481 1130 407.5 c 0,2,3
 1111 334 1111 334 1074.5 268.5 c 0,4,5
 1038 203 1038 203 985.5 147.5 c 0,6,7
 933 92 933 92 866 52 c 0,8,9
 799 12 799 12 718.5 -10.5 c 0,10,11
 638 -33 638 -33 547 -33 c 0,12,13
 455 -33 455 -33 369.5 -10 c 0,14,15
 284 13 284 13 217 68 c 0,16,17
 150 123 150 123 110 215 c 0,18,19
 70 307 70 307 70 444 c 0,20,21
 70 566 70 566 100.5 685 c 0,22,23
 131 804 131 804 191 912.5 c 0,24,25
 251 1021 251 1021 339.5 1115.5 c 0,26,27
 428 1210 428 1210 545 1283.5 c 0,28,29
 662 1357 662 1357 806.5 1406 c 0,30,31
 951 1455 951 1455 1122 1473 c 0,32,-1
 1124 1339 l 0,33,34
 1003 1326 1003 1326 898 1287 c 0,35,36
 793 1248 793 1248 708.5 1188 c 0,37,38
 624 1128 624 1128 562 1049.5 c 0,39,40
 500 971 500 971 465 881 c 0,41,42
 521 905 521 905 587 919.5 c 0,43,44
 653 934 653 934 731 934 c 0,45,46
 833 934 833 934 911.5 906 c 0,47,48
 990 878 990 878 1042.5 828 c 0,49,50
 1095 778 1095 778 1122 709 c 0,51,52
 1149 640 1149 640 1149 557 c 0,0,1
846 506 m 0,53,54
 846 575 846 575 830.5 626.5 c 0,55,56
 815 678 815 678 787.5 712.5 c 0,57,58
 760 747 760 747 723 764.5 c 0,59,60
 686 782 686 782 643 782 c 0,61,62
 627 782 627 782 604.5 778.5 c 0,63,64
 582 775 582 775 553.5 764.5 c 0,65,66
 525 754 525 754 490 735.5 c 0,67,68
 455 717 455 717 414 686 c 0,69,70
 411 675 411 675 404 645.5 c 0,71,72
 397 616 397 616 390.5 578 c 0,73,74
 384 540 384 540 378.5 498.5 c 0,75,76
 373 457 373 457 373 422 c 0,77,78
 373 372 373 372 376 314 c 0,79,80
 379 256 379 256 396.5 206 c 0,81,82
 414 156 414 156 451.5 123 c 0,83,84
 489 90 489 90 557 90 c 0,85,86
 601 90 601 90 651.5 121.5 c 0,87,88
 702 153 702 153 745.5 208.5 c 0,89,90
 789 264 789 264 817.5 340.5 c 0,91,92
 846 417 846 417 846 506 c 0,53,54
EndSplineSet
EndChar

StartChar: seven
Encoding: 26 55 26
Width: 1225
Flags: W
LayerCount: 2
Fore
SplineSet
1307 1276 m 0,0,-1
 375 -18 l 0,1,-1
 360 -76 l 0,2,-1
 66 -76 l 0,3,-1
 979 1190 l 0,4,-1
 422 1190 l 0,5,-1
 356 1008 l 0,6,-1
 190 1008 l 0,7,-1
 264 1374 l 0,8,-1
 1325 1374 l 0,9,-1
 1307 1276 l 0,0,-1
EndSplineSet
EndChar

StartChar: eight
Encoding: 27 56 27
Width: 1225
Flags: W
LayerCount: 2
Fore
SplineSet
1171 1112 m 0,0,1
 1171 1034 1171 1034 1147 975 c 0,2,3
 1123 916 1123 916 1082 871 c 0,4,5
 1041 826 1041 826 986 791.5 c 0,6,7
 931 757 931 757 870 729 c 0,8,9
 911 711 911 711 955 685 c 0,10,11
 999 659 999 659 1036 623 c 0,12,13
 1073 587 1073 587 1096.5 540 c 0,14,15
 1120 493 1120 493 1120 432 c 0,16,17
 1120 340 1120 340 1077 256 c 0,18,19
 1034 172 1034 172 954.5 108 c 0,20,21
 875 44 875 44 762.5 5.5 c 0,22,23
 650 -33 650 -33 510 -33 c 0,24,25
 385 -33 385 -33 295 -6.5 c 0,26,27
 205 20 205 20 146 66 c 0,28,29
 87 112 87 112 59 174.5 c 0,30,31
 31 237 31 237 31 309 c 0,32,33
 31 357 31 357 48 412 c 0,34,35
 65 467 65 467 104.5 521.5 c 0,36,37
 144 576 144 576 209.5 628.5 c 0,38,39
 275 681 275 681 373 725 c 0,40,41
 322 753 322 753 290.5 785 c 0,42,43
 259 817 259 817 241.5 849.5 c 0,44,45
 224 882 224 882 217.5 914 c 0,46,47
 211 946 211 946 211 975 c 0,48,49
 211 1056 211 1056 245 1133.5 c 0,50,51
 279 1211 279 1211 346.5 1271.5 c 0,52,53
 414 1332 414 1332 516 1369.5 c 0,54,55
 618 1407 618 1407 754 1407 c 0,56,57
 867 1407 867 1407 946 1382.5 c 0,58,59
 1025 1358 1025 1358 1075 1317 c 0,60,61
 1125 1276 1125 1276 1148 1223 c 0,62,63
 1171 1170 1171 1170 1171 1112 c 0,0,1
891 1094 m 0,64,65
 891 1137 891 1137 883 1172.5 c 0,66,67
 875 1208 875 1208 856.5 1233.5 c 0,68,69
 838 1259 838 1259 808 1273.5 c 0,70,71
 778 1288 778 1288 735 1288 c 0,72,73
 698 1288 698 1288 657 1268.5 c 0,74,75
 616 1249 616 1249 581.5 1214 c 0,76,77
 547 1179 547 1179 524.5 1129.5 c 0,78,79
 502 1080 502 1080 502 1020 c 0,80,81
 502 983 502 983 517 952.5 c 0,82,83
 532 922 532 922 559.5 895 c 0,84,85
 587 868 587 868 626.5 844 c 0,86,87
 666 820 666 820 715 797 c 0,88,89
 795 846 795 846 843 920.5 c 0,90,91
 891 995 891 995 891 1094 c 0,64,65
815 377 m 0,92,93
 815 419 815 419 790.5 456 c 0,94,95
 766 493 766 493 724.5 526 c 0,96,97
 683 559 683 559 629 588.5 c 0,98,99
 575 618 575 618 516 645 c 0,100,101
 474 620 474 620 438 588.5 c 0,102,103
 402 557 402 557 376.5 519.5 c 0,104,105
 351 482 351 482 336.5 438.5 c 0,106,107
 322 395 322 395 322 344 c 0,108,109
 322 293 322 293 334.5 248.5 c 0,110,111
 347 204 347 204 374 170.5 c 0,112,113
 401 137 401 137 443.5 117.5 c 0,114,115
 486 98 486 98 547 98 c 0,116,117
 592 98 592 98 639.5 120 c 0,118,119
 687 142 687 142 726 180.5 c 0,120,121
 765 219 765 219 790 269.5 c 0,122,123
 815 320 815 320 815 377 c 0,92,93
EndSplineSet
EndChar

StartChar: nine
Encoding: 28 57 28
Width: 1225
Flags: W
LayerCount: 2
Fore
SplineSet
1227 973 m 0,0,1
 1227 824 1227 824 1184 696 c 0,2,3
 1141 568 1141 568 1065.5 459 c 0,4,5
 990 350 990 350 887 260 c 0,6,7
 784 170 784 170 664.5 97 c 0,8,9
 545 24 545 24 413.5 -32 c 0,10,11
 282 -88 282 -88 150 -129 c 0,12,-1
 94 -4 l 0,13,14
 198 36 198 36 292 80.5 c 0,15,16
 386 125 386 125 472 183.5 c 0,17,18
 558 242 558 242 636 319.5 c 0,19,20
 714 397 714 397 786 502 c 0,21,22
 729 482 729 482 668.5 470.5 c 0,23,24
 608 459 608 459 549 459 c 0,25,26
 465 459 465 459 389.5 480.5 c 0,27,28
 314 502 314 502 257 547 c 0,29,30
 200 592 200 592 166.5 661.5 c 0,31,32
 133 731 133 731 133 827 c 0,33,34
 133 942 133 942 177.5 1047 c 0,35,36
 222 1152 222 1152 304.5 1232 c 0,37,38
 387 1312 387 1312 504 1359.5 c 0,39,40
 621 1407 621 1407 766 1407 c 0,41,42
 814 1407 814 1407 867 1401 c 0,43,44
 920 1395 920 1395 971 1377.5 c 0,45,46
 1022 1360 1022 1360 1068.5 1330 c 0,47,48
 1115 1300 1115 1300 1150 1251.5 c 0,49,50
 1185 1203 1185 1203 1206 1134.5 c 0,51,52
 1227 1066 1227 1066 1227 973 c 0,0,1
924 971 m 0,53,54
 924 1073 924 1073 900 1135.5 c 0,55,56
 876 1198 876 1198 844 1231.5 c 0,57,58
 812 1265 812 1265 780 1276.5 c 0,59,60
 748 1288 748 1288 731 1288 c 0,61,62
 684 1288 684 1288 633 1255.5 c 0,63,64
 582 1223 582 1223 539.5 1166.5 c 0,65,66
 497 1110 497 1110 469.5 1033 c 0,67,68
 442 956 442 956 442 868 c 0,69,70
 442 791 442 791 465.5 739.5 c 0,71,72
 489 688 489 688 521.5 657 c 0,73,74
 554 626 554 626 587.5 613 c 0,75,76
 621 600 621 600 641 600 c 0,77,78
 691 600 691 600 732.5 615 c 0,79,80
 774 630 774 630 805 649.5 c 0,81,82
 836 669 836 669 856.5 688 c 0,83,84
 877 707 877 707 885 715 c 0,85,86
 897 780 897 780 910.5 843 c 0,87,88
 924 906 924 906 924 971 c 0,53,54
EndSplineSet
EndChar

StartChar: colon
Encoding: 29 58 29
Width: 651
Flags: W
LayerCount: 2
Fore
SplineSet
530 848 m 0,0,1
 530 813 530 813 517 782 c 0,2,3
 504 751 504 751 481 728 c 0,4,5
 458 705 458 705 427 691.5 c 0,6,7
 396 678 396 678 360 678 c 0,8,9
 325 678 325 678 293.5 691.5 c 0,10,11
 262 705 262 705 238.5 728 c 0,12,13
 215 751 215 751 201.5 782 c 0,14,15
 188 813 188 813 188 848 c 0,16,17
 188 883 188 883 201.5 914.5 c 0,18,19
 215 946 215 946 238.5 969.5 c 0,20,21
 262 993 262 993 293.5 1006.5 c 0,22,23
 325 1020 325 1020 360 1020 c 0,24,25
 396 1020 396 1020 427 1006.5 c 0,26,27
 458 993 458 993 481 969.5 c 0,28,29
 504 946 504 946 517 914.5 c 0,30,31
 530 883 530 883 530 848 c 0,0,1
391 145 m 0,32,33
 391 110 391 110 377.5 79 c 0,34,35
 364 48 364 48 341 25 c 0,36,37
 318 2 318 2 287 -11.5 c 0,38,39
 256 -25 256 -25 221 -25 c 0,40,41
 186 -25 186 -25 154.5 -11.5 c 0,42,43
 123 2 123 2 99.5 25 c 0,44,45
 76 48 76 48 62.5 79 c 0,46,47
 49 110 49 110 49 145 c 0,48,49
 49 181 49 181 62.5 212 c 0,50,51
 76 243 76 243 99.5 266.5 c 0,52,53
 123 290 123 290 154.5 303.5 c 0,54,55
 186 317 186 317 221 317 c 0,56,57
 256 317 256 317 287 303.5 c 0,58,59
 318 290 318 290 341 266.5 c 0,60,61
 364 243 364 243 377.5 212 c 0,62,63
 391 181 391 181 391 145 c 0,32,33
EndSplineSet
EndChar

StartChar: semicolon
Encoding: 30 59 30
Width: 651
Flags: W
LayerCount: 2
Fore
SplineSet
530 848 m 0,0,1
 530 813 530 813 517 782 c 0,2,3
 504 751 504 751 481 728 c 0,4,5
 458 705 458 705 427 691.5 c 0,6,7
 396 678 396 678 360 678 c 0,8,9
 325 678 325 678 293.5 691.5 c 0,10,11
 262 705 262 705 238.5 728 c 0,12,13
 215 751 215 751 201.5 782 c 0,14,15
 188 813 188 813 188 848 c 0,16,17
 188 883 188 883 201.5 914.5 c 0,18,19
 215 946 215 946 238.5 969.5 c 0,20,21
 262 993 262 993 293.5 1006.5 c 0,22,23
 325 1020 325 1020 360 1020 c 0,24,25
 396 1020 396 1020 427 1006.5 c 0,26,27
 458 993 458 993 481 969.5 c 0,28,29
 504 946 504 946 517 914.5 c 0,30,31
 530 883 530 883 530 848 c 0,0,1
410 172 m 0,32,33
 410 112 410 112 387.5 51 c 0,34,35
 365 -10 365 -10 326 -68 c 0,36,37
 287 -126 287 -126 235.5 -177.5 c 0,38,39
 184 -229 184 -229 126 -268 c 0,40,41
 68 -307 68 -307 6.5 -331.5 c 0,42,43
 -55 -356 -55 -356 -113 -360 c 0,44,-1
 -94 -260 l 0,45,46
 -37 -252 -37 -252 13.5 -230 c 0,47,48
 64 -208 64 -208 104 -173.5 c 0,49,50
 144 -139 144 -139 171 -92 c 0,51,52
 198 -45 198 -45 207 14 c 0,53,-1
 82 14 l 0,54,55
 62 33 62 33 51.5 58 c 0,56,57
 41 83 41 83 41 111 c 0,58,59
 41 152 41 152 58.5 189.5 c 0,60,61
 76 227 76 227 105 255.5 c 0,62,63
 134 284 134 284 172 300.5 c 0,64,65
 210 317 210 317 252 317 c 0,66,67
 321 317 321 317 365.5 281.5 c 0,68,69
 410 246 410 246 410 172 c 0,32,33
EndSplineSet
EndChar

StartChar: less
Encoding: 31 60 31
Width: 2048
Flags: W
LayerCount: 2
Fore
SplineSet
410 551 m 0,0,-1
 410 678 l 0,1,-1
 1638 1149 l 0,2,-1
 1638 1022 l 0,3,-1
 541 614 l 0,4,-1
 1638 207 l 0,5,-1
 1638 80 l 0,6,-1
 410 551 l 0,0,-1
EndSplineSet
EndChar

StartChar: equal
Encoding: 32 61 32
Width: 2048
Flags: W
LayerCount: 2
Fore
SplineSet
410 737 m 0,0,-1
 410 864 l 0,1,-1
 1638 864 l 0,2,-1
 1638 737 l 0,3,-1
 410 737 l 0,0,-1
410 365 m 0,4,-1
 410 492 l 0,5,-1
 1638 492 l 0,6,-1
 1638 365 l 0,7,-1
 410 365 l 0,4,-1
EndSplineSet
EndChar

StartChar: greater
Encoding: 33 62 33
Width: 2048
Flags: W
LayerCount: 2
Fore
SplineSet
410 80 m 0,0,-1
 410 207 l 0,1,-1
 1507 614 l 0,2,-1
 410 1022 l 0,3,-1
 410 1149 l 0,4,-1
 1638 678 l 0,5,-1
 1638 551 l 0,6,-1
 410 80 l 0,0,-1
EndSplineSet
EndChar

StartChar: question
Encoding: 34 63 34
Width: 1096
Flags: W
LayerCount: 2
Fore
SplineSet
1051 1094 m 0,0,1
 1051 1024 1051 1024 1028.5 962.5 c 0,2,3
 1006 901 1006 901 966.5 848 c 0,4,5
 927 795 927 795 874.5 751 c 0,6,7
 822 707 822 707 762 673 c 0,8,9
 702 639 702 639 638 615.5 c 0,10,11
 574 592 574 592 512 580 c 0,12,-1
 477 406 l 0,13,-1
 338 406 l 0,14,-1
 391 678 l 0,15,16
 463 693 463 693 530.5 730 c 0,17,18
 598 767 598 767 650 821 c 0,19,20
 702 875 702 875 733 942.5 c 0,21,22
 764 1010 764 1010 764 1087 c 0,23,24
 764 1139 764 1139 746.5 1176 c 0,25,26
 729 1213 729 1213 699 1236.5 c 0,27,28
 669 1260 669 1260 628.5 1271 c 0,29,30
 588 1282 588 1282 541 1282 c 0,31,-1
 420 1047 l 0,32,33
 418 1045 418 1045 411 1042.5 c 0,34,35
 404 1040 404 1040 396.5 1037.5 c 0,36,37
 389 1035 389 1035 382.5 1033.5 c 0,38,39
 376 1032 376 1032 375 1032 c 0,40,41
 349 1032 349 1032 321.5 1035.5 c 0,42,43
 294 1039 294 1039 271.5 1050 c 0,44,45
 249 1061 249 1061 234 1081 c 0,46,47
 219 1101 219 1101 219 1133 c 0,48,49
 219 1183 219 1183 240 1222.5 c 0,50,51
 261 1262 261 1262 296 1292.5 c 0,52,53
 331 1323 331 1323 376.5 1345 c 0,54,55
 422 1367 422 1367 470 1380.5 c 0,56,57
 518 1394 518 1394 565.5 1400.5 c 0,58,59
 613 1407 613 1407 653 1407 c 0,60,61
 727 1407 727 1407 798.5 1389.5 c 0,62,63
 870 1372 870 1372 926 1334 c 0,64,65
 982 1296 982 1296 1016.5 1237 c 0,66,67
 1051 1178 1051 1178 1051 1094 c 0,0,1
532 133 m 0,68,69
 532 99 532 99 518.5 70 c 0,70,71
 505 41 505 41 482 20 c 0,72,73
 459 -1 459 -1 429 -13 c 0,74,75
 399 -25 399 -25 365 -25 c 0,76,77
 331 -25 331 -25 302.5 -11.5 c 0,78,79
 274 2 274 2 253 25 c 0,80,81
 232 48 232 48 220.5 78 c 0,82,83
 209 108 209 108 209 141 c 0,84,85
 209 175 209 175 221 204.5 c 0,86,87
 233 234 233 234 254 256.5 c 0,88,89
 275 279 275 279 304 292 c 0,90,91
 333 305 333 305 367 305 c 0,92,93
 403 305 403 305 433.5 291 c 0,94,95
 464 277 464 277 485.5 253.5 c 0,96,97
 507 230 507 230 519.5 198.5 c 0,98,99
 532 167 532 167 532 133 c 0,68,69
EndSplineSet
EndChar

StartChar: at
Encoding: 35 64 35
Width: 1917
Flags: W
LayerCount: 2
Fore
SplineSet
1167 795 m 0,0,1
 1170 807 1170 807 1165.5 825.5 c 0,2,3
 1161 844 1161 844 1150 861 c 0,4,5
 1139 878 1139 878 1120 890.5 c 0,6,7
 1101 903 1101 903 1075 903 c 0,8,9
 1013 903 1013 903 958.5 870 c 0,10,11
 904 837 904 837 863 778.5 c 0,12,13
 822 720 822 720 798 639 c 0,14,15
 774 558 774 558 774 463 c 0,16,17
 774 405 774 405 785.5 364.5 c 0,18,19
 797 324 797 324 816 298.5 c 0,20,21
 835 273 835 273 858 261.5 c 0,22,23
 881 250 881 250 905 250 c 0,24,25
 938 250 938 250 964.5 262.5 c 0,26,27
 991 275 991 275 1012.5 294 c 0,28,29
 1034 313 1034 313 1052 335 c 0,30,31
 1070 357 1070 357 1085 375 c 0,32,-1
 1167 795 l 0,0,1
1798 754 m 0,33,34
 1798 652 1798 652 1775.5 564.5 c 0,35,36
 1753 477 1753 477 1714.5 404.5 c 0,37,38
 1676 332 1676 332 1624.5 275.5 c 0,39,40
 1573 219 1573 219 1514 180.5 c 0,41,42
 1455 142 1455 142 1392.5 122 c 0,43,44
 1330 102 1330 102 1270 102 c 0,45,46
 1223 102 1223 102 1191.5 114 c 0,47,48
 1160 126 1160 126 1139.5 145.5 c 0,49,50
 1119 165 1119 165 1108.5 191 c 0,51,52
 1098 217 1098 217 1094 246 c 0,53,54
 1062 219 1062 219 1029 193.5 c 0,55,56
 996 168 996 168 961 148 c 0,57,58
 926 128 926 128 889 116 c 0,59,60
 852 104 852 104 813 104 c 0,61,62
 743 104 743 104 690 129.5 c 0,63,64
 637 155 637 155 601 200.5 c 0,65,66
 565 246 565 246 546.5 308 c 0,67,68
 528 370 528 370 528 444 c 0,69,70
 528 559 528 559 570.5 660.5 c 0,71,72
 613 762 613 762 686 838.5 c 0,73,74
 759 915 759 915 857.5 959.5 c 0,75,76
 956 1004 956 1004 1067 1004 c 0,77,78
 1091 1004 1091 1004 1115.5 998 c 0,79,80
 1140 992 1140 992 1164 982.5 c 0,81,82
 1188 973 1188 973 1210.5 962 c 0,83,84
 1233 951 1233 951 1253 942 c 0,85,-1
 1280 993 l 0,86,-1
 1452 993 l 0,87,-1
 1442 955 l 0,88,89
 1435 925 1435 925 1424.5 881 c 0,90,91
 1414 837 1414 837 1401.5 783 c 0,92,93
 1389 729 1389 729 1376 674 c 0,94,95
 1346 545 1346 545 1309 385 c 0,96,97
 1301 351 1301 351 1297 323 c 0,98,99
 1293 295 1293 295 1297 275 c 0,100,101
 1301 255 1301 255 1314.5 244 c 0,102,103
 1328 233 1328 233 1356 233 c 0,104,105
 1376 233 1376 233 1405.5 248.5 c 0,106,107
 1435 264 1435 264 1466.5 294 c 0,108,109
 1498 324 1498 324 1529 368.5 c 0,110,111
 1560 413 1560 413 1584.5 470.5 c 0,112,113
 1609 528 1609 528 1624.5 598.5 c 0,114,115
 1640 669 1640 669 1640 752 c 0,116,117
 1640 849 1640 849 1617 927.5 c 0,118,119
 1594 1006 1594 1006 1555 1067 c 0,120,121
 1516 1128 1516 1128 1462.5 1172.5 c 0,122,123
 1409 1217 1409 1217 1349 1246 c 0,124,125
 1289 1275 1289 1275 1224 1289 c 0,126,127
 1159 1303 1159 1303 1096 1303 c 0,128,129
 988 1303 988 1303 889.5 1276.5 c 0,130,131
 791 1250 791 1250 705.5 1201.5 c 0,132,133
 620 1153 620 1153 550 1083 c 0,134,135
 480 1013 480 1013 430 925.5 c 0,136,137
 380 838 380 838 353 735.5 c 0,138,139
 326 633 326 633 326 518 c 0,140,141
 326 360 326 360 375 227.5 c 0,142,143
 424 95 424 95 514 -2 c 0,144,145
 604 -99 604 -99 731 -153 c 0,146,147
 858 -207 858 -207 1014 -207 c 0,148,149
 1095 -207 1095 -207 1168 -193.5 c 0,150,151
 1241 -180 1241 -180 1309 -157 c 0,152,153
 1377 -134 1377 -134 1442.5 -102.5 c 0,154,155
 1508 -71 1508 -71 1573 -35 c 0,156,-1
 1616 -137 l 0,157,158
 1547 -173 1547 -173 1473 -206.5 c 0,159,160
 1399 -240 1399 -240 1319 -265.5 c 0,161,162
 1239 -291 1239 -291 1150.5 -306.5 c 0,163,164
 1062 -322 1062 -322 965 -322 c 0,165,166
 845 -322 845 -322 736 -296.5 c 0,167,168
 627 -271 627 -271 533 -222 c 0,169,170
 439 -173 439 -173 362.5 -103 c 0,171,172
 286 -33 286 -33 232 56.5 c 0,173,174
 178 146 178 146 148.5 252.5 c 0,175,176
 119 359 119 359 119 481 c 0,177,178
 119 630 119 630 155 757 c 0,179,180
 191 884 191 884 255.5 987 c 0,181,182
 320 1090 320 1090 409 1168.5 c 0,183,184
 498 1247 498 1247 603.5 1300 c 0,185,186
 709 1353 709 1353 827.5 1380 c 0,187,188
 946 1407 946 1407 1069 1407 c 0,189,190
 1235 1407 1235 1407 1370 1363 c 0,191,192
 1505 1319 1505 1319 1600 1235.5 c 0,193,194
 1695 1152 1695 1152 1746.5 1030.5 c 0,195,196
 1798 909 1798 909 1798 754 c 0,33,34
EndSplineSet
EndChar

StartChar: A
Encoding: 36 65 36
Width: 1464
Flags: W
LayerCount: 2
Fore
SplineSet
801 0 m 0,0,-1
 801 102 l 0,1,2
 817 104 817 104 833.5 105.5 c 0,3,4
 850 107 850 107 864 109 c 0,5,6
 880 111 880 111 895 113 c 0,7,8
 915 115 915 115 926 120 c 0,9,10
 937 125 937 125 934 143 c 0,11,-1
 874 518 l 0,12,-1
 487 518 l 0,13,-1
 285 143 l 0,14,15
 275 128 275 128 283 121.5 c 0,16,17
 291 115 291 115 311 113 c 0,18,19
 327 111 327 111 345 109 c 0,20,21
 360 107 360 107 379 105.5 c 0,22,23
 398 104 398 104 418 102 c 0,24,-1
 418 0 l 0,25,-1
 -109 0 l 0,26,-1
 -109 102 l 0,27,-1
 10 115 l 0,28,-1
 768 1407 l 0,29,-1
 1010 1407 l 0,30,-1
 1233 145 l 0,31,32
 1236 125 1236 125 1243.5 119.5 c 0,33,34
 1251 114 1251 114 1274 111 c 0,35,36
 1288 110 1288 110 1304 108 c 0,37,38
 1318 106 1318 106 1334.5 105 c 0,39,40
 1351 104 1351 104 1368 102 c 0,41,-1
 1368 0 l 0,42,-1
 801 0 l 0,0,-1
784 1032 m 0,43,-1
 555 635 l 0,44,-1
 852 635 l 0,45,-1
 784 1032 l 0,43,-1
EndSplineSet
EndChar

StartChar: B
Encoding: 37 66 37
Width: 1329
Flags: W
LayerCount: 2
Fore
SplineSet
948 1092 m 0,0,1
 948 1141 948 1141 928.5 1174.5 c 0,2,3
 909 1208 909 1208 876.5 1228 c 0,4,5
 844 1248 844 1248 801.5 1257 c 0,6,7
 759 1266 759 1266 713 1266 c 0,8,9
 696 1266 696 1266 679.5 1265 c 0,10,11
 663 1264 663 1264 649 1264 c 0,12,-1
 553 768 l 0,13,14
 570 766 570 766 584 766 c 0,15,-1
 604 766 l 0,16,17
 680 766 680 766 743.5 790.5 c 0,18,19
 807 815 807 815 852.5 858.5 c 0,20,21
 898 902 898 902 923 961.5 c 0,22,23
 948 1021 948 1021 948 1092 c 0,0,1
911 442 m 0,24,25
 911 505 911 505 889 546 c 0,26,27
 867 587 867 587 829.5 611.5 c 0,28,29
 792 636 792 636 743.5 645.5 c 0,30,31
 695 655 695 655 641 655 c 0,32,33
 586 655 586 655 528 649 c 0,34,-1
 424 115 l 0,35,36
 446 113 446 113 468 113 c 0,37,-1
 506 113 l 0,38,39
 597 113 597 113 671.5 133.5 c 0,40,41
 746 154 746 154 799 195.5 c 0,42,43
 852 237 852 237 881.5 298.5 c 0,44,45
 911 360 911 360 911 442 c 0,24,25
1262 1106 m 0,46,47
 1262 1031 1262 1031 1237 973 c 0,48,49
 1212 915 1212 915 1168.5 870 c 0,50,51
 1125 825 1125 825 1066 791.5 c 0,52,53
 1007 758 1007 758 938 733 c 0,54,55
 1005 721 1005 721 1057.5 700 c 0,56,57
 1110 679 1110 679 1146.5 646.5 c 0,58,59
 1183 614 1183 614 1202 569 c 0,60,61
 1221 524 1221 524 1221 463 c 0,62,63
 1221 341 1221 341 1175 253 c 0,64,65
 1129 165 1129 165 1044.5 109 c 0,66,67
 960 53 960 53 840.5 26.5 c 0,68,69
 721 0 721 0 573 0 c 0,70,-1
 -31 0 l 0,71,-1
 -31 102 l 0,72,73
 -6 104 -6 104 17 106 c 0,74,75
 40 108 40 108 58 110 c 0,76,77
 79 112 79 112 98 113 c 0,78,79
 115 113 115 113 124.5 118.5 c 0,80,81
 134 124 134 124 137 145 c 0,82,-1
 350 1231 l 0,83,84
 353 1248 353 1248 344.5 1254 c 0,85,86
 336 1260 336 1260 317 1262 c 0,87,88
 299 1263 299 1263 279 1265 c 0,89,90
 262 1267 262 1267 240 1268.5 c 0,91,92
 218 1270 218 1270 195 1272 c 0,93,-1
 195 1374 l 0,94,-1
 813 1374 l 0,95,96
 943 1374 943 1374 1029.5 1353 c 0,97,98
 1116 1332 1116 1332 1168 1296 c 0,99,100
 1220 1260 1220 1260 1241 1211 c 0,101,102
 1262 1162 1262 1162 1262 1106 c 0,46,47
EndSplineSet
EndChar

StartChar: C
Encoding: 38 67 38
Width: 1376
Flags: W
LayerCount: 2
Fore
SplineSet
1343 961 m 0,0,-1
 1192 961 l 0,1,-1
 1194 1190 l 0,2,3
 1196 1202 1196 1202 1187.5 1217 c 0,4,5
 1179 1232 1179 1232 1163 1237 c 0,6,7
 1155 1241 1155 1241 1133 1249 c 0,8,9
 1111 1257 1111 1257 1083.5 1264 c 0,10,11
 1056 1271 1056 1271 1027 1276.5 c 0,12,13
 998 1282 998 1282 975 1282 c 0,14,15
 910 1282 910 1282 842 1259 c 0,16,17
 774 1236 774 1236 710.5 1191.5 c 0,18,19
 647 1147 647 1147 590.5 1082 c 0,20,21
 534 1017 534 1017 492 933 c 0,22,23
 450 849 450 849 425.5 747 c 0,24,25
 401 645 401 645 401 526 c 0,26,27
 401 409 401 409 435 327 c 0,28,29
 469 245 469 245 523.5 192.5 c 0,30,31
 578 140 578 140 645 116 c 0,32,33
 712 92 712 92 778 92 c 0,34,35
 800 92 800 92 826 95 c 0,36,37
 852 98 852 98 876 103 c 0,38,39
 900 108 900 108 919.5 113 c 0,40,41
 939 118 939 118 948 123 c 0,42,43
 964 125 964 125 972 135 c 0,44,45
 980 145 980 145 985 156 c 0,46,-1
 1083 426 l 0,47,-1
 1237 426 l 0,48,-1
 1174 55 l 0,49,50
 1135 41 1135 41 1084.5 25.5 c 0,51,52
 1034 10 1034 10 975 -3 c 0,53,54
 916 -16 916 -16 849.5 -24.5 c 0,55,56
 783 -33 783 -33 711 -33 c 0,57,58
 596 -33 596 -33 505.5 -9.5 c 0,59,60
 415 14 415 14 347 55.5 c 0,61,62
 279 97 279 97 231.5 153 c 0,63,64
 184 209 184 209 154.5 274 c 0,65,66
 125 339 125 339 111.5 409 c 0,67,68
 98 479 98 479 98 549 c 0,69,70
 98 654 98 654 124.5 759 c 0,71,72
 151 864 151 864 202 959 c 0,73,74
 253 1054 253 1054 328 1136 c 0,75,76
 403 1218 403 1218 499 1278.5 c 0,77,78
 595 1339 595 1339 712 1373 c 0,79,80
 829 1407 829 1407 965 1407 c 0,81,82
 1024 1407 1024 1407 1077.5 1400.5 c 0,83,84
 1131 1394 1131 1394 1184 1383 c 0,85,86
 1237 1372 1237 1372 1291.5 1356 c 0,87,88
 1346 1340 1346 1340 1407 1321 c 0,89,-1
 1343 961 l 0,0,-1
EndSplineSet
EndChar

StartChar: D
Encoding: 39 68 39
Width: 1460
Flags: W
LayerCount: 2
Fore
SplineSet
1423 848 m 0,0,1
 1423 665 1423 665 1359 509.5 c 0,2,3
 1295 354 1295 354 1175 241 c 0,4,5
 1055 128 1055 128 882.5 64 c 0,6,7
 710 0 710 0 494 0 c 0,8,-1
 -31 0 l 0,9,-1
 -31 102 l 0,10,11
 -8 104 -8 104 14 106 c 0,12,13
 36 108 36 108 53 109 c 0,14,15
 73 110 73 110 92 111 c 0,16,17
 117 113 117 113 124.5 118.5 c 0,18,19
 132 124 132 124 137 145 c 0,20,-1
 350 1231 l 0,21,22
 353 1249 353 1249 342.5 1254.5 c 0,23,24
 332 1260 332 1260 313 1262 c 0,25,26
 294 1263 294 1263 275 1265 c 0,27,28
 258 1267 258 1267 237 1268.5 c 0,29,30
 216 1270 216 1270 195 1272 c 0,31,-1
 195 1374 l 0,32,-1
 727 1374 l 0,33,34
 886 1374 886 1374 1014.5 1345 c 0,35,36
 1143 1316 1143 1316 1234 1252.5 c 0,37,38
 1325 1189 1325 1189 1374 1089 c 0,39,40
 1423 989 1423 989 1423 848 c 0,0,1
1116 866 m 0,41,42
 1116 950 1116 950 1098 1011 c 0,43,44
 1080 1072 1080 1072 1049 1114.5 c 0,45,46
 1018 1157 1018 1157 975.5 1183 c 0,47,48
 933 1209 933 1209 884 1223.5 c 0,49,50
 835 1238 835 1238 782 1243.5 c 0,51,52
 729 1249 729 1249 676 1251 c 0,53,-1
 647 1251 l 0,54,-1
 426 127 l 0,55,-1
 530 127 l 0,56,57
 620 128 620 128 698.5 156 c 0,58,59
 777 184 777 184 842 233.5 c 0,60,61
 907 283 907 283 958 351.5 c 0,62,63
 1009 420 1009 420 1044 501.5 c 0,64,65
 1079 583 1079 583 1097.5 675.5 c 0,66,67
 1116 768 1116 768 1116 866 c 0,41,42
EndSplineSet
EndChar

StartChar: E
Encoding: 40 69 40
Width: 1229
Flags: W
LayerCount: 2
Fore
SplineSet
1210 1051 m 0,0,-1
 1047 1051 l 0,1,-1
 1047 1225 l 0,2,3
 1047 1240 1047 1240 1031.5 1245.5 c 0,4,5
 1016 1251 1016 1251 999 1251 c 0,6,-1
 647 1251 l 0,7,-1
 555 776 l 0,8,-1
 786 776 l 0,9,10
 802 776 802 776 820.5 783.5 c 0,11,12
 839 791 839 791 844 807 c 0,13,-1
 887 950 l 0,14,-1
 1036 950 l 0,15,-1
 942 469 l 0,16,-1
 791 469 l 0,17,-1
 811 623 l 0,18,19
 812 629 812 629 808 634 c 0,20,21
 804 639 804 639 797 643 c 0,22,23
 790 647 790 647 781.5 649 c 0,24,25
 773 651 773 651 766 651 c 0,26,-1
 530 651 l 0,27,-1
 428 123 l 0,28,-1
 864 123 l 0,29,30
 880 123 880 123 898.5 131 c 0,31,32
 917 139 917 139 922 152 c 0,33,-1
 987 356 l 0,34,-1
 1149 356 l 0,35,-1
 1077 0 l 0,36,-1
 -31 0 l 0,37,-1
 -31 102 l 0,38,39
 -8 104 -8 104 14.5 106 c 0,40,41
 37 108 37 108 54 110 c 0,42,43
 74 112 74 112 92 113 c 0,44,45
 115 115 115 115 124.5 120 c 0,46,47
 134 125 134 125 137 145 c 0,48,-1
 350 1231 l 0,49,50
 355 1249 355 1249 344 1254.5 c 0,51,52
 333 1260 333 1260 313 1262 c 0,53,54
 295 1263 295 1263 276 1265 c 0,55,56
 259 1267 259 1267 238 1268.5 c 0,57,58
 217 1270 217 1270 197 1272 c 0,59,-1
 197 1374 l 0,60,-1
 1276 1374 l 0,61,-1
 1210 1051 l 0,0,-1
EndSplineSet
EndChar

StartChar: F
Encoding: 41 70 41
Width: 1139
Flags: W
LayerCount: 2
Fore
SplineSet
1186 1028 m 0,0,-1
 1020 1028 l 0,1,-1
 1020 1225 l 0,2,3
 1020 1240 1020 1240 1005 1245.5 c 0,4,5
 990 1251 990 1251 973 1251 c 0,6,-1
 647 1251 l 0,7,-1
 551 756 l 0,8,-1
 768 756 l 0,9,10
 783 756 783 756 801.5 762.5 c 0,11,12
 820 769 820 769 825 784 c 0,13,-1
 866 932 l 0,14,-1
 1018 932 l 0,15,-1
 924 449 l 0,16,-1
 770 449 l 0,17,-1
 793 602 l 0,18,19
 794 616 794 616 777.5 623.5 c 0,20,21
 761 631 761 631 745 631 c 0,22,-1
 526 631 l 0,23,-1
 430 143 l 0,24,25
 427 125 427 125 438 120 c 0,26,27
 449 115 449 115 469 113 c 0,28,29
 488 112 488 112 510 110 c 0,30,31
 529 108 529 108 552.5 106 c 0,32,33
 576 104 576 104 602 102 c 0,34,-1
 602 0 l 0,35,-1
 -31 0 l 0,36,-1
 -31 102 l 0,37,38
 -10 104 -10 104 10.5 106 c 0,39,40
 31 108 31 108 48 110 c 0,41,42
 67 112 67 112 86 113 c 0,43,44
 109 115 109 115 120.5 120 c 0,45,46
 132 125 132 125 137 145 c 0,47,-1
 350 1231 l 0,48,49
 353 1249 353 1249 342 1254.5 c 0,50,51
 331 1260 331 1260 311 1262 c 0,52,53
 293 1263 293 1263 274 1265 c 0,54,55
 257 1267 257 1267 236 1268.5 c 0,56,57
 215 1270 215 1270 195 1272 c 0,58,-1
 195 1374 l 0,59,-1
 1253 1374 l 0,60,-1
 1186 1028 l 0,0,-1
EndSplineSet
EndChar

StartChar: G
Encoding: 42 71 42
Width: 1495
Flags: W
LayerCount: 2
Fore
SplineSet
1329 561 m 0,0,1
 1315 559 1315 559 1309.5 551.5 c 0,2,3
 1304 544 1304 544 1300 530 c 0,4,-1
 1206 53 l 0,5,6
 1163 41 1163 41 1107 26 c 0,7,8
 1051 11 1051 11 987 -2 c 0,9,10
 923 -15 923 -15 855.5 -24 c 0,11,12
 788 -33 788 -33 723 -33 c 0,13,14
 592 -33 592 -33 495 -5 c 0,15,16
 398 23 398 23 329 70 c 0,17,18
 260 117 260 117 215 177.5 c 0,19,20
 170 238 170 238 144 303 c 0,21,22
 118 368 118 368 108 432.5 c 0,23,24
 98 497 98 497 98 551 c 0,25,26
 98 678 98 678 132.5 791 c 0,27,28
 167 904 167 904 228.5 999.5 c 0,29,30
 290 1095 290 1095 375.5 1170.5 c 0,31,32
 461 1246 461 1246 564 1298.5 c 0,33,34
 667 1351 667 1351 784 1379 c 0,35,36
 901 1407 901 1407 1024 1407 c 0,37,38
 1082 1407 1082 1407 1132.5 1402.5 c 0,39,40
 1183 1398 1183 1398 1232.5 1388.5 c 0,41,42
 1282 1379 1282 1379 1334 1364.5 c 0,43,44
 1386 1350 1386 1350 1448 1331 c 0,45,-1
 1372 958 l 0,46,-1
 1198 958 l 0,47,-1
 1217 1190 l 0,48,49
 1219 1208 1219 1208 1201.5 1218.5 c 0,50,51
 1184 1229 1184 1229 1163 1237 c 0,52,53
 1153 1240 1153 1240 1135.5 1246.5 c 0,54,55
 1118 1253 1118 1253 1095.5 1259.5 c 0,56,57
 1073 1266 1073 1266 1048 1271 c 0,58,59
 1023 1276 1023 1276 999 1276 c 0,60,61
 936 1276 936 1276 868 1253 c 0,62,63
 800 1230 800 1230 734.5 1185.5 c 0,64,65
 669 1141 669 1141 610 1075.5 c 0,66,67
 551 1010 551 1010 506.5 926 c 0,68,69
 462 842 462 842 436 740 c 0,70,71
 410 638 410 638 410 520 c 0,72,73
 410 437 410 437 429.5 373.5 c 0,74,75
 449 310 449 310 480.5 262.5 c 0,76,77
 512 215 512 215 551.5 183.5 c 0,78,79
 591 152 591 152 630.5 132.5 c 0,80,81
 670 113 670 113 705 104.5 c 0,82,83
 740 96 740 96 764 96 c 0,84,85
 784 96 784 96 807 99 c 0,86,87
 830 102 830 102 852 106.5 c 0,88,89
 874 111 874 111 894 116 c 0,90,91
 914 121 914 121 928 125 c 0,92,-1
 1008 530 l 0,93,94
 1011 549 1011 549 1002 555 c 0,95,96
 993 561 993 561 969 563 c 0,97,98
 951 563 951 563 932 565 c 0,99,100
 915 566 915 566 894.5 567.5 c 0,101,102
 874 569 874 569 854 571 c 0,103,-1
 854 676 l 0,104,-1
 1468 676 l 0,105,-1
 1468 571 l 0,106,-1
 1329 561 l 0,0,1
EndSplineSet
EndChar

StartChar: H
Encoding: 43 72 43
Width: 1571
Flags: W
LayerCount: 2
Fore
SplineSet
1526 1260 m 0,0,1
 1507 1258 1507 1258 1499.5 1250.5 c 0,2,3
 1492 1243 1492 1243 1489 1229 c 0,4,-1
 1276 143 l 0,5,6
 1273 126 1273 126 1282 120.5 c 0,7,8
 1291 115 1291 115 1311 113 c 0,9,10
 1329 112 1329 112 1349 110 c 0,11,12
 1366 108 1366 108 1387.5 106 c 0,13,14
 1409 104 1409 104 1432 102 c 0,15,-1
 1432 0 l 0,16,-1
 811 0 l 0,17,-1
 811 102 l 0,18,-1
 857 106 l 0,19,20
 880 108 880 108 898 110 c 0,21,22
 919 112 919 112 938 113 c 0,23,24
 957 115 957 115 968.5 121 c 0,25,26
 980 127 980 127 983 145 c 0,27,-1
 1083 657 l 0,28,-1
 530 657 l 0,29,-1
 430 143 l 0,30,31
 427 125 427 125 434 120 c 0,32,33
 441 115 441 115 467 113 c 0,34,35
 485 112 485 112 505 110 c 0,36,37
 522 108 522 108 543.5 106 c 0,38,39
 565 104 565 104 588 102 c 0,40,-1
 588 0 l 0,41,-1
 -31 0 l 0,42,-1
 -31 102 l 0,43,44
 -8 104 -8 104 14.5 106 c 0,45,46
 37 108 37 108 54 110 c 0,47,48
 74 112 74 112 92 113 c 0,49,50
 114 115 114 115 124 121 c 0,51,52
 134 127 134 127 137 145 c 0,53,-1
 350 1231 l 0,54,55
 353 1249 353 1249 343 1254.5 c 0,56,57
 333 1260 333 1260 311 1262 c 0,58,59
 293 1263 293 1263 274 1265 c 0,60,61
 257 1267 257 1267 236.5 1268.5 c 0,62,63
 216 1270 216 1270 195 1272 c 0,64,-1
 195 1374 l 0,65,-1
 813 1374 l 0,66,-1
 813 1272 l 0,67,68
 789 1270 789 1270 766.5 1268.5 c 0,69,70
 744 1267 744 1267 726 1265 c 0,71,72
 705 1263 705 1263 686 1262 c 0,73,74
 666 1260 666 1260 656 1253.5 c 0,75,76
 646 1247 646 1247 643 1229 c 0,77,-1
 555 780 l 0,78,-1
 1108 780 l 0,79,-1
 1196 1231 l 0,80,81
 1199 1249 1199 1249 1188.5 1255.5 c 0,82,83
 1178 1262 1178 1262 1153 1264 c 0,84,85
 1135 1265 1135 1265 1116 1266 c 0,86,87
 1099 1267 1099 1267 1078.5 1268.5 c 0,88,89
 1058 1270 1058 1270 1038 1272 c 0,90,-1
 1038 1374 l 0,91,-1
 1657 1374 l 0,92,-1
 1657 1272 l 0,93,-1
 1526 1260 l 0,0,1
EndSplineSet
EndChar

StartChar: I
Encoding: 44 73 44
Width: 729
Flags: W
LayerCount: 2
Fore
SplineSet
674 1262 m 0,0,1
 658 1260 658 1260 652 1251.5 c 0,2,3
 646 1243 646 1243 643 1229 c 0,4,-1
 430 143 l 0,5,6
 427 126 427 126 434 120.5 c 0,7,8
 441 115 441 115 461 113 c 0,9,10
 480 112 480 112 501 110 c 0,11,12
 519 108 519 108 542 106 c 0,13,14
 565 104 565 104 590 102 c 0,15,-1
 590 0 l 0,16,-1
 -31 0 l 0,17,-1
 -31 102 l 0,18,19
 -8 104 -8 104 13.5 105 c 0,20,21
 35 106 35 106 52 108 c 0,22,23
 72 110 72 110 90 111 c 0,24,25
 113 113 113 113 123.5 118.5 c 0,26,27
 134 124 134 124 137 145 c 0,28,-1
 350 1231 l 0,29,30
 355 1249 355 1249 344 1254.5 c 0,31,32
 333 1260 333 1260 313 1262 c 0,33,34
 295 1263 295 1263 276 1265 c 0,35,36
 259 1267 259 1267 238 1268.5 c 0,37,38
 217 1270 217 1270 197 1272 c 0,39,-1
 197 1374 l 0,40,-1
 815 1374 l 0,41,-1
 815 1272 l 0,42,-1
 674 1262 l 0,0,1
EndSplineSet
EndChar

StartChar: J
Encoding: 45 74 45
Width: 1044
Flags: W
LayerCount: 2
Fore
SplineSet
985 1260 m 0,0,1
 971 1260 971 1260 965.5 1251.5 c 0,2,3
 960 1243 960 1243 956 1229 c 0,4,-1
 825 526 l 0,5,6
 803 405 803 405 770.5 302.5 c 0,7,8
 738 200 738 200 678 125.5 c 0,9,10
 618 51 618 51 520.5 9 c 0,11,12
 423 -33 423 -33 272 -33 c 0,13,14
 204 -33 204 -33 150.5 -24 c 0,15,16
 97 -15 97 -15 58 -3 c 0,17,18
 19 9 19 9 -5.5 20.5 c 0,19,20
 -30 32 -30 32 -41 37 c 0,21,-1
 29 393 l 0,22,-1
 197 393 l 0,23,-1
 197 135 l 0,24,25
 197 127 197 127 206.5 119.5 c 0,26,27
 216 112 216 112 230 106.5 c 0,28,29
 244 101 244 101 259.5 97.5 c 0,30,31
 275 94 275 94 287 94 c 0,32,33
 376 94 376 94 433 196.5 c 0,34,35
 490 299 490 299 528 510 c 0,36,-1
 664 1231 l 0,37,38
 667 1249 667 1249 657 1254.5 c 0,39,40
 647 1260 647 1260 627 1262 c 0,41,42
 608 1263 608 1263 588 1265 c 0,43,44
 571 1267 571 1267 549 1268.5 c 0,45,46
 527 1270 527 1270 506 1272 c 0,47,-1
 506 1374 l 0,48,-1
 1124 1374 l 0,49,-1
 1124 1272 l 0,50,-1
 985 1260 l 0,0,1
EndSplineSet
EndChar

StartChar: K
Encoding: 46 75 46
Width: 1430
Flags: W
LayerCount: 2
Fore
SplineSet
1323 1255 m 0,0,-1
 795 752 l 0,1,-1
 1079 211 l 0,2,3
 1097 177 1097 177 1108.5 156 c 0,4,5
 1120 135 1120 135 1132 122.5 c 0,6,7
 1144 110 1144 110 1159 105.5 c 0,8,9
 1174 101 1174 101 1198 100 c 0,10,11
 1206 100 1206 100 1226 101.5 c 0,12,13
 1246 103 1246 103 1268 104.5 c 0,14,15
 1290 106 1290 106 1307.5 107.5 c 0,16,17
 1325 109 1325 109 1327 109 c 0,18,-1
 1327 6 l 0,19,20
 1271 -11 1271 -11 1210 -22 c 0,21,22
 1149 -33 1149 -33 1092 -33 c 0,23,24
 1030 -33 1030 -33 986.5 -24 c 0,25,26
 943 -15 943 -15 911.5 4.5 c 0,27,28
 880 24 880 24 856.5 54.5 c 0,29,30
 833 85 833 85 811 127 c 0,31,-1
 565 596 l 0,32,-1
 518 596 l 0,33,-1
 428 143 l 0,34,35
 425 123 425 123 434.5 118 c 0,36,37
 444 113 444 113 461 111 c 0,38,39
 478 110 478 110 496 108 c 0,40,41
 511 106 511 106 529.5 105 c 0,42,43
 548 104 548 104 567 102 c 0,44,-1
 567 0 l 0,45,-1
 -33 0 l 0,46,-1
 -33 102 l 0,47,48
 -13 104 -13 104 9 105 c 0,49,50
 31 106 31 106 51 108 c 0,51,52
 74 110 74 110 96 111 c 0,53,54
 112 111 112 111 122 118 c 0,55,56
 132 125 132 125 135 145 c 0,57,-1
 350 1231 l 0,58,59
 355 1249 355 1249 347 1255.5 c 0,60,61
 339 1262 339 1262 324 1264 c 0,62,63
 307 1265 307 1265 289 1266 c 0,64,65
 273 1267 273 1267 254 1268.5 c 0,66,67
 235 1270 235 1270 215 1272 c 0,68,-1
 215 1374 l 0,69,-1
 795 1374 l 0,70,-1
 795 1272 l 0,71,72
 774 1270 774 1270 753.5 1268.5 c 0,73,74
 733 1267 733 1267 717 1266 c 0,75,76
 699 1265 699 1265 682 1264 c 0,77,78
 667 1262 667 1262 657.5 1255.5 c 0,79,80
 648 1249 648 1249 643 1229 c 0,81,-1
 555 784 l 0,82,-1
 571 784 l 0,83,-1
 1032 1233 l 0,84,85
 1048 1247 1048 1247 1041.5 1254.5 c 0,86,87
 1035 1262 1035 1262 1014 1264 c 0,88,89
 996 1264 996 1264 978 1266 c 0,90,91
 962 1267 962 1267 943 1268.5 c 0,92,93
 924 1270 924 1270 907 1272 c 0,94,-1
 907 1374 l 0,95,-1
 1503 1374 l 0,96,-1
 1503 1272 l 0,97,-1
 1323 1255 l 0,0,-1
EndSplineSet
EndChar

StartChar: L
Encoding: 47 76 47
Width: 1147
Flags: W
LayerCount: 2
Fore
SplineSet
999 0 m 0,0,-1
 -31 0 l 0,1,-1
 -31 102 l 0,2,3
 -10 104 -10 104 10.5 106 c 0,4,5
 31 108 31 108 48 109 c 0,6,-1
 86 111 l 0,7,8
 115 114 115 114 124.5 119.5 c 0,9,10
 134 125 134 125 137 145 c 0,11,-1
 350 1231 l 0,12,13
 355 1248 355 1248 344.5 1254 c 0,14,15
 334 1260 334 1260 317 1262 c 0,16,17
 299 1263 299 1263 279 1265 c 0,18,19
 262 1267 262 1267 240.5 1268.5 c 0,20,21
 219 1270 219 1270 197 1272 c 0,22,-1
 197 1374 l 0,23,-1
 815 1374 l 0,24,-1
 815 1272 l 0,25,26
 789 1270 789 1270 765.5 1268.5 c 0,27,28
 742 1267 742 1267 723 1265 c 0,29,30
 701 1263 701 1263 682 1262 c 0,31,32
 668 1260 668 1260 658 1253.5 c 0,33,34
 648 1247 648 1247 643 1229 c 0,35,-1
 426 123 l 0,36,-1
 786 123 l 0,37,38
 802 123 802 123 820.5 131 c 0,39,40
 839 139 839 139 844 152 c 0,41,-1
 928 414 l 0,42,-1
 1081 414 l 0,43,-1
 999 0 l 0,0,-1
EndSplineSet
EndChar

StartChar: M
Encoding: 48 77 48
Width: 1851
Flags: W
LayerCount: 2
Fore
SplineSet
1796 1257 m 0,0,1
 1782 1255 1782 1255 1776.5 1249 c 0,2,3
 1771 1243 1771 1243 1767 1229 c 0,4,-1
 1556 143 l 0,5,6
 1553 125 1553 125 1563 120 c 0,7,8
 1573 115 1573 115 1593 113 c 0,9,10
 1611 112 1611 112 1631 110 c 0,11,12
 1648 108 1648 108 1669 106 c 0,13,14
 1690 104 1690 104 1712 102 c 0,15,-1
 1712 0 l 0,16,-1
 1094 0 l 0,17,-1
 1094 102 l 0,18,19
 1117 104 1117 104 1139 106 c 0,20,21
 1161 108 1161 108 1179 110 c 0,22,23
 1200 112 1200 112 1219 113 c 0,24,25
 1236 113 1236 113 1248.5 120 c 0,26,27
 1261 127 1261 127 1264 145 c 0,28,-1
 1417 936 l 0,29,-1
 885 0 l 0,30,-1
 684 0 l 0,31,-1
 518 922 l 0,32,-1
 373 143 l 0,33,34
 368 126 368 126 377.5 120.5 c 0,35,36
 387 115 387 115 401 113 c 0,37,38
 420 112 420 112 440 110 c 0,39,40
 457 108 457 108 479.5 106 c 0,41,42
 502 104 502 104 526 102 c 0,43,-1
 526 0 l 0,44,-1
 -29 0 l 0,45,-1
 -29 102 l 0,46,47
 -8 104 -8 104 12 106 c 0,48,49
 32 108 32 108 49 110 c 0,50,51
 68 112 68 112 86 113 c 0,52,53
 108 115 108 115 121 120 c 0,54,55
 134 125 134 125 139 145 c 0,56,-1
 350 1231 l 0,57,58
 353 1249 353 1249 343 1254.5 c 0,59,60
 333 1260 333 1260 313 1262 c 0,61,62
 294 1263 294 1263 275 1265 c 0,63,64
 258 1267 258 1267 237 1268.5 c 0,65,66
 216 1270 216 1270 195 1272 c 0,67,-1
 195 1374 l 0,68,-1
 739 1374 l 0,69,-1
 739 1307 l 0,70,-1
 895 446 l 0,71,-1
 1376 1298 l 0,72,-1
 1376 1374 l 0,73,-1
 1935 1374 l 0,74,-1
 1935 1272 l 0,75,-1
 1796 1257 l 0,0,1
EndSplineSet
EndChar

StartChar: N
Encoding: 49 78 49
Width: 1542
Flags: W
LayerCount: 2
Fore
SplineSet
1499 1260 m 0,0,1
 1470 1255 1470 1255 1464 1229 c 0,2,-1
 1221 0 l 0,3,-1
 993 0 l 0,4,-1
 535 952 l 0,5,-1
 377 143 l 0,6,7
 374 125 374 125 383 120 c 0,8,9
 392 115 392 115 414 113 c 0,10,11
 432 112 432 112 451 110 c 0,12,13
 468 108 468 108 488.5 106 c 0,14,15
 509 104 509 104 532 102 c 0,16,-1
 532 0 l 0,17,-1
 -29 0 l 0,18,-1
 -29 102 l 0,19,20
 -7 104 -7 104 13.5 106 c 0,21,22
 34 108 34 108 51 110 c 0,23,24
 70 112 70 112 88 113 c 0,25,26
 110 115 110 115 122 120 c 0,27,28
 134 125 134 125 139 145 c 0,29,-1
 350 1231 l 0,30,31
 355 1249 355 1249 344 1254.5 c 0,32,33
 333 1260 333 1260 313 1262 c 0,34,35
 295 1263 295 1263 276 1265 c 0,36,37
 259 1267 259 1267 238.5 1268.5 c 0,38,39
 218 1270 218 1270 197 1272 c 0,40,-1
 197 1374 l 0,41,-1
 678 1374 l 0,42,-1
 678 1311 l 0,43,-1
 1077 477 l 0,44,-1
 1227 1231 l 0,45,46
 1232 1249 1232 1249 1219 1254.5 c 0,47,48
 1206 1260 1206 1260 1188 1262 c 0,49,50
 1169 1263 1169 1263 1150 1265 c 0,51,52
 1133 1267 1133 1267 1112 1268.5 c 0,53,54
 1091 1270 1091 1270 1071 1272 c 0,55,-1
 1071 1374 l 0,56,-1
 1632 1374 l 0,57,-1
 1632 1272 l 0,58,-1
 1499 1260 l 0,0,1
EndSplineSet
EndChar

StartChar: O
Encoding: 50 79 50
Width: 1540
Flags: W
LayerCount: 2
Fore
SplineSet
1501 854 m 0,0,1
 1501 749 1501 749 1479 642.5 c 0,2,3
 1457 536 1457 536 1412.5 437.5 c 0,4,5
 1368 339 1368 339 1301 253 c 0,6,7
 1234 167 1234 167 1145 103.5 c 0,8,9
 1056 40 1056 40 944 3.5 c 0,10,11
 832 -33 832 -33 698 -33 c 0,12,13
 555 -33 555 -33 443.5 9.5 c 0,14,15
 332 52 332 52 255 128.5 c 0,16,17
 178 205 178 205 138 309.5 c 0,18,19
 98 414 98 414 98 539 c 0,20,21
 98 645 98 645 122.5 751 c 0,22,23
 147 857 147 857 194.5 953.5 c 0,24,25
 242 1050 242 1050 311 1133 c 0,26,27
 380 1216 380 1216 469.5 1277 c 0,28,29
 559 1338 559 1338 668 1372.5 c 0,30,31
 777 1407 777 1407 903 1407 c 0,32,33
 1051 1407 1051 1407 1163 1361.5 c 0,34,35
 1275 1316 1275 1316 1350 1239.5 c 0,36,37
 1425 1163 1425 1163 1463 1063 c 0,38,39
 1501 963 1501 963 1501 854 c 0,0,1
1182 854 m 0,40,41
 1182 957 1182 957 1155.5 1037 c 0,42,43
 1129 1117 1129 1117 1086.5 1172 c 0,44,45
 1044 1227 1044 1227 991 1255.5 c 0,46,47
 938 1284 938 1284 885 1284 c 0,48,49
 824 1284 824 1284 765.5 1253 c 0,50,51
 707 1222 707 1222 655 1168.5 c 0,52,53
 603 1115 603 1115 559 1041.5 c 0,54,55
 515 968 515 968 483.5 883.5 c 0,56,57
 452 799 452 799 434 706.5 c 0,58,59
 416 614 416 614 416 522 c 0,60,61
 416 416 416 416 443.5 336 c 0,62,63
 471 256 471 256 514 202 c 0,64,65
 557 148 557 148 609.5 121 c 0,66,67
 662 94 662 94 713 94 c 0,68,69
 773 94 773 94 831.5 125.5 c 0,70,71
 890 157 890 157 942 212 c 0,72,73
 994 267 994 267 1038 340.5 c 0,74,75
 1082 414 1082 414 1114 498.5 c 0,76,77
 1146 583 1146 583 1164 674 c 0,78,79
 1182 765 1182 765 1182 854 c 0,40,41
EndSplineSet
EndChar

StartChar: P
Encoding: 51 80 51
Width: 1245
Flags: W
LayerCount: 2
Fore
SplineSet
956 1008 m 0,0,1
 956 1129 956 1129 887 1193 c 0,2,3
 818 1257 818 1257 682 1257 c 0,4,-1
 647 1257 l 0,5,-1
 522 631 l 0,6,7
 582 629 582 629 649.5 641.5 c 0,8,9
 717 654 717 654 780 692 c 0,10,11
 817 714 817 714 849 744 c 0,12,13
 881 774 881 774 905 813 c 0,14,15
 929 852 929 852 942.5 900.5 c 0,16,17
 956 949 956 949 956 1008 c 0,0,1
1255 1040 m 0,18,19
 1255 920 1255 920 1208.5 822 c 0,20,21
 1162 724 1162 724 1075 653.5 c 0,22,23
 988 583 988 583 864.5 544.5 c 0,24,25
 741 506 741 506 588 506 c 0,26,-1
 546 506 l 0,27,28
 521 506 521 506 500 508 c 0,29,-1
 426 143 l 0,30,31
 423 125 423 125 432 120 c 0,32,33
 441 115 441 115 463 113 c 0,34,35
 481 112 481 112 501 110 c 0,36,37
 518 108 518 108 539.5 106 c 0,38,39
 561 104 561 104 584 102 c 0,40,-1
 584 0 l 0,41,-1
 -35 0 l 0,42,-1
 -35 102 l 0,43,44
 -13 104 -13 104 8 106 c 0,45,46
 29 108 29 108 46 110 c 0,47,48
 65 112 65 112 84 113 c 0,49,50
 104 115 104 115 116 120 c 0,51,52
 128 125 128 125 133 145 c 0,53,-1
 348 1231 l 0,54,55
 351 1249 351 1249 339.5 1254.5 c 0,56,57
 328 1260 328 1260 309 1262 c 0,58,59
 291 1263 291 1263 272 1265 c 0,60,61
 255 1267 255 1267 234 1268.5 c 0,62,63
 213 1270 213 1270 193 1272 c 0,64,-1
 193 1374 l 0,65,-1
 745 1374 l 0,66,67
 890 1374 890 1374 988 1347.5 c 0,68,69
 1086 1321 1086 1321 1145.5 1275.5 c 0,70,71
 1205 1230 1205 1230 1230 1169.5 c 0,72,73
 1255 1109 1255 1109 1255 1040 c 0,18,19
EndSplineSet
EndChar

StartChar: Q
Encoding: 52 81 52
Width: 1540
Flags: W
LayerCount: 2
Fore
SplineSet
1565 -221 m 0,0,1
 1551 -228 1551 -228 1510 -245.5 c 0,2,3
 1469 -263 1469 -263 1414 -281.5 c 0,4,5
 1359 -300 1359 -300 1296 -314 c 0,6,7
 1233 -328 1233 -328 1176 -328 c 0,8,9
 1081 -328 1081 -328 1013.5 -303.5 c 0,10,11
 946 -279 946 -279 898 -238.5 c 0,12,13
 850 -198 850 -198 817.5 -144.5 c 0,14,15
 785 -91 785 -91 758 -33 c 0,16,17
 744 -35 744 -35 727.5 -36 c 0,18,19
 711 -37 711 -37 692 -37 c 0,20,21
 559 -37 559 -37 449 2.5 c 0,22,23
 339 42 339 42 260 116 c 0,24,25
 181 190 181 190 137.5 294.5 c 0,26,27
 94 399 94 399 94 530 c 0,28,29
 94 632 94 632 118.5 737 c 0,30,31
 143 842 143 842 191 939.5 c 0,32,33
 239 1037 239 1037 308.5 1122 c 0,34,35
 378 1207 378 1207 468 1270.5 c 0,36,37
 558 1334 558 1334 667.5 1370.5 c 0,38,39
 777 1407 777 1407 905 1407 c 0,40,41
 1051 1407 1051 1407 1162 1363 c 0,42,43
 1273 1319 1273 1319 1348 1243 c 0,44,45
 1423 1167 1423 1167 1461 1066.5 c 0,46,47
 1499 966 1499 966 1499 852 c 0,48,49
 1499 798 1499 798 1492.5 732 c 0,50,51
 1486 666 1486 666 1467.5 594.5 c 0,52,53
 1449 523 1449 523 1417.5 448.5 c 0,54,55
 1386 374 1386 374 1336.5 302.5 c 0,56,57
 1287 231 1287 231 1216.5 165 c 0,58,59
 1146 99 1146 99 1051 45 c 0,60,61
 1080 -7 1080 -7 1102 -50 c 0,62,63
 1124 -93 1124 -93 1149 -123.5 c 0,64,65
 1174 -154 1174 -154 1206 -171 c 0,66,67
 1238 -188 1238 -188 1286 -188 c 0,68,69
 1313 -188 1313 -188 1341 -181.5 c 0,70,71
 1369 -175 1369 -175 1402 -163 c 0,72,73
 1435 -151 1435 -151 1474.5 -133 c 0,74,75
 1514 -115 1514 -115 1565 -92 c 0,76,-1
 1565 -221 l 0,0,1
1182 852 m 0,77,78
 1182 951 1182 951 1157 1030.5 c 0,79,80
 1132 1110 1132 1110 1091.5 1166 c 0,81,82
 1051 1222 1051 1222 999.5 1252 c 0,83,84
 948 1282 948 1282 895 1282 c 0,85,86
 833 1282 833 1282 773 1252.5 c 0,87,88
 713 1223 713 1223 659 1170.5 c 0,89,90
 605 1118 605 1118 559.5 1046 c 0,91,92
 514 974 514 974 480.5 889.5 c 0,93,94
 447 805 447 805 428.5 711 c 0,95,96
 410 617 410 617 410 520 c 0,97,98
 410 422 410 422 435 342.5 c 0,99,100
 460 263 460 263 501.5 207 c 0,101,102
 543 151 543 151 597.5 120.5 c 0,103,104
 652 90 652 90 711 90 c 0,105,106
 770 90 770 90 828 121 c 0,107,108
 886 152 886 152 938.5 206.5 c 0,109,110
 991 261 991 261 1035.5 334.5 c 0,111,112
 1080 408 1080 408 1112.5 493 c 0,113,114
 1145 578 1145 578 1163.5 669.5 c 0,115,116
 1182 761 1182 761 1182 852 c 0,77,78
EndSplineSet
EndChar

StartChar: R
Encoding: 53 82 53
Width: 1399
Flags: W
LayerCount: 2
Fore
SplineSet
958 1036 m 0,0,1
 958 1086 958 1086 943 1122 c 0,2,3
 928 1158 928 1158 904.5 1182.5 c 0,4,5
 881 1207 881 1207 852 1222 c 0,6,7
 823 1237 823 1237 794 1244.5 c 0,8,9
 765 1252 765 1252 739.5 1254 c 0,10,11
 714 1256 714 1256 698 1255 c 0,12,-1
 647 1251 l 0,13,-1
 547 721 l 0,14,-1
 561 721 l 0,15,16
 570 721 570 721 578 722 c 0,17,18
 588 722 588 722 598 723 c 0,19,20
 637 724 637 724 679 732 c 0,21,22
 721 740 721 740 761 755 c 0,23,24
 801 770 801 770 836.5 794 c 0,25,26
 872 818 872 818 899 852.5 c 0,27,28
 926 887 926 887 942 932.5 c 0,29,30
 958 978 958 978 958 1036 c 0,0,1
1346 6 m 0,31,32
 1299 -14 1299 -14 1254 -23.5 c 0,33,34
 1209 -33 1209 -33 1153 -33 c 0,35,36
 1058 -33 1058 -33 997 -11 c 0,37,38
 936 11 936 11 897 53.5 c 0,39,40
 858 96 858 96 836 158 c 0,41,42
 814 220 814 220 797 301 c 0,43,44
 790 331 790 331 782.5 364.5 c 0,45,46
 775 398 775 398 764.5 431 c 0,47,48
 754 464 754 464 739.5 494 c 0,49,50
 725 524 725 524 703.5 547.5 c 0,51,52
 682 571 682 571 653.5 584.5 c 0,53,54
 625 598 625 598 586 598 c 0,55,56
 573 598 573 598 555 597 c 0,57,58
 537 596 537 596 520 596 c 0,59,-1
 434 143 l 0,60,61
 431 126 431 126 439 120.5 c 0,62,63
 447 115 447 115 467 113 c 0,64,65
 485 111 485 111 506 109 c 0,66,67
 523 107 523 107 546 105.5 c 0,68,69
 569 104 569 104 592 102 c 0,70,-1
 592 0 l 0,71,-1
 -27 0 l 0,72,-1
 -27 102 l 0,73,74
 -4 104 -4 104 17.5 105 c 0,75,76
 39 106 39 106 56 108 c 0,77,78
 76 110 76 110 94 111 c 0,79,80
 113 113 113 113 124.5 119 c 0,81,82
 136 125 136 125 141 145 c 0,83,-1
 350 1231 l 0,84,85
 355 1248 355 1248 345 1254 c 0,86,87
 335 1260 335 1260 315 1262 c 0,88,89
 296 1263 296 1263 277 1265 c 0,90,91
 260 1267 260 1267 239 1268.5 c 0,92,93
 218 1270 218 1270 197 1272 c 0,94,-1
 197 1374 l 0,95,-1
 788 1374 l 0,96,97
 891 1374 891 1374 980 1358 c 0,98,99
 1069 1342 1069 1342 1135 1305.5 c 0,100,101
 1201 1269 1201 1269 1238.5 1210.5 c 0,102,103
 1276 1152 1276 1152 1276 1067 c 0,104,105
 1276 986 1276 986 1244.5 920.5 c 0,106,107
 1213 855 1213 855 1158 803 c 0,108,109
 1103 751 1103 751 1028 712.5 c 0,110,111
 953 674 953 674 866 649 c 0,112,113
 925 622 925 622 961 589.5 c 0,114,115
 997 557 997 557 1019 516.5 c 0,116,117
 1041 476 1041 476 1054.5 427.5 c 0,118,119
 1068 379 1068 379 1083 322 c 0,120,121
 1097 268 1097 268 1110.5 227 c 0,122,123
 1124 186 1124 186 1150.5 158 c 0,124,125
 1177 130 1177 130 1222.5 116 c 0,126,127
 1268 102 1268 102 1346 102 c 0,128,-1
 1346 6 l 0,31,32
EndSplineSet
EndChar

StartChar: S
Encoding: 54 83 54
Width: 1153
Flags: W
LayerCount: 2
Fore
SplineSet
1069 1006 m 0,0,-1
 913 1006 l 0,1,-1
 922 1219 l 0,2,3
 922 1224 922 1224 903 1235 c 0,4,5
 884 1246 884 1246 855 1257.5 c 0,6,7
 826 1269 826 1269 792.5 1277.5 c 0,8,9
 759 1286 759 1286 731 1286 c 0,10,11
 691 1286 691 1286 645 1268 c 0,12,13
 599 1250 599 1250 559.5 1216 c 0,14,15
 520 1182 520 1182 493.5 1133 c 0,16,17
 467 1084 467 1084 467 1022 c 0,18,19
 467 968 467 968 496.5 927.5 c 0,20,21
 526 887 526 887 569.5 856.5 c 0,22,23
 613 826 613 826 662.5 802.5 c 0,24,25
 712 779 712 779 752 760 c 0,26,27
 807 732 807 732 859.5 701 c 0,28,29
 912 670 912 670 952.5 631 c 0,30,31
 993 592 993 592 1017.5 541.5 c 0,32,33
 1042 491 1042 491 1042 424 c 0,34,35
 1042 377 1042 377 1029 325.5 c 0,36,37
 1016 274 1016 274 987 223 c 0,38,39
 958 172 958 172 911 125.5 c 0,40,41
 864 79 864 79 795.5 44 c 0,42,43
 727 9 727 9 635.5 -12 c 0,44,45
 544 -33 544 -33 426 -33 c 0,46,47
 342 -33 342 -33 268.5 -18.5 c 0,48,49
 195 -4 195 -4 137.5 15.5 c 0,50,51
 80 35 80 35 42 54 c 0,52,53
 4 73 4 73 -10 82 c 0,54,-1
 61 418 l 0,55,-1
 236 418 l 0,56,-1
 213 174 l 0,57,58
 212 168 212 168 240 154.5 c 0,59,60
 268 141 268 141 307 127.5 c 0,61,62
 346 114 346 114 387.5 104 c 0,63,64
 429 94 429 94 455 94 c 0,65,66
 501 94 501 94 552 111.5 c 0,67,68
 603 129 603 129 645.5 164.5 c 0,69,70
 688 200 688 200 715.5 253.5 c 0,71,72
 743 307 743 307 743 379 c 0,73,74
 743 429 743 429 712.5 468 c 0,75,76
 682 507 682 507 638.5 537.5 c 0,77,78
 595 568 595 568 545.5 592 c 0,79,80
 496 616 496 616 459 635 c 0,81,82
 404 663 404 663 352.5 693.5 c 0,83,84
 301 724 301 724 261 761.5 c 0,85,86
 221 799 221 799 196.5 846 c 0,87,88
 172 893 172 893 172 954 c 0,89,90
 172 1053 172 1053 211.5 1136 c 0,91,92
 251 1219 251 1219 325.5 1279 c 0,93,94
 400 1339 400 1339 506.5 1373 c 0,95,96
 613 1407 613 1407 748 1407 c 0,97,98
 817 1407 817 1407 875 1399.5 c 0,99,100
 933 1392 933 1392 981.5 1380 c 0,101,102
 1030 1368 1030 1368 1069 1353.5 c 0,103,104
 1108 1339 1108 1339 1139 1325 c 0,105,-1
 1069 1006 l 0,0,-1
EndSplineSet
EndChar

StartChar: T
Encoding: 55 84 55
Width: 1286
Flags: W
LayerCount: 2
Fore
SplineSet
1343 1016 m 0,0,-1
 1184 1016 l 0,1,-1
 1194 1235 l 0,2,3
 1195 1248 1195 1248 1179.5 1255 c 0,4,5
 1164 1262 1164 1262 1149 1262 c 0,6,-1
 926 1262 l 0,7,-1
 715 143 l 0,8,9
 712 125 712 125 723.5 120 c 0,10,11
 735 115 735 115 754 113 c 0,12,13
 772 112 772 112 792 110 c 0,14,15
 809 108 809 108 830 106 c 0,16,-1
 872 102 l 0,17,-1
 872 0 l 0,18,-1
 254 0 l 0,19,-1
 254 102 l 0,20,21
 274 104 274 104 293.5 105 c 0,22,23
 313 106 313 106 330 108 c 0,24,25
 349 110 349 110 367 111 c 0,26,27
 388 113 388 113 403.5 119 c 0,28,29
 419 125 419 125 422 145 c 0,30,-1
 633 1262 l 0,31,-1
 422 1262 l 0,32,33
 415 1262 415 1262 406 1260 c 0,34,35
 397 1258 397 1258 388.5 1254 c 0,36,37
 380 1250 380 1250 373.5 1245 c 0,38,39
 367 1240 367 1240 365 1233 c 0,40,-1
 287 1016 l 0,41,-1
 127 1016 l 0,42,-1
 197 1374 l 0,43,-1
 1417 1374 l 0,44,-1
 1343 1016 l 0,0,-1
EndSplineSet
EndChar

StartChar: U
Encoding: 56 85 56
Width: 1534
Flags: W
LayerCount: 2
Fore
SplineSet
1485 1262 m 0,0,1
 1471 1260 1471 1260 1463 1251.5 c 0,2,3
 1455 1243 1455 1243 1452 1229 c 0,4,-1
 1294 440 l 0,5,6
 1273 333 1273 333 1227.5 246 c 0,7,8
 1182 159 1182 159 1107.5 97 c 0,9,10
 1033 35 1033 35 927 1 c 0,11,12
 821 -33 821 -33 680 -33 c 0,13,14
 566 -33 566 -33 475 -11.5 c 0,15,16
 384 10 384 10 320.5 54.5 c 0,17,18
 257 99 257 99 222.5 168 c 0,19,20
 188 237 188 237 188 332 c 0,21,22
 188 361 188 361 194.5 417.5 c 0,23,24
 201 474 201 474 215 543 c 0,25,-1
 358 1231 l 0,26,27
 361 1249 361 1249 350 1254.5 c 0,28,29
 339 1260 339 1260 317 1262 c 0,30,31
 300 1263 300 1263 281 1265 c 0,32,33
 264 1267 264 1267 243.5 1268.5 c 0,34,35
 223 1270 223 1270 203 1272 c 0,36,-1
 203 1374 l 0,37,-1
 821 1374 l 0,38,-1
 821 1272 l 0,39,40
 797 1270 797 1270 774.5 1268.5 c 0,41,42
 752 1267 752 1267 734 1265 c 0,43,44
 713 1263 713 1263 694 1262 c 0,45,46
 676 1260 676 1260 665 1253.5 c 0,47,48
 654 1247 654 1247 651 1229 c 0,49,-1
 510 543 l 0,50,51
 498 484 498 484 492.5 437 c 0,52,53
 487 390 487 390 487 362 c 0,54,55
 487 297 487 297 508 251 c 0,56,57
 529 205 529 205 563.5 176 c 0,58,59
 598 147 598 147 642.5 134 c 0,60,61
 687 121 687 121 733 121 c 0,62,63
 813 121 813 121 871.5 150.5 c 0,64,65
 930 180 930 180 971 232 c 0,66,67
 1012 284 1012 284 1039 356 c 0,68,69
 1066 428 1066 428 1083 512 c 0,70,-1
 1227 1231 l 0,71,72
 1230 1249 1230 1249 1221.5 1254.5 c 0,73,74
 1213 1260 1213 1260 1188 1262 c 0,75,76
 1169 1263 1169 1263 1150 1265 c 0,77,78
 1133 1267 1133 1267 1112 1268.5 c 0,79,80
 1091 1270 1091 1270 1071 1272 c 0,81,-1
 1071 1374 l 0,82,-1
 1620 1374 l 0,83,-1
 1620 1272 l 0,84,-1
 1485 1262 l 0,0,1
EndSplineSet
EndChar

StartChar: V
Encoding: 57 86 57
Width: 1403
Flags: W
LayerCount: 2
Fore
SplineSet
1440 1260 m 0,0,-1
 733 -33 l 0,1,-1
 498 -33 l 0,2,-1
 297 1235 l 0,3,4
 294 1255 294 1255 280.5 1260.5 c 0,5,6
 267 1266 267 1266 250 1266 c 0,7,8
 237 1266 237 1266 223 1267 c 0,9,10
 211 1268 211 1268 197 1268.5 c 0,11,12
 183 1269 183 1269 170 1270 c 0,13,-1
 170 1374 l 0,14,-1
 721 1374 l 0,15,-1
 721 1270 l 0,16,17
 704 1269 704 1269 688.5 1268.5 c 0,18,19
 673 1268 673 1268 659 1268 c 0,20,-1
 629 1268 l 0,21,22
 612 1268 612 1268 600.5 1262 c 0,23,24
 589 1256 589 1256 592 1237 c 0,25,-1
 725 383 l 0,26,-1
 1180 1237 l 0,27,28
 1184 1247 1184 1247 1182.5 1253 c 0,29,30
 1181 1259 1181 1259 1176 1262 c 0,31,32
 1171 1265 1171 1265 1164 1266 c 0,33,34
 1157 1267 1157 1267 1151 1268 c 0,35,-1
 1118 1268 l 0,36,37
 1103 1268 1103 1268 1084.5 1268.5 c 0,38,39
 1066 1269 1066 1269 1049 1270 c 0,40,-1
 1049 1374 l 0,41,-1
 1552 1374 l 0,42,-1
 1552 1272 l 0,43,-1
 1440 1260 l 0,0,-1
EndSplineSet
EndChar

StartChar: W
Encoding: 58 87 58
Width: 1985
Flags: W
LayerCount: 2
Fore
SplineSet
2009 1260 m 0,0,-1
 1393 -33 l 0,1,-1
 1184 -33 l 0,2,-1
 1079 907 l 0,3,-1
 633 -33 l 0,4,-1
 410 -33 l 0,5,-1
 305 1235 l 0,6,7
 303 1255 303 1255 292.5 1259.5 c 0,8,9
 282 1264 282 1264 256 1266 c 0,10,11
 243 1266 243 1266 228 1267 c 0,12,13
 215 1268 215 1268 199.5 1268.5 c 0,14,15
 184 1269 184 1269 170 1270 c 0,16,-1
 170 1374 l 0,17,-1
 729 1374 l 0,18,-1
 729 1270 l 0,19,20
 711 1269 711 1269 693.5 1268.5 c 0,21,22
 676 1268 676 1268 662 1267 c 0,23,24
 645 1266 645 1266 631 1266 c 0,25,26
 618 1266 618 1266 607 1261 c 0,27,28
 596 1256 596 1256 598 1237 c 0,29,-1
 657 514 l 0,30,-1
 1069 1374 l 0,31,-1
 1315 1374 l 0,32,-1
 1405 496 l 0,33,-1
 1751 1237 l 0,34,35
 1755 1247 1755 1247 1754 1253 c 0,36,37
 1753 1259 1753 1259 1747.5 1262 c 0,38,39
 1742 1265 1742 1265 1733 1266 c 0,40,41
 1724 1267 1724 1267 1712 1268 c 0,42,-1
 1681 1268 l 0,43,44
 1667 1268 1667 1268 1651 1268.5 c 0,45,46
 1635 1269 1635 1269 1620 1270 c 0,47,-1
 1620 1374 l 0,48,-1
 2134 1374 l 0,49,-1
 2134 1272 l 0,50,-1
 2009 1260 l 0,0,-1
EndSplineSet
EndChar

StartChar: X
Encoding: 59 88 59
Width: 1382
Flags: W
LayerCount: 2
Fore
SplineSet
1348 1262 m 0,0,1
 1326 1260 1326 1260 1315.5 1251.5 c 0,2,3
 1305 1243 1305 1243 1300 1237 c 0,4,-1
 852 735 l 0,5,-1
 1120 135 l 0,6,7
 1128 120 1128 120 1136.5 116.5 c 0,8,9
 1145 113 1145 113 1157 111 c 0,10,11
 1174 110 1174 110 1192 109 c 0,12,13
 1208 108 1208 108 1228.5 106 c 0,14,15
 1249 104 1249 104 1272 102 c 0,16,-1
 1272 0 l 0,17,-1
 657 0 l 0,18,-1
 657 102 l 0,19,20
 677 104 677 104 698 105 c 0,21,22
 719 106 719 106 736 108 c 0,23,24
 755 110 755 110 774 111 c 0,25,26
 786 112 786 112 795.5 113 c 0,27,28
 805 114 805 114 811.5 117 c 0,29,30
 818 120 818 120 819.5 125.5 c 0,31,32
 821 131 821 131 817 141 c 0,33,-1
 659 502 l 0,34,-1
 330 141 l 0,35,36
 322 133 322 133 324.5 123 c 0,37,38
 327 113 327 113 344 111 c 0,39,-1
 473 102 l 0,40,-1
 473 0 l 0,41,-1
 -90 0 l 0,42,-1
 -90 102 l 0,43,44
 -76 104 -76 104 -60.5 105 c 0,45,46
 -45 106 -45 106 -33 108 c 0,47,48
 -19 110 -19 110 -6 111 c 0,49,50
 7 112 7 112 16 112.5 c 0,51,52
 25 113 25 113 32 115.5 c 0,53,54
 39 118 39 118 45 122.5 c 0,55,56
 51 127 51 127 59 135 c 0,57,-1
 567 696 l 0,58,-1
 322 1239 l 0,59,60
 314 1256 314 1256 304.5 1259 c 0,61,62
 295 1262 295 1262 272 1264 c 0,63,64
 256 1264 256 1264 239 1266 c 0,65,66
 225 1267 225 1267 206.5 1268.5 c 0,67,68
 188 1270 188 1270 170 1272 c 0,69,-1
 170 1374 l 0,70,-1
 788 1374 l 0,71,-1
 788 1272 l 0,72,73
 763 1270 763 1270 739.5 1268.5 c 0,74,75
 716 1267 716 1267 696 1266 c 0,76,77
 673 1265 673 1265 653 1264 c 0,78,79
 639 1264 639 1264 628 1257.5 c 0,80,81
 617 1251 617 1251 625 1233 c 0,82,-1
 764 920 l 0,83,-1
 1044 1233 l 0,84,85
 1052 1241 1052 1241 1054 1250.5 c 0,86,87
 1056 1260 1056 1260 1036 1262 c 0,88,-1
 926 1272 l 0,89,-1
 926 1374 l 0,90,-1
 1475 1374 l 0,91,-1
 1475 1272 l 0,92,-1
 1348 1262 l 0,0,1
EndSplineSet
EndChar

StartChar: Y
Encoding: 60 89 60
Width: 1395
Flags: W
LayerCount: 2
Fore
SplineSet
1411 1262 m 0,0,1
 1400 1260 1400 1260 1389.5 1251.5 c 0,2,3
 1379 1243 1379 1243 1374 1237 c 0,4,-1
 854 575 l 0,5,-1
 768 143 l 0,6,7
 763 125 763 125 773 120 c 0,8,9
 783 115 783 115 805 113 c 0,10,11
 823 112 823 112 842 110 c 0,12,13
 859 108 859 108 879.5 106 c 0,14,15
 900 104 900 104 922 102 c 0,16,-1
 922 0 l 0,17,-1
 303 0 l 0,18,-1
 303 102 l 0,19,20
 323 104 323 104 344 106 c 0,21,22
 365 108 365 108 382 110 c 0,23,24
 401 112 401 112 420 113 c 0,25,26
 440 115 440 115 453 120 c 0,27,28
 466 125 466 125 471 145 c 0,29,-1
 555 559 l 0,30,-1
 326 1239 l 0,31,32
 321 1256 321 1256 307 1259 c 0,33,34
 293 1262 293 1262 274 1264 c 0,35,36
 259 1264 259 1264 241 1266 c 0,37,38
 226 1267 226 1267 207.5 1268.5 c 0,39,40
 189 1270 189 1270 172 1272 c 0,41,-1
 172 1374 l 0,42,-1
 788 1374 l 0,43,-1
 788 1272 l 0,44,45
 765 1270 765 1270 742.5 1268.5 c 0,46,47
 720 1267 720 1267 702 1266 c 0,48,49
 681 1264 681 1264 662 1264 c 0,50,51
 645 1264 645 1264 633 1257.5 c 0,52,53
 621 1251 621 1251 629 1231 c 0,54,-1
 770 786 l 0,55,-1
 1108 1233 l 0,56,57
 1114 1241 1114 1241 1110 1251.5 c 0,58,59
 1106 1262 1106 1262 1083 1264 c 0,60,-1
 963 1272 l 0,61,-1
 963 1374 l 0,62,-1
 1542 1374 l 0,63,-1
 1542 1272 l 0,64,-1
 1411 1262 l 0,0,1
EndSplineSet
EndChar

StartChar: Z
Encoding: 61 90 61
Width: 1237
Flags: W
LayerCount: 2
Fore
SplineSet
1286 1272 m 0,0,-1
 332 127 l 0,1,-1
 836 127 l 0,2,3
 851 127 851 127 869.5 135.5 c 0,4,5
 888 144 888 144 893 158 c 0,6,-1
 967 424 l 0,7,-1
 1139 424 l 0,8,-1
 1057 0 l 0,9,-1
 -43 0 l 0,10,-1
 -23 100 l 0,11,-1
 928 1247 l 0,12,-1
 502 1247 l 0,13,14
 486 1247 486 1247 467.5 1240.5 c 0,15,16
 449 1234 449 1234 444 1219 c 0,17,-1
 379 1001 l 0,18,-1
 207 1001 l 0,19,-1
 281 1374 l 0,20,-1
 1307 1374 l 0,21,-1
 1286 1272 l 0,0,-1
EndSplineSet
EndChar

StartChar: bracketleft
Encoding: 62 91 62
Width: 918
Flags: W
LayerCount: 2
Fore
SplineSet
995 1327 m 0,0,-1
 682 1327 l 0,1,-1
 387 -152 l 0,2,-1
 702 -152 l 0,3,-1
 678 -270 l 0,4,-1
 111 -270 l 0,5,-1
 451 1450 l 0,6,-1
 1020 1450 l 0,7,-1
 995 1327 l 0,0,-1
EndSplineSet
EndChar

StartChar: backslash
Encoding: 63 92 63
Width: 1012
Flags: W
LayerCount: 2
Fore
SplineSet
852 -190 m 0,0,-1
 0 1374 l 0,1,-1
 160 1374 l 0,2,-1
 1012 -190 l 0,3,-1
 852 -190 l 0,0,-1
EndSplineSet
EndChar

StartChar: bracketright
Encoding: 64 93 64
Width: 918
Flags: W
LayerCount: 2
Fore
SplineSet
485 -270 m 0,0,-1
 -84 -270 l 0,1,-1
 -59 -152 l 0,2,-1
 256 -152 l 0,3,-1
 549 1327 l 0,4,-1
 233 1327 l 0,5,-1
 258 1450 l 0,6,-1
 825 1450 l 0,7,-1
 485 -270 l 0,0,-1
EndSplineSet
EndChar

StartChar: asciicircum
Encoding: 65 94 65
Width: 696
Flags: W
LayerCount: 2
Fore
SplineSet
639 1126 m 1,0,-1
 504 1321 l 1,1,-1
 289 1126 l 1,2,-1
 119 1126 l 1,3,-1
 416 1477 l 1,4,-1
 655 1477 l 1,5,-1
 813 1126 l 1,6,-1
 639 1126 l 1,0,-1
EndSplineSet
Refer: 360 770 N 1 0 0 1 903 0 2
EndChar

StartChar: underscore
Encoding: 66 95 66
Width: 700
Flags: W
LayerCount: 2
Fore
SplineSet
537 -340 m 0,0,-1
 -163 -340 l 0,1,-1
 -130 -175 l 0,2,-1
 570 -175 l 0,3,-1
 537 -340 l 0,0,-1
EndSplineSet
EndChar

StartChar: grave
Encoding: 67 96 67
Width: 868
Flags: W
LayerCount: 2
Fore
SplineSet
555 1126 m 1,0,-1
 223 1307 l 2,1,2
 213 1311 213 1311 205 1321 c 128,-1,3
 197 1331 197 1331 190.5 1342.5 c 128,-1,4
 184 1354 184 1354 181 1366 c 128,-1,5
 178 1378 178 1378 178 1386 c 0,6,7
 178 1402 178 1402 183 1422 c 128,-1,8
 188 1442 188 1442 201.5 1457.5 c 128,-1,9
 215 1473 215 1473 236.5 1482 c 128,-1,10
 258 1491 258 1491 291 1491 c 0,11,12
 311 1491 311 1491 326.5 1489 c 128,-1,13
 342 1487 342 1487 356.5 1480 c 128,-1,14
 371 1473 371 1473 385 1460.5 c 128,-1,15
 399 1448 399 1448 416 1430 c 2,16,-1
 694 1120 l 1,17,-1
 555 1126 l 1,0,-1
EndSplineSet
Refer: 358 768 N 1 0 0 1 914 0 2
EndChar

StartChar: a
Encoding: 68 97 68
Width: 1163
Flags: W
LayerCount: 2
Fore
SplineSet
1157 61 m 0,0,1
 1122 47 1122 47 1083.5 32 c 0,2,3
 1045 17 1045 17 1005 4.5 c 0,4,5
 965 -8 965 -8 925 -16.5 c 0,6,7
 885 -25 885 -25 846 -25 c 0,8,9
 781 -25 781 -25 737.5 -1 c 0,10,11
 694 23 694 23 674 68 c 0,12,13
 647 50 647 50 616 33 c 0,14,15
 585 16 585 16 551 3.5 c 0,16,17
 517 -9 517 -9 481 -17 c 0,18,19
 445 -25 445 -25 408 -25 c 0,20,21
 345 -25 345 -25 295 -8 c 0,22,23
 245 9 245 9 207 38 c 0,24,25
 169 67 169 67 142.5 105 c 0,26,27
 116 143 116 143 99 184.5 c 0,28,29
 82 226 82 226 74 269 c 0,30,31
 66 312 66 312 66 350 c 0,32,33
 66 426 66 426 82.5 505.5 c 0,34,35
 99 585 99 585 133.5 660 c 0,36,37
 168 735 168 735 220 801.5 c 0,38,39
 272 868 272 868 343 917.5 c 0,40,41
 414 967 414 967 504.5 995.5 c 0,42,43
 595 1024 595 1024 705 1024 c 0,44,45
 750 1024 750 1024 794.5 1012 c 0,46,47
 839 1000 839 1000 874 981 c 0,48,-1
 889 999 l 0,49,-1
 1108 999 l 0,50,51
 1103 984 1103 984 1095 965 c 0,52,53
 1087 946 1087 946 1079 928 c 0,54,55
 1071 910 1071 910 1064.5 895.5 c 0,56,57
 1058 881 1058 881 1057 874 c 0,58,-1
 924 199 l 0,59,60
 924 176 924 176 925.5 160 c 0,61,62
 927 144 927 144 933 134.5 c 0,63,64
 939 125 939 125 950 121 c 0,65,66
 961 117 961 117 979 117 c 0,67,68
 983 117 983 117 1008.5 123 c 0,69,70
 1034 129 1034 129 1064.5 137 c 0,71,72
 1095 145 1095 145 1122 151.5 c 0,73,74
 1149 158 1149 158 1157 160 c 0,75,-1
 1157 61 l 0,0,1
768 807 m 0,76,77
 769 811 769 811 767.5 827 c 0,78,79
 766 843 766 843 761.5 860.5 c 0,80,81
 757 878 757 878 750.5 891.5 c 0,82,83
 744 905 744 905 735 905 c 0,84,85
 669 905 669 905 615.5 881 c 0,86,87
 562 857 562 857 519.5 816 c 0,88,89
 477 775 477 775 446 721 c 0,90,91
 415 667 415 667 394.5 606.5 c 0,92,93
 374 546 374 546 364 483 c 0,94,95
 354 420 354 420 354 362 c 0,96,97
 354 321 354 321 355.5 280 c 0,98,99
 357 239 357 239 367.5 205 c 0,100,101
 378 171 378 171 402.5 150 c 0,102,103
 427 129 427 129 473 129 c 0,104,105
 506 129 506 129 535.5 144 c 0,106,107
 565 159 565 159 589.5 178.5 c 0,108,109
 614 198 614 198 632.5 218 c 0,110,111
 651 238 651 238 662 248 c 0,112,113
 669 289 669 289 673.5 311.5 c 0,114,115
 678 334 678 334 681.5 354.5 c 0,116,117
 685 375 685 375 690 401 c 0,118,119
 695 427 695 427 704.5 475.5 c 0,120,121
 714 524 714 524 729 602.5 c 0,122,123
 744 681 744 681 768 807 c 0,76,77
EndSplineSet
EndChar

StartChar: b
Encoding: 69 98 69
Width: 1090
Flags: W
LayerCount: 2
Fore
SplineSet
1026 637 m 0,0,1
 1026 576 1026 576 1013 503 c 0,2,3
 1000 430 1000 430 970 356.5 c 0,4,5
 940 283 940 283 892.5 214.5 c 0,6,7
 845 146 845 146 776.5 92.5 c 0,8,9
 708 39 708 39 616.5 7 c 0,10,11
 525 -25 525 -25 408 -25 c 0,12,13
 296 -25 296 -25 203.5 2.5 c 0,14,15
 111 30 111 30 37 78 c 0,16,-1
 276 1354 l 0,17,-1
 96 1370 l 0,18,-1
 96 1444 l 0,19,-1
 442 1509 l 0,20,-1
 582 1509 l 0,21,-1
 475 958 l 0,22,23
 531 987 531 987 589.5 1005.5 c 0,24,25
 648 1024 648 1024 702 1024 c 0,26,27
 784 1024 784 1024 845 987.5 c 0,28,29
 906 951 906 951 946.5 895 c 0,30,31
 987 839 987 839 1006.5 770 c 0,32,33
 1026 701 1026 701 1026 637 c 0,0,1
741 629 m 0,34,35
 741 693 741 693 731 738.5 c 0,36,37
 721 784 721 784 705.5 813 c 0,38,39
 690 842 690 842 671.5 855 c 0,40,41
 653 868 653 868 635 868 c 0,42,43
 592 868 592 868 539.5 841 c 0,44,45
 487 814 487 814 440 774 c 0,46,-1
 326 162 l 0,47,48
 342 136 342 136 372.5 113 c 0,49,50
 403 90 403 90 451 90 c 0,51,52
 485 90 485 90 519.5 112.5 c 0,53,54
 554 135 554 135 586 173.5 c 0,55,56
 618 212 618 212 646.5 264 c 0,57,58
 675 316 675 316 696 376 c 0,59,60
 717 436 717 436 729 500.5 c 0,61,62
 741 565 741 565 741 629 c 0,34,35
EndSplineSet
EndChar

StartChar: c
Encoding: 70 99 70
Width: 985
Flags: W
LayerCount: 2
Fore
SplineSet
922 872 m 0,0,1
 922 854 922 854 913 827 c 0,2,3
 904 800 904 800 881.5 775 c 0,4,5
 859 750 859 750 821 732.5 c 0,6,7
 783 715 783 715 725 715 c 0,8,-1
 612 874 l 0,9,10
 554 861 554 861 512 826 c 0,11,12
 470 791 470 791 441 744 c 0,13,14
 412 697 412 697 393.5 643 c 0,15,16
 375 589 375 589 365 539 c 0,17,18
 355 489 355 489 351.5 448.5 c 0,19,20
 348 408 348 408 348 387 c 0,21,22
 348 340 348 340 352 293.5 c 0,23,24
 356 247 356 247 370.5 210 c 0,25,26
 385 173 385 173 413.5 150 c 0,27,28
 442 127 442 127 492 127 c 0,29,30
 530 127 530 127 569 138 c 0,31,32
 608 149 608 149 653.5 179 c 0,33,34
 699 209 699 209 753.5 261.5 c 0,35,36
 808 314 808 314 877 397 c 0,37,-1
 877 193 l 0,38,39
 835 143 835 143 787 103 c 0,40,41
 739 63 739 63 683.5 34.5 c 0,42,43
 628 6 628 6 564.5 -9.5 c 0,44,45
 501 -25 501 -25 428 -25 c 0,46,47
 334 -25 334 -25 266 3 c 0,48,49
 198 31 198 31 154 82 c 0,50,51
 110 133 110 133 89 205 c 0,52,53
 68 277 68 277 68 365 c 0,54,55
 68 498 68 498 109.5 617.5 c 0,56,57
 151 737 151 737 230.5 827.5 c 0,58,59
 310 918 310 918 424.5 971 c 0,60,61
 539 1024 539 1024 686 1024 c 0,62,63
 747 1024 747 1024 791.5 1009.5 c 0,64,65
 836 995 836 995 865 972.5 c 0,66,67
 894 950 894 950 908 923.5 c 0,68,69
 922 897 922 897 922 872 c 0,0,1
EndSplineSet
EndChar

StartChar: d
Encoding: 71 100 71
Width: 1159
Flags: W
LayerCount: 2
Fore
SplineSet
932 184 m 0,0,1
 927 159 927 159 929.5 142.5 c 0,2,3
 932 126 932 126 937.5 116.5 c 0,4,5
 943 107 943 107 951 103.5 c 0,6,7
 959 100 959 100 965 100 c 0,8,9
 986 100 986 100 1012 106.5 c 0,10,11
 1038 113 1038 113 1064.5 122.5 c 0,12,13
 1091 132 1091 132 1114.5 142.5 c 0,14,15
 1138 153 1138 153 1155 162 c 0,16,-1
 1155 61 l 0,17,18
 1129 46 1129 46 1092 30.5 c 0,19,20
 1055 15 1055 15 1013 2.5 c 0,21,22
 971 -10 971 -10 927.5 -17.5 c 0,23,24
 884 -25 884 -25 844 -25 c 0,25,26
 766 -25 766 -25 721 1 c 0,27,28
 676 27 676 27 659 74 c 0,29,30
 632 53 632 53 600.5 35 c 0,31,32
 569 17 569 17 535.5 3.5 c 0,33,34
 502 -10 502 -10 468 -17.5 c 0,35,36
 434 -25 434 -25 401 -25 c 0,37,38
 312 -25 312 -25 248.5 8 c 0,39,40
 185 41 185 41 144.5 94.5 c 0,41,42
 104 148 104 148 85 214 c 0,43,44
 66 280 66 280 66 346 c 0,45,46
 66 424 66 424 83 505 c 0,47,48
 100 586 100 586 134.5 661 c 0,49,50
 169 736 169 736 220.5 802.5 c 0,51,52
 272 869 272 869 341 918 c 0,53,54
 410 967 410 967 496.5 995.5 c 0,55,56
 583 1024 583 1024 686 1024 c 0,57,58
 724 1024 724 1024 754.5 1015 c 0,59,60
 785 1006 785 1006 805 999 c 0,61,-1
 866 1354 l 0,62,-1
 682 1370 l 0,63,-1
 682 1444 l 0,64,-1
 1028 1509 l 0,65,-1
 1167 1509 l 0,66,-1
 932 184 l 0,0,1
770 807 m 0,67,68
 771 811 771 811 764 827 c 0,69,70
 757 843 757 843 745 861 c 0,71,72
 733 879 733 879 716.5 893 c 0,73,74
 700 907 700 907 682 907 c 0,75,76
 628 907 628 907 569.5 867 c 0,77,78
 511 827 511 827 461.5 754.5 c 0,79,80
 412 682 412 682 380 581 c 0,81,82
 348 480 348 480 348 358 c 0,83,84
 348 234 348 234 378 177.5 c 0,85,86
 408 121 408 121 465 121 c 0,87,88
 491 121 491 121 517.5 134 c 0,89,90
 544 147 544 147 570.5 169 c 0,91,92
 597 191 597 191 623.5 218.5 c 0,93,94
 650 246 650 246 676 276 c 0,95,-1
 770 807 l 0,67,68
EndSplineSet
EndChar

StartChar: e
Encoding: 72 101 72
Width: 983
Flags: W
LayerCount: 2
Fore
SplineSet
948 809 m 0,0,1
 948 755 948 755 923.5 709 c 0,2,3
 899 663 899 663 856 625 c 0,4,5
 813 587 813 587 755.5 556.5 c 0,6,7
 698 526 698 526 632.5 504 c 0,8,9
 567 482 567 482 496.5 468 c 0,10,11
 426 454 426 454 358 449 c 0,12,13
 356 430 356 430 354 406 c 0,14,15
 352 382 352 382 352 365 c 0,16,17
 352 312 352 312 360 267 c 0,18,19
 368 222 368 222 386 189 c 0,20,21
 404 156 404 156 433.5 137.5 c 0,22,23
 463 119 463 119 506 119 c 0,24,25
 539 119 539 119 573 132 c 0,26,27
 607 145 607 145 652 175.5 c 0,28,29
 697 206 697 206 757 256 c 0,30,31
 817 306 817 306 901 379 c 0,32,-1
 901 184 l 0,33,34
 871 155 871 155 823 118.5 c 0,35,36
 775 82 775 82 714 50 c 0,37,38
 653 18 653 18 583 -3.5 c 0,39,40
 513 -25 513 -25 438 -25 c 0,41,42
 371 -25 371 -25 305 -8 c 0,43,44
 239 9 239 9 186.5 52 c 0,45,46
 134 95 134 95 101 168.5 c 0,47,48
 68 242 68 242 68 356 c 0,49,50
 68 434 68 434 87.5 514 c 0,51,52
 107 594 107 594 143 668 c 0,53,54
 179 742 179 742 231 807 c 0,55,56
 283 872 283 872 348.5 920 c 0,57,58
 414 968 414 968 492 996 c 0,59,60
 570 1024 570 1024 657 1024 c 0,61,62
 732 1024 732 1024 787 999 c 0,63,64
 842 974 842 974 878 939.5 c 0,65,66
 914 905 914 905 931 868.5 c 0,67,68
 948 832 948 832 948 809 c 0,0,1
682 811 m 0,69,70
 682 829 682 829 679.5 846.5 c 0,71,72
 677 864 677 864 669.5 878 c 0,73,74
 662 892 662 892 647.5 900.5 c 0,75,76
 633 909 633 909 610 909 c 0,77,78
 562 909 562 909 524.5 875 c 0,79,80
 487 841 487 841 458 788.5 c 0,81,82
 429 736 429 736 408 673.5 c 0,83,84
 387 611 387 611 373 555 c 0,85,86
 426 567 426 567 481 591 c 0,87,88
 536 615 536 615 580.5 648.5 c 0,89,90
 625 682 625 682 653.5 723 c 0,91,92
 682 764 682 764 682 811 c 0,69,70
EndSplineSet
EndChar

StartChar: f
Encoding: 73 102 73
Width: 741
Flags: W
LayerCount: 2
Fore
SplineSet
987 1372 m 0,0,1
 987 1349 987 1349 980 1326.5 c 0,2,3
 973 1304 973 1304 953.5 1285 c 0,4,5
 934 1266 934 1266 899.5 1251 c 0,6,7
 865 1236 865 1236 811 1229 c 0,8,-1
 684 1350 l 0,9,10
 642 1313 642 1313 616.5 1258 c 0,11,12
 591 1203 591 1203 576 1144.5 c 0,13,14
 561 1086 561 1086 554 1031.5 c 0,15,16
 547 977 547 977 541 940 c 0,17,-1
 791 940 l 0,18,-1
 791 819 l 0,19,-1
 520 819 l 0,20,21
 516 790 516 790 508 732.5 c 0,22,23
 500 675 500 675 489.5 601.5 c 0,24,25
 479 528 479 528 466.5 446 c 0,26,27
 454 364 454 364 442 288 c 0,28,29
 430 212 430 212 419 148.5 c 0,30,31
 408 85 408 85 399 49 c 0,32,33
 386 -5 386 -5 362 -64.5 c 0,34,35
 338 -124 338 -124 304 -181.5 c 0,36,37
 270 -239 270 -239 227.5 -291 c 0,38,39
 185 -343 185 -343 134.5 -382.5 c 0,40,41
 84 -422 84 -422 26 -445.5 c 0,42,43
 -32 -469 -32 -469 -96 -469 c 0,44,45
 -140 -469 -140 -469 -172 -453.5 c 0,46,47
 -204 -438 -204 -438 -225 -416 c 0,48,49
 -246 -394 -246 -394 -256 -369 c 0,50,51
 -266 -344 -266 -344 -266 -326 c 0,52,53
 -266 -285 -266 -285 -240 -244 c 0,54,55
 -214 -203 -214 -203 -172 -174 c 0,56,-1
 12 -291 l 0,57,58
 36 -257 36 -257 56 -211.5 c 0,59,60
 76 -166 76 -166 92.5 -111.5 c 0,61,62
 109 -57 109 -57 123.5 4.5 c 0,63,64
 138 66 138 66 150 131 c 0,65,66
 176 273 176 273 196.5 445 c 0,67,68
 217 617 217 617 246 813 c 0,69,-1
 90 797 l 0,70,-1
 94 893 l 0,71,-1
 270 954 l 0,72,73
 280 1005 280 1005 297 1065.5 c 0,74,75
 314 1126 314 1126 341 1188 c 0,76,77
 368 1250 368 1250 405 1307.5 c 0,78,79
 442 1365 442 1365 493 1410 c 0,80,81
 544 1455 544 1455 609.5 1482 c 0,82,83
 675 1509 675 1509 758 1509 c 0,84,85
 815 1509 815 1509 857.5 1495 c 0,86,87
 900 1481 900 1481 929 1460.5 c 0,88,89
 958 1440 958 1440 972.5 1416 c 0,90,91
 987 1392 987 1392 987 1372 c 0,0,1
EndSplineSet
EndChar

StartChar: g
Encoding: 74 103 74
Width: 995
Flags: W
LayerCount: 2
Fore
SplineSet
903 854 m 0,0,1
 912 831 912 831 919 797.5 c 0,2,3
 926 764 926 764 926 727 c 0,4,5
 926 651 926 651 896.5 579 c 0,6,7
 867 507 867 507 809.5 451 c 0,8,9
 752 395 752 395 667 361 c 0,10,11
 582 327 582 327 471 326 c 0,12,13
 460 297 460 297 455 267.5 c 0,14,15
 450 238 450 238 453 221 c 0,16,-1
 725 98 l 0,17,18
 774 77 774 77 814 55.5 c 0,19,20
 854 34 854 34 882.5 8 c 0,21,22
 911 -18 911 -18 926.5 -51 c 0,23,24
 942 -84 942 -84 942 -129 c 0,25,26
 942 -194 942 -194 897 -255 c 0,27,28
 852 -316 852 -316 775 -363.5 c 0,29,30
 698 -411 698 -411 595.5 -440 c 0,31,32
 493 -469 493 -469 377 -469 c 0,33,34
 255 -469 255 -469 171.5 -441.5 c 0,35,36
 88 -414 88 -414 35.5 -370.5 c 0,37,38
 -17 -327 -17 -327 -40 -272 c 0,39,40
 -63 -217 -63 -217 -63 -162 c 0,41,42
 -63 -110 -63 -110 -42 -66 c 0,43,44
 -21 -22 -21 -22 16 14 c 0,45,46
 53 50 53 50 103 77.5 c 0,47,48
 153 105 153 105 211 125 c 0,49,50
 207 149 207 149 211.5 179.5 c 0,51,52
 216 210 216 210 226.5 241.5 c 0,53,54
 237 273 237 273 253 302 c 0,55,56
 269 331 269 331 289 352 c 0,57,58
 248 371 248 371 213.5 395.5 c 0,59,60
 179 420 179 420 153.5 451 c 0,61,62
 128 482 128 482 114 521 c 0,63,64
 100 560 100 560 100 608 c 0,65,66
 100 656 100 656 112 705.5 c 0,67,68
 124 755 124 755 149 801 c 0,69,70
 174 847 174 847 211.5 887.5 c 0,71,72
 249 928 249 928 300.5 958.5 c 0,73,74
 352 989 352 989 417 1006.5 c 0,75,76
 482 1024 482 1024 561 1024 c 0,77,78
 600 1024 600 1024 635.5 1018.5 c 0,79,80
 671 1013 671 1013 701 1004.5 c 0,81,82
 731 996 731 996 754.5 987.5 c 0,83,84
 778 979 778 979 793 973 c 0,85,-1
 1092 973 l 0,86,-1
 1092 854 l 0,87,-1
 903 854 l 0,0,1
643 737 m 0,88,89
 643 773 643 773 642 806 c 0,90,91
 641 839 641 839 633.5 864 c 0,92,93
 626 889 626 889 610 903.5 c 0,94,95
 594 918 594 918 565 918 c 0,96,97
 548 918 548 918 517.5 894 c 0,98,99
 487 870 487 870 457 826 c 0,100,101
 427 782 427 782 405 720.5 c 0,102,103
 383 659 383 659 383 584 c 0,104,105
 383 548 383 548 385.5 518.5 c 0,106,107
 388 489 388 489 395.5 467.5 c 0,108,109
 403 446 403 446 418 434 c 0,110,111
 433 422 433 422 459 422 c 0,112,113
 510 422 510 422 545 453.5 c 0,114,115
 580 485 580 485 601.5 532.5 c 0,116,117
 623 580 623 580 633 635 c 0,118,119
 643 690 643 690 643 737 c 0,88,89
666 -170 m 0,120,121
 666 -135 666 -135 644 -104 c 0,122,123
 622 -73 622 -73 565 -47 c 0,124,-1
 336 53 l 0,125,126
 302 40 302 40 279 21 c 0,127,128
 256 2 256 2 241.5 -21.5 c 0,129,130
 227 -45 227 -45 221 -72 c 0,131,132
 215 -99 215 -99 215 -127 c 0,133,134
 215 -160 215 -160 225 -199.5 c 0,135,136
 235 -239 235 -239 259.5 -273.5 c 0,137,138
 284 -308 284 -308 325.5 -331 c 0,139,140
 367 -354 367 -354 430 -354 c 0,141,142
 500 -354 500 -354 545.5 -334 c 0,143,144
 591 -314 591 -314 618 -285.5 c 0,145,146
 645 -257 645 -257 655.5 -225.5 c 0,147,148
 666 -194 666 -194 666 -170 c 0,120,121
EndSplineSet
EndChar

StartChar: h
Encoding: 75 104 75
Width: 1157
Flags: W
LayerCount: 2
Fore
SplineSet
1153 57 m 0,0,1
 1076 20 1076 20 997.5 -2.5 c 0,2,3
 919 -25 919 -25 838 -25 c 0,4,5
 802 -25 802 -25 764.5 -17.5 c 0,6,7
 727 -10 727 -10 698 7 c 0,8,9
 669 24 669 24 654 51.5 c 0,10,11
 639 79 639 79 647 119 c 0,12,-1
 770 715 l 0,13,14
 778 752 778 752 773.5 780.5 c 0,15,16
 769 809 769 809 758 828.5 c 0,17,18
 747 848 747 848 731 858 c 0,19,20
 715 868 715 868 700 868 c 0,21,22
 677 868 677 868 648 856.5 c 0,23,24
 619 845 619 845 587 824.5 c 0,25,26
 555 804 555 804 521.5 776.5 c 0,27,28
 488 749 488 749 457 717 c 0,29,-1
 307 0 l 0,30,-1
 35 0 l 0,31,-1
 317 1354 l 0,32,-1
 137 1370 l 0,33,-1
 137 1444 l 0,34,-1
 483 1509 l 0,35,-1
 625 1509 l 0,36,-1
 502 930 l 0,37,38
 564 968 564 968 643 996 c 0,39,40
 722 1024 722 1024 813 1024 c 0,41,42
 890 1024 890 1024 941 1003 c 0,43,44
 992 982 992 982 1020.5 944 c 0,45,46
 1049 906 1049 906 1055.5 852.5 c 0,47,48
 1062 799 1062 799 1049 735 c 0,49,-1
 934 193 l 0,50,51
 929 167 929 167 932.5 150 c 0,52,53
 936 133 936 133 944 122 c 0,54,55
 952 111 952 111 962 106.5 c 0,56,57
 972 102 972 102 981 102 c 0,58,59
 1026 102 1026 102 1065.5 118 c 0,60,61
 1105 134 1105 134 1151 160 c 0,62,-1
 1153 57 l 0,0,1
EndSplineSet
EndChar

StartChar: i
Encoding: 76 105 76
Width: 635
Flags: W
LayerCount: 2
Fore
SplineSet
604 1358 m 0,0,1
 604 1325 604 1325 591.5 1296 c 0,2,3
 579 1267 579 1267 557 1245 c 0,4,5
 535 1223 535 1223 506 1210.5 c 0,6,7
 477 1198 477 1198 444 1198 c 0,8,9
 411 1198 411 1198 382.5 1210.5 c 0,10,11
 354 1223 354 1223 332.5 1245 c 0,12,13
 311 1267 311 1267 299 1296 c 0,14,15
 287 1325 287 1325 287 1358 c 0,16,17
 287 1391 287 1391 299 1420 c 0,18,19
 311 1449 311 1449 332.5 1470 c 0,20,21
 354 1491 354 1491 382.5 1503.5 c 0,22,23
 411 1516 411 1516 444 1516 c 0,24,25
 477 1516 477 1516 506 1503.5 c 0,26,27
 535 1491 535 1491 557 1470 c 0,28,29
 579 1449 579 1449 591.5 1420 c 0,30,31
 604 1391 604 1391 604 1358 c 0,0,1
631 66 m 0,32,33
 539 16 539 16 456 -4.5 c 0,34,35
 373 -25 373 -25 285 -25 c 0,36,37
 229 -25 229 -25 190.5 -6 c 0,38,39
 152 13 152 13 130 43 c 0,40,41
 108 73 108 73 101 110.5 c 0,42,43
 94 148 94 148 102 186 c 0,44,-1
 231 866 l 0,45,-1
 55 885 l 0,46,-1
 55 956 l 0,47,-1
 393 1024 l 0,48,-1
 537 1024 l 0,49,-1
 379 203 l 0,50,51
 375 185 375 185 374 168 c 0,52,53
 373 151 373 151 376.5 138 c 0,54,55
 380 125 380 125 390 117 c 0,56,57
 400 109 400 109 418 109 c 0,58,59
 426 109 426 109 449.5 114 c 0,60,61
 473 119 473 119 504 128 c 0,62,63
 535 137 535 137 568.5 150 c 0,64,65
 602 163 602 163 631 178 c 0,66,-1
 631 66 l 0,32,33
EndSplineSet
EndChar

StartChar: j
Encoding: 77 106 77
Width: 651
Flags: W
LayerCount: 2
Fore
SplineSet
637 1358 m 0,0,1
 637 1325 637 1325 624 1296 c 0,2,3
 611 1267 611 1267 589 1245 c 0,4,5
 567 1223 567 1223 537.5 1210.5 c 0,6,7
 508 1198 508 1198 475 1198 c 0,8,9
 442 1198 442 1198 413 1210.5 c 0,10,11
 384 1223 384 1223 363 1245 c 0,12,13
 342 1267 342 1267 329.5 1296 c 0,14,15
 317 1325 317 1325 317 1358 c 0,16,17
 317 1391 317 1391 329.5 1420 c 0,18,19
 342 1449 342 1449 363 1470 c 0,20,21
 384 1491 384 1491 413 1503.5 c 0,22,23
 442 1516 442 1516 475 1516 c 0,24,25
 508 1516 508 1516 537.5 1503.5 c 0,26,27
 567 1491 567 1491 589 1470 c 0,28,29
 611 1449 611 1449 624 1420 c 0,30,31
 637 1391 637 1391 637 1358 c 0,0,1
418 172 m 0,32,33
 409 120 409 120 387.5 52.5 c 0,34,35
 366 -15 366 -15 333.5 -86 c 0,36,37
 301 -157 301 -157 258 -226 c 0,38,39
 215 -295 215 -295 162 -349 c 0,40,41
 109 -403 109 -403 47 -436 c 0,42,43
 -15 -469 -15 -469 -86 -469 c 0,44,45
 -122 -469 -122 -469 -154.5 -460 c 0,46,47
 -187 -451 -187 -451 -211 -435 c 0,48,49
 -235 -419 -235 -419 -249.5 -397.5 c 0,50,51
 -264 -376 -264 -376 -264 -350 c 0,52,53
 -264 -331 -264 -331 -257.5 -315.5 c 0,54,55
 -251 -300 -251 -300 -239.5 -287 c 0,56,57
 -228 -274 -228 -274 -213 -262.5 c 0,58,59
 -198 -251 -198 -251 -180 -240 c 0,60,-1
 14 -291 l 0,61,62
 28 -269 28 -269 42.5 -237 c 0,63,64
 57 -205 57 -205 70.5 -167.5 c 0,65,66
 84 -130 84 -130 95 -90 c 0,67,68
 106 -50 106 -50 113 -12 c 0,69,-1
 264 864 l 0,70,-1
 88 883 l 0,71,-1
 88 956 l 0,72,-1
 428 1024 l 0,73,-1
 563 1024 l 0,74,-1
 418 172 l 0,32,33
EndSplineSet
EndChar

StartChar: k
Encoding: 78 107 78
Width: 1126
Flags: W
LayerCount: 2
Fore
SplineSet
1102 53 m 0,0,1
 1076 40 1076 40 1040 26 c 0,2,3
 1004 12 1004 12 964 1 c 0,4,5
 924 -10 924 -10 883 -17.5 c 0,6,7
 842 -25 842 -25 807 -25 c 0,8,9
 779 -25 779 -25 750 -15 c 0,10,11
 721 -5 721 -5 694 11 c 0,12,13
 667 27 667 27 644.5 47 c 0,14,15
 622 67 622 67 608 88 c 0,16,17
 591 114 591 114 567.5 160 c 0,18,19
 544 206 544 206 519 258.5 c 0,20,21
 494 311 494 311 469.5 364 c 0,22,23
 445 417 445 417 426 459 c 0,24,-1
 383 420 l 0,25,-1
 297 0 l 0,26,-1
 25 0 l 0,27,-1
 299 1354 l 0,28,-1
 119 1370 l 0,29,-1
 119 1444 l 0,30,-1
 465 1509 l 0,31,-1
 604 1509 l 0,32,-1
 432 668 l 0,33,-1
 662 903 l 0,34,35
 725 969 725 969 781 996.5 c 0,36,37
 837 1024 837 1024 897 1024 c 0,38,39
 934 1024 934 1024 966 1013.5 c 0,40,41
 998 1003 998 1003 1021.5 985.5 c 0,42,43
 1045 968 1045 968 1058 947 c 0,44,45
 1071 926 1071 926 1071 905 c 0,46,47
 1071 887 1071 887 1066.5 861 c 0,48,49
 1062 835 1062 835 1045 807.5 c 0,50,51
 1028 780 1028 780 994 753.5 c 0,52,53
 960 727 960 727 901 707 c 0,54,-1
 819 840 l 0,55,56
 795 819 795 819 767 792.5 c 0,57,58
 739 766 739 766 711.5 739.5 c 0,59,60
 684 713 684 713 658.5 688.5 c 0,61,62
 633 664 633 664 614 647 c 0,63,64
 628 621 628 621 644.5 581 c 0,65,66
 661 541 661 541 679.5 495 c 0,67,68
 698 449 698 449 718.5 401 c 0,69,70
 739 353 739 353 762 311 c 0,71,72
 784 271 784 271 804 234 c 0,73,74
 824 197 824 197 844 168 c 0,75,76
 864 139 864 139 886 121.5 c 0,77,78
 908 104 908 104 934 104 c 0,79,80
 936 104 936 104 975.5 115.5 c 0,81,82
 1015 127 1015 127 1102 162 c 0,83,-1
 1102 53 l 0,0,1
EndSplineSet
EndChar

StartChar: l
Encoding: 79 108 79
Width: 627
Flags: W
LayerCount: 2
Fore
SplineSet
623 59 m 0,0,1
 548 21 548 21 461.5 -2 c 0,2,3
 375 -25 375 -25 295 -25 c 0,4,5
 193 -25 193 -25 136.5 17.5 c 0,6,7
 80 60 80 60 80 131 c 0,8,9
 80 148 80 148 81.5 166.5 c 0,10,11
 83 185 83 185 88 205 c 0,12,-1
 311 1354 l 0,13,-1
 131 1370 l 0,14,-1
 131 1444 l 0,15,-1
 477 1509 l 0,16,-1
 612 1509 l 0,17,-1
 360 209 l 0,18,19
 357 191 357 191 357.5 173.5 c 0,20,21
 358 156 358 156 364 141.5 c 0,22,23
 370 127 370 127 382 118 c 0,24,25
 394 109 394 109 414 109 c 0,26,27
 438 109 438 109 494 123.5 c 0,28,29
 550 138 550 138 623 170 c 0,30,-1
 623 59 l 0,0,1
EndSplineSet
EndChar

StartChar: m
Encoding: 80 109 80
Width: 1692
Flags: W
LayerCount: 2
Fore
SplineSet
1686 59 m 0,0,1
 1608 19 1608 19 1535.5 -3 c 0,2,3
 1463 -25 1463 -25 1384 -25 c 0,4,5
 1337 -25 1337 -25 1296.5 -15.5 c 0,6,7
 1256 -6 1256 -6 1227 13.5 c 0,8,9
 1198 33 1198 33 1184 61 c 0,10,11
 1170 89 1170 89 1178 127 c 0,12,-1
 1290 672 l 0,13,14
 1331 864 1331 864 1251 864 c 0,15,16
 1206 864 1206 864 1166.5 844.5 c 0,17,18
 1127 825 1127 825 1096.5 798 c 0,19,20
 1066 771 1066 771 1044 743 c 0,21,22
 1022 715 1022 715 1012 698 c 0,23,-1
 864 0 l 0,24,-1
 594 0 l 0,25,-1
 735 674 l 0,26,27
 741 704 741 704 746.5 737.5 c 0,28,29
 752 771 752 771 749.5 799 c 0,30,31
 747 827 747 827 733 845.5 c 0,32,33
 719 864 719 864 686 864 c 0,34,35
 654 864 654 864 621 846.5 c 0,36,37
 588 829 588 829 558 803 c 0,38,39
 528 777 528 777 501.5 747.5 c 0,40,41
 475 718 475 718 455 694 c 0,42,-1
 309 0 l 0,43,-1
 37 0 l 0,44,-1
 217 870 l 0,45,-1
 45 887 l 0,46,-1
 45 956 l 0,47,-1
 383 1024 l 0,48,-1
 524 1024 l 0,49,-1
 500 907 l 0,50,51
 574 958 574 958 652 991 c 0,52,53
 730 1024 730 1024 801 1024 c 0,54,55
 843 1024 843 1024 876.5 1012 c 0,56,57
 910 1000 910 1000 936 980.5 c 0,58,59
 962 961 962 961 980 936 c 0,60,61
 998 911 998 911 1010 885 c 0,62,63
 1050 915 1050 915 1095 940.5 c 0,64,65
 1140 966 1140 966 1186 984.5 c 0,66,67
 1232 1003 1232 1003 1277 1013.5 c 0,68,69
 1322 1024 1322 1024 1362 1024 c 0,70,71
 1416 1024 1416 1024 1462 1005 c 0,72,73
 1508 986 1508 986 1539 951 c 0,74,75
 1570 916 1570 916 1582 866.5 c 0,76,77
 1594 817 1594 817 1581 756 c 0,78,-1
 1464 205 l 0,79,80
 1455 161 1455 161 1466 131.5 c 0,81,82
 1477 102 1477 102 1516 102 c 0,83,84
 1526 102 1526 102 1546 106 c 0,85,86
 1566 110 1566 110 1590 117 c 0,87,88
 1614 124 1614 124 1639 133.5 c 0,89,90
 1664 143 1664 143 1686 154 c 0,91,-1
 1686 59 l 0,0,1
EndSplineSet
EndChar

StartChar: n
Encoding: 81 110 81
Width: 1184
Flags: W
LayerCount: 2
Fore
SplineSet
1176 47 m 0,0,1
 1149 34 1149 34 1109 21 c 0,2,3
 1069 8 1069 8 1024.5 -2 c 0,4,5
 980 -12 980 -12 935.5 -18.5 c 0,6,7
 891 -25 891 -25 856 -25 c 0,8,9
 822 -25 822 -25 782.5 -20 c 0,10,11
 743 -15 743 -15 710.5 -1 c 0,12,13
 678 13 678 13 659.5 38 c 0,14,15
 641 63 641 63 649 104 c 0,16,-1
 774 729 l 0,17,18
 782 766 782 766 781.5 791.5 c 0,19,20
 781 817 781 817 773.5 833 c 0,21,22
 766 849 766 849 753.5 855.5 c 0,23,24
 741 862 741 862 725 862 c 0,25,26
 701 862 701 862 670 848 c 0,27,28
 639 834 639 834 604.5 811 c 0,29,30
 570 788 570 788 534.5 757.5 c 0,31,32
 499 727 499 727 467 694 c 0,33,-1
 322 0 l 0,34,-1
 49 0 l 0,35,-1
 229 870 l 0,36,-1
 57 887 l 0,37,-1
 57 956 l 0,38,-1
 393 1024 l 0,39,-1
 535 1024 l 0,40,-1
 510 905 l 0,41,42
 547 930 547 930 588.5 952 c 0,43,44
 630 974 630 974 672.5 990 c 0,45,46
 715 1006 715 1006 757.5 1015 c 0,47,48
 800 1024 800 1024 840 1024 c 0,49,50
 916 1024 916 1024 965.5 1006.5 c 0,51,52
 1015 989 1015 989 1040.5 955 c 0,53,54
 1066 921 1066 921 1070.5 871 c 0,55,56
 1075 821 1075 821 1063 756 c 0,57,-1
 952 180 l 0,58,59
 947 155 947 155 951.5 139.5 c 0,60,61
 956 124 956 124 964.5 115 c 0,62,63
 973 106 973 106 983 103 c 0,64,65
 993 100 993 100 1001 100 c 0,66,67
 1033 100 1033 100 1079 112.5 c 0,68,69
 1125 125 1125 125 1171 145 c 0,70,-1
 1176 47 l 0,0,1
EndSplineSet
EndChar

StartChar: o
Encoding: 82 111 82
Width: 1133
Flags: W
LayerCount: 2
Fore
SplineSet
1069 621 m 0,0,1
 1069 540 1069 540 1051 461 c 0,2,3
 1033 382 1033 382 998 310.5 c 0,4,5
 963 239 963 239 912 177.5 c 0,6,7
 861 116 861 116 795 71 c 0,8,9
 729 26 729 26 648.5 0.5 c 0,10,11
 568 -25 568 -25 475 -25 c 0,12,13
 370 -25 370 -25 293 5 c 0,14,15
 216 35 216 35 165.5 87.5 c 0,16,17
 115 140 115 140 90.5 212.5 c 0,18,19
 66 285 66 285 66 371 c 0,20,21
 66 451 66 451 83.5 530.5 c 0,22,23
 101 610 101 610 134.5 683 c 0,24,25
 168 756 168 756 218 818 c 0,26,27
 268 880 268 880 333.5 926 c 0,28,29
 399 972 399 972 479.5 998 c 0,30,31
 560 1024 560 1024 655 1024 c 0,32,33
 749 1024 749 1024 825.5 998.5 c 0,34,35
 902 973 902 973 956 922.5 c 0,36,37
 1010 872 1010 872 1039.5 796.5 c 0,38,39
 1069 721 1069 721 1069 621 c 0,0,1
774 629 m 0,40,41
 774 704 774 704 759 758 c 0,42,43
 744 812 744 812 722.5 847 c 0,44,45
 701 882 701 882 676.5 898.5 c 0,46,47
 652 915 652 915 633 915 c 0,48,49
 602 915 602 915 569.5 894.5 c 0,50,51
 537 874 537 874 506.5 837.5 c 0,52,53
 476 801 476 801 449 750.5 c 0,54,55
 422 700 422 700 401.5 640.5 c 0,56,57
 381 581 381 581 369.5 514.5 c 0,58,59
 358 448 358 448 358 379 c 0,60,61
 358 300 358 300 373.5 244.5 c 0,62,63
 389 189 389 189 411.5 154.5 c 0,64,65
 434 120 434 120 458 104 c 0,66,67
 482 88 482 88 500 88 c 0,68,69
 554 88 554 88 603.5 137 c 0,70,71
 653 186 653 186 691 264 c 0,72,73
 729 342 729 342 751.5 438 c 0,74,75
 774 534 774 534 774 629 c 0,40,41
EndSplineSet
EndChar

StartChar: p
Encoding: 83 112 83
Width: 1108
Flags: W
LayerCount: 2
Fore
SplineSet
1042 637 m 0,0,1
 1042 555 1042 555 1022 474 c 0,2,3
 1002 393 1002 393 964.5 319.5 c 0,4,5
 927 246 927 246 872 183 c 0,6,7
 817 120 817 120 747 74 c 0,8,9
 677 28 677 28 592 1.5 c 0,10,11
 507 -25 507 -25 410 -25 c 0,12,13
 372 -25 372 -25 343.5 -19.5 c 0,14,15
 315 -14 315 -14 295 -8 c 0,16,-1
 233 -311 l 0,17,18
 230 -325 230 -325 238.5 -334.5 c 0,19,20
 247 -344 247 -344 264 -344 c 0,21,22
 278 -345 278 -345 299 -347 c 0,23,24
 317 -349 317 -349 343.5 -351 c 0,25,26
 370 -353 370 -353 406 -356 c 0,27,-1
 406 -449 l 0,28,-1
 -197 -449 l 0,29,-1
 -197 -356 l 0,30,31
 -181 -354 -181 -354 -159.5 -353 c 0,32,33
 -138 -352 -138 -352 -119 -350 c 0,34,35
 -97 -348 -97 -348 -74 -346 c 0,36,37
 -58 -344 -58 -344 -50 -334.5 c 0,38,39
 -42 -325 -42 -325 -39 -311 c 0,40,-1
 193 868 l 0,41,-1
 23 887 l 0,42,-1
 23 956 l 0,43,-1
 360 1024 l 0,44,-1
 498 1024 l 0,45,-1
 483 948 l 0,46,47
 499 957 499 957 524.5 970 c 0,48,49
 550 983 550 983 582 995 c 0,50,51
 614 1007 614 1007 651 1015.5 c 0,52,53
 688 1024 688 1024 729 1024 c 0,54,55
 810 1024 810 1024 869 989.5 c 0,56,57
 928 955 928 955 966.5 900 c 0,58,59
 1005 845 1005 845 1023.5 776 c 0,60,61
 1042 707 1042 707 1042 637 c 0,0,1
756 629 m 0,62,63
 756 672 756 672 752 716.5 c 0,64,65
 748 761 748 761 735 797.5 c 0,66,67
 722 834 722 834 697.5 857.5 c 0,68,69
 673 881 673 881 633 881 c 0,70,71
 611 881 611 881 585.5 869 c 0,72,73
 560 857 560 857 534.5 839.5 c 0,74,75
 509 822 509 822 486.5 803 c 0,76,77
 464 784 464 784 449 770 c 0,78,-1
 324 139 l 0,79,80
 336 131 336 131 352 121.5 c 0,81,82
 368 112 368 112 385 104 c 0,83,84
 402 96 402 96 418.5 90 c 0,85,86
 435 84 435 84 449 84 c 0,87,88
 492 84 492 84 531.5 107.5 c 0,89,90
 571 131 571 131 605 172 c 0,91,92
 639 213 639 213 667 266.5 c 0,93,94
 695 320 695 320 714.5 381 c 0,95,96
 734 442 734 442 745 505.5 c 0,97,98
 756 569 756 569 756 629 c 0,62,63
EndSplineSet
EndChar

StartChar: q
Encoding: 84 113 84
Width: 1167
Flags: W
LayerCount: 2
Fore
SplineSet
836 -311 m 0,0,1
 832 -325 832 -325 836.5 -334.5 c 0,2,3
 841 -344 841 -344 858 -344 c 0,4,5
 875 -345 875 -345 897 -347 c 0,6,7
 916 -349 916 -349 943.5 -351 c 0,8,9
 971 -353 971 -353 1006 -356 c 0,10,-1
 1006 -449 l 0,11,-1
 403 -449 l 0,12,-1
 403 -356 l 0,13,14
 417 -355 417 -355 438 -353 c 0,15,16
 459 -351 459 -351 479 -349 c 0,17,18
 503 -346 503 -346 528 -344 c 0,19,20
 557 -341 557 -341 563 -311 c 0,21,-1
 635 45 l 0,22,23
 573 10 573 10 512 -9.5 c 0,24,25
 451 -29 451 -29 395 -29 c 0,26,27
 313 -29 313 -29 252 -3 c 0,28,29
 191 23 191 23 150.5 72 c 0,30,31
 110 121 110 121 90 191.5 c 0,32,33
 70 262 70 262 70 350 c 0,34,35
 70 427 70 427 88 506.5 c 0,36,37
 106 586 106 586 142 661 c 0,38,39
 178 736 178 736 230.5 802 c 0,40,41
 283 868 283 868 352.5 917.5 c 0,42,43
 422 967 422 967 507 995.5 c 0,44,45
 592 1024 592 1024 692 1024 c 0,46,47
 743 1024 743 1024 789 1013.5 c 0,48,49
 835 1003 835 1003 870 987 c 0,50,-1
 903 1024 l 0,51,-1
 1102 1024 l 0,52,-1
 836 -311 l 0,0,1
784 799 m 0,53,54
 787 809 787 809 781 828 c 0,55,56
 775 847 775 847 765 865.5 c 0,57,58
 755 884 755 884 742.5 897.5 c 0,59,60
 730 911 730 911 719 911 c 0,61,62
 654 911 654 911 588 870.5 c 0,63,64
 522 830 522 830 469 757.5 c 0,65,66
 416 685 416 685 383 583 c 0,67,68
 350 481 350 481 350 358 c 0,69,70
 350 303 350 303 356 258 c 0,71,72
 362 213 362 213 376 181.5 c 0,73,74
 390 150 390 150 414.5 132.5 c 0,75,76
 439 115 439 115 477 115 c 0,77,78
 508 115 508 115 534.5 127 c 0,79,80
 561 139 561 139 584.5 157 c 0,81,82
 608 175 608 175 629.5 196 c 0,83,84
 651 217 651 217 672 236 c 0,85,-1
 784 799 l 0,53,54
EndSplineSet
EndChar

StartChar: r
Encoding: 85 114 85
Width: 858
Flags: W
LayerCount: 2
Fore
SplineSet
934 879 m 0,0,1
 934 808 934 808 889 772.5 c 0,2,3
 844 737 844 737 739 737 c 0,4,-1
 684 848 l 0,5,6
 636 824 636 824 592.5 790.5 c 0,7,8
 549 757 549 757 515 717 c 0,9,10
 481 677 481 677 457 632 c 0,11,12
 433 587 433 587 424 541 c 0,13,-1
 309 0 l 0,14,-1
 37 0 l 0,15,-1
 217 866 l 0,16,-1
 45 885 l 0,17,-1
 45 956 l 0,18,-1
 385 1024 l 0,19,-1
 526 1024 l 0,20,-1
 500 887 l 0,21,22
 527 915 527 915 559.5 940 c 0,23,24
 592 965 592 965 628 984 c 0,25,26
 664 1003 664 1003 702 1013.5 c 0,27,28
 740 1024 740 1024 778 1024 c 0,29,30
 818 1024 818 1024 847.5 1009.5 c 0,31,32
 877 995 877 995 896 973.5 c 0,33,34
 915 952 915 952 924.5 926.5 c 0,35,36
 934 901 934 901 934 879 c 0,0,1
EndSplineSet
EndChar

StartChar: s
Encoding: 86 115 86
Width: 850
Flags: W
LayerCount: 2
Fore
SplineSet
807 866 m 0,0,1
 807 797 807 797 768 764 c 0,2,3
 729 731 729 731 635 725 c 0,4,-1
 530 903 l 0,5,6
 523 905 523 905 515 907 c 0,7,8
 508 909 508 909 498 910 c 0,9,10
 488 911 488 911 477 911 c 0,11,12
 446 911 446 911 429 898.5 c 0,13,14
 412 886 412 886 403.5 867 c 0,15,16
 395 848 395 848 393 825.5 c 0,17,18
 391 803 391 803 391 784 c 0,19,20
 391 752 391 752 407 722 c 0,21,22
 423 692 423 692 449 663.5 c 0,23,24
 475 635 475 635 507.5 607.5 c 0,25,26
 540 580 540 580 573 555 c 0,27,28
 608 528 608 528 640.5 499.5 c 0,29,30
 673 471 673 471 698.5 439.5 c 0,31,32
 724 408 724 408 739 374 c 0,33,34
 754 340 754 340 754 303 c 0,35,36
 754 244 754 244 726 185 c 0,37,38
 698 126 698 126 641 79.5 c 0,39,40
 584 33 584 33 498 4 c 0,41,42
 412 -25 412 -25 297 -25 c 0,43,44
 216 -25 216 -25 157.5 -8.5 c 0,45,46
 99 8 99 8 61 35.5 c 0,47,48
 23 63 23 63 4.5 98 c 0,49,50
 -14 133 -14 133 -14 170 c 0,51,52
 -14 197 -14 197 -4 222 c 0,53,54
 6 247 6 247 22.5 266.5 c 0,55,56
 39 286 39 286 59 297.5 c 0,57,58
 79 309 79 309 100 309 c 0,59,60
 145 309 145 309 176 295.5 c 0,61,62
 207 282 207 282 227 260 c 0,63,-1
 190 139 l 0,64,65
 201 124 201 124 221 112 c 0,66,67
 241 100 241 100 264.5 92 c 0,68,69
 288 84 288 84 312.5 80 c 0,70,71
 337 76 337 76 358 76 c 0,72,73
 420 76 420 76 450.5 118.5 c 0,74,75
 481 161 481 161 481 233 c 0,76,77
 481 264 481 264 469 291.5 c 0,78,79
 457 319 457 319 435 345 c 0,80,81
 413 371 413 371 382 396.5 c 0,82,83
 351 422 351 422 313 451 c 0,84,85
 281 475 281 475 250.5 504 c 0,86,87
 220 533 220 533 196 565.5 c 0,88,89
 172 598 172 598 157.5 634 c 0,90,91
 143 670 143 670 143 709 c 0,92,93
 143 781 143 781 177 839 c 0,94,95
 211 897 211 897 268 938.5 c 0,96,97
 325 980 325 980 400 1002 c 0,98,99
 475 1024 475 1024 557 1024 c 0,100,101
 621 1024 621 1024 668 1006.5 c 0,102,103
 715 989 715 989 746 964.5 c 0,104,105
 777 940 777 940 792 912.5 c 0,106,107
 807 885 807 885 807 866 c 0,0,1
EndSplineSet
EndChar

StartChar: t
Encoding: 87 116 87
Width: 705
Flags: W
LayerCount: 2
Fore
SplineSet
500 856 m 0,0,-1
 371 223 l 0,1,2
 360 175 360 175 381.5 146 c 0,3,4
 403 117 403 117 451 117 c 0,5,6
 475 117 475 117 508.5 125 c 0,7,8
 542 133 542 133 578 144 c 0,9,10
 614 155 614 155 648 167.5 c 0,11,12
 682 180 682 180 707 188 c 0,13,-1
 707 76 l 0,14,15
 690 68 690 68 647 51.5 c 0,16,17
 604 35 604 35 549 18 c 0,18,19
 494 1 494 1 435 -12 c 0,20,21
 376 -25 376 -25 328 -25 c 0,22,23
 269 -25 269 -25 225 -11 c 0,24,25
 181 3 181 3 152 27.5 c 0,26,27
 123 52 123 52 108.5 86 c 0,28,29
 94 120 94 120 94 160 c 0,30,31
 94 180 94 180 95.5 200 c 0,32,33
 97 220 97 220 102 242 c 0,34,-1
 227 852 l 0,35,-1
 80 836 l 0,36,-1
 80 920 l 0,37,-1
 254 989 l 0,38,-1
 358 1200 l 0,39,-1
 563 1200 l 0,40,-1
 520 969 l 0,41,-1
 805 969 l 0,42,-1
 805 856 l 0,43,-1
 500 856 l 0,0,-1
EndSplineSet
EndChar

StartChar: u
Encoding: 88 117 88
Width: 1176
Flags: W
LayerCount: 2
Fore
SplineSet
1171 57 m 0,0,1
 1150 46 1150 46 1113.5 31.5 c 0,2,3
 1077 17 1077 17 1032.5 4.5 c 0,4,5
 988 -8 988 -8 940 -16.5 c 0,6,7
 892 -25 892 -25 848 -25 c 0,8,9
 795 -25 795 -25 762 -14 c 0,10,11
 729 -3 729 -3 710.5 12.5 c 0,12,13
 692 28 692 28 684 44.5 c 0,14,15
 676 61 676 61 674 72 c 0,16,17
 606 25 606 25 527 0 c 0,18,19
 448 -25 448 -25 348 -25 c 0,20,21
 272 -25 272 -25 219.5 1 c 0,22,23
 167 27 167 27 136.5 66 c 0,24,25
 106 105 106 105 96.5 151.5 c 0,26,27
 87 198 87 198 96 240 c 0,28,-1
 229 868 l 0,29,-1
 57 887 l 0,30,-1
 57 956 l 0,31,-1
 395 1024 l 0,32,-1
 537 1024 l 0,33,-1
 369 240 l 0,34,35
 364 216 364 216 366.5 194 c 0,36,37
 369 172 369 172 378 155.5 c 0,38,39
 387 139 387 139 402 129 c 0,40,41
 417 119 417 119 436 119 c 0,42,43
 470 119 470 119 502.5 128.5 c 0,44,45
 535 138 535 138 565.5 155 c 0,46,47
 596 172 596 172 625 194 c 0,48,49
 654 216 654 216 682 242 c 0,50,-1
 842 999 l 0,51,-1
 1114 999 l 0,52,-1
 946 205 l 0,53,54
 934 148 934 148 950.5 123 c 0,55,56
 967 98 967 98 999 98 c 0,57,58
 1007 98 1007 98 1017.5 100.5 c 0,59,60
 1028 103 1028 103 1046.5 110.5 c 0,61,62
 1065 118 1065 118 1094.5 132.5 c 0,63,64
 1124 147 1124 147 1171 172 c 0,65,-1
 1171 57 l 0,0,1
EndSplineSet
EndChar

StartChar: v
Encoding: 89 118 89
Width: 1042
Flags: W
LayerCount: 2
Fore
SplineSet
1053 893 m 0,0,1
 1053 867 1053 867 1048 843 c 0,2,3
 1043 819 1043 819 1036 799 c 0,4,5
 1029 779 1029 779 1021 763.5 c 0,6,7
 1013 748 1013 748 1008 739 c 0,8,9
 939 613 939 613 860 498.5 c 0,10,11
 781 384 781 384 703.5 286 c 0,12,13
 626 188 626 188 557 109 c 0,14,15
 488 30 488 30 438 -25 c 0,16,-1
 238 -25 l 0,17,18
 264 28 264 28 275.5 67.5 c 0,19,20
 287 107 287 107 285 141 c 0,21,22
 285 144 285 144 283 171.5 c 0,23,24
 281 199 281 199 277.5 242 c 0,25,26
 274 285 274 285 269 340.5 c 0,27,28
 264 396 264 396 258 455 c 0,29,30
 252 514 252 514 245 574 c 0,31,32
 238 634 238 634 230.5 685.5 c 0,33,34
 223 737 223 737 215 777.5 c 0,35,36
 207 818 207 818 199 838 c 0,37,38
 194 849 194 849 190.5 856 c 0,39,40
 187 863 187 863 182 866.5 c 0,41,42
 177 870 177 870 169 871 c 0,43,44
 161 872 161 872 147 872 c 0,45,46
 126 873 126 873 103 875 c 0,47,48
 83 876 83 876 57.5 877 c 0,49,50
 32 878 32 878 6 879 c 0,51,-1
 6 952 l 0,52,-1
 250 1024 l 0,53,54
 356 1022 356 1022 413.5 985 c 0,55,56
 471 948 471 948 479 870 c 0,57,-1
 535 342 l 0,58,59
 572 393 572 393 607.5 438.5 c 0,60,61
 643 484 643 484 674 528.5 c 0,62,63
 705 573 705 573 731.5 618 c 0,64,65
 758 663 758 663 778 711 c 0,66,-1
 721 971 l 0,67,68
 747 996 747 996 791 1010 c 0,69,70
 835 1024 835 1024 883 1024 c 0,71,72
 919 1024 919 1024 950 1015 c 0,73,74
 981 1006 981 1006 1004 988.5 c 0,75,76
 1027 971 1027 971 1040 947 c 0,77,78
 1053 923 1053 923 1053 893 c 0,0,1
EndSplineSet
EndChar

StartChar: w
Encoding: 90 119 90
Width: 1538
Flags: W
LayerCount: 2
Fore
SplineSet
1546 895 m 0,0,1
 1546 852 1546 852 1524 792.5 c 0,2,3
 1502 733 1502 733 1465.5 664 c 0,4,5
 1429 595 1429 595 1382 520.5 c 0,6,7
 1335 446 1335 446 1284.5 373 c 0,8,9
 1234 300 1234 300 1184.5 233.5 c 0,10,11
 1135 167 1135 167 1094 113 c 0,12,13
 1053 59 1053 59 1024 23 c 0,14,15
 995 -13 995 -13 985 -25 c 0,16,-1
 782 -25 l 0,17,-1
 741 561 l 0,18,19
 701 482 701 482 658 401.5 c 0,20,21
 615 321 615 321 571.5 245 c 0,22,23
 528 169 528 169 486.5 100 c 0,24,25
 445 31 445 31 408 -25 c 0,26,-1
 197 -25 l 0,27,-1
 219 31 l 0,28,-1
 164 868 l 0,29,-1
 8 885 l 0,30,-1
 8 950 l 0,31,-1
 283 1024 l 0,32,-1
 430 999 l 0,33,-1
 469 381 l 0,34,35
 504 449 504 449 540 523 c 0,36,37
 576 597 576 597 611.5 672.5 c 0,38,39
 647 748 647 748 681.5 824.5 c 0,40,41
 716 901 716 901 748 975 c 0,42,-1
 981 999 l 0,43,-1
 1030 279 l 0,44,45
 1065 330 1065 330 1105.5 388.5 c 0,46,47
 1146 447 1146 447 1185.5 507.5 c 0,48,49
 1225 568 1225 568 1260 629 c 0,50,51
 1295 690 1295 690 1321 745 c 0,52,-1
 1243 963 l 0,53,54
 1247 969 1247 969 1257.5 979.5 c 0,55,56
 1268 990 1268 990 1284.5 999.5 c 0,57,58
 1301 1009 1301 1009 1324.5 1016.5 c 0,59,60
 1348 1024 1348 1024 1380 1024 c 0,61,62
 1422 1024 1422 1024 1453 1009 c 0,63,64
 1484 994 1484 994 1504.5 973 c 0,65,66
 1525 952 1525 952 1535.5 930 c 0,67,68
 1546 908 1546 908 1546 895 c 0,0,1
EndSplineSet
EndChar

StartChar: x
Encoding: 91 120 91
Width: 1180
Flags: W
LayerCount: 2
Fore
SplineSet
1200 895 m 0,0,1
 1200 875 1200 875 1197 848 c 0,2,3
 1194 821 1194 821 1180.5 797 c 0,4,5
 1167 773 1167 773 1138 756 c 0,6,7
 1109 739 1109 739 1057 739 c 0,8,-1
 967 846 l 0,9,10
 942 828 942 828 909 797 c 0,11,12
 876 766 876 766 841.5 724.5 c 0,13,14
 807 683 807 683 775 632.5 c 0,15,16
 743 582 743 582 719 524 c 0,17,18
 724 506 724 506 735 473.5 c 0,19,20
 746 441 746 441 759.5 403 c 0,21,22
 773 365 773 365 788 326 c 0,23,24
 803 287 803 287 817 256 c 0,25,26
 831 225 831 225 841.5 197.5 c 0,27,28
 852 170 852 170 863 149 c 0,29,30
 874 128 874 128 887 116 c 0,31,32
 900 104 900 104 918 104 c 0,33,34
 926 104 926 104 939.5 105 c 0,35,36
 953 106 953 106 972 112 c 0,37,38
 991 118 991 118 1017 130.5 c 0,39,40
 1043 143 1043 143 1077 166 c 0,41,-1
 1077 47 l 0,42,43
 1042 26 1042 26 1008 12.5 c 0,44,45
 974 -1 974 -1 939 -9.5 c 0,46,47
 904 -18 904 -18 865.5 -21.5 c 0,48,49
 827 -25 827 -25 782 -25 c 0,50,51
 732 -25 732 -25 690 8.5 c 0,52,53
 648 42 648 42 614 93 c 0,54,55
 580 144 580 144 555 204 c 0,56,57
 530 264 530 264 514 317 c 0,58,59
 506 304 506 304 489 274 c 0,60,61
 472 244 472 244 446.5 206 c 0,62,63
 421 168 421 168 389 127 c 0,64,65
 357 86 357 86 319 52.5 c 0,66,67
 281 19 281 19 239 -3 c 0,68,69
 197 -25 197 -25 152 -25 c 0,70,71
 116 -25 116 -25 82 -17 c 0,72,73
 48 -9 48 -9 21.5 6.5 c 0,74,75
 -5 22 -5 22 -21 45 c 0,76,77
 -37 68 -37 68 -37 98 c 0,78,79
 -37 122 -37 122 -31 150 c 0,80,81
 -25 178 -25 178 -6.5 202 c 0,82,83
 12 226 12 226 47 242 c 0,84,85
 82 258 82 258 139 258 c 0,86,-1
 217 137 l 0,87,88
 244 160 244 160 276 194 c 0,89,90
 308 228 308 228 341 271.5 c 0,91,92
 374 315 374 315 404.5 367 c 0,93,94
 435 419 435 419 459 479 c 0,95,96
 454 499 454 499 443.5 534.5 c 0,97,98
 433 570 433 570 419 611 c 0,99,100
 405 652 405 652 389.5 695 c 0,101,102
 374 738 374 738 359 773 c 0,103,104
 344 808 344 808 331.5 830.5 c 0,105,106
 319 853 319 853 311 854 c 0,107,-1
 109 879 l 0,108,-1
 109 942 l 0,109,110
 121 947 121 947 145.5 955 c 0,111,112
 170 963 170 963 200 972 c 0,113,114
 230 981 230 981 262 990 c 0,115,116
 294 999 294 999 322 1006.5 c 0,117,118
 350 1014 350 1014 371 1019 c 0,119,120
 392 1024 392 1024 399 1024 c 0,121,122
 447 1024 447 1024 484.5 1001 c 0,123,124
 522 978 522 978 552.5 935.5 c 0,125,126
 583 893 583 893 608 833 c 0,127,128
 633 773 633 773 655 698 c 0,129,130
 691 752 691 752 734 809.5 c 0,131,132
 777 867 777 867 825.5 915 c 0,133,134
 874 963 874 963 926 993.5 c 0,135,136
 978 1024 978 1024 1032 1024 c 0,137,138
 1063 1024 1063 1024 1093.5 1014.5 c 0,139,140
 1124 1005 1124 1005 1147.5 988 c 0,141,142
 1171 971 1171 971 1185.5 947 c 0,143,144
 1200 923 1200 923 1200 895 c 0,0,1
EndSplineSet
EndChar

StartChar: y
Encoding: 92 121 92
Width: 1112
Flags: W
LayerCount: 2
Fore
SplineSet
1065 844 m 0,0,1
 1053 832 1053 832 1030 800.5 c 0,2,3
 1007 769 1007 769 982.5 729.5 c 0,4,5
 958 690 958 690 934.5 648 c 0,6,7
 911 606 911 606 897 575 c 0,8,9
 875 526 875 526 844.5 456.5 c 0,10,11
 814 387 814 387 776.5 307 c 0,12,13
 739 227 739 227 695.5 140.5 c 0,14,15
 652 54 652 54 604 -29 c 0,16,17
 553 -118 553 -118 494.5 -198 c 0,18,19
 436 -278 436 -278 368 -338 c 0,20,21
 300 -398 300 -398 221 -433.5 c 0,22,23
 142 -469 142 -469 49 -469 c 0,24,25
 -13 -469 -13 -469 -54.5 -453 c 0,26,27
 -96 -437 -96 -437 -121 -413 c 0,28,29
 -146 -389 -146 -389 -156 -362 c 0,30,31
 -166 -335 -166 -335 -166 -313 c 0,32,33
 -166 -288 -166 -288 -158 -259 c 0,34,35
 -150 -230 -150 -230 -130.5 -204.5 c 0,36,37
 -111 -179 -111 -179 -79.5 -162 c 0,38,39
 -48 -145 -48 -145 0 -143 c 0,40,-1
 88 -299 l 0,41,42
 227 -269 227 -269 397 43 c 0,43,44
 395 55 395 55 387 96 c 0,45,46
 379 137 379 137 367.5 196 c 0,47,48
 356 255 356 255 341.5 326.5 c 0,49,50
 327 398 327 398 311 471 c 0,51,52
 296 541 296 541 283 612 c 0,53,54
 270 683 270 683 259 740 c 0,55,56
 248 797 248 797 239 832.5 c 0,57,58
 230 868 230 868 223 868 c 0,59,-1
 6 885 l 0,60,-1
 6 948 l 0,61,62
 18 952 18 952 41 959.5 c 0,63,64
 64 967 64 967 93 975.5 c 0,65,66
 122 984 122 984 153 992.5 c 0,67,68
 184 1001 184 1001 212.5 1008 c 0,69,70
 241 1015 241 1015 263.5 1019.5 c 0,71,72
 286 1024 286 1024 297 1024 c 0,73,74
 331 1024 331 1024 359.5 1019.5 c 0,75,76
 388 1015 388 1015 412.5 995.5 c 0,77,78
 437 976 437 976 458.5 935.5 c 0,79,80
 480 895 480 895 502 823 c 0,81,82
 512 788 512 788 524 740.5 c 0,83,84
 536 693 536 693 548 638.5 c 0,85,86
 560 584 560 584 573 525 c 0,87,88
 586 466 586 466 598 406 c 0,89,-1
 879 1024 l 0,90,-1
 977 1024 l 0,91,-1
 1171 963 l 0,92,-1
 1171 909 l 0,93,-1
 1065 844 l 0,0,1
EndSplineSet
EndChar

StartChar: z
Encoding: 93 122 93
Width: 1006
Flags: W
LayerCount: 2
Fore
SplineSet
344 188 m 0,0,-1
 473 215 l 0,1,2
 528 186 528 186 564 168 c 0,3,4
 600 150 600 150 635 150 c 0,5,6
 646 150 646 150 665 155 c 0,7,8
 684 160 684 160 704.5 168 c 0,9,10
 725 176 725 176 742 186.5 c 0,11,12
 759 197 759 197 766 209 c 0,13,-1
 643 340 l 0,14,15
 648 347 648 347 664 360.5 c 0,16,17
 680 374 680 374 702 386.5 c 0,18,19
 724 399 724 399 749.5 408.5 c 0,20,21
 775 418 775 418 801 418 c 0,22,23
 834 418 834 418 858 402 c 0,24,25
 882 386 882 386 897.5 363 c 0,26,27
 913 340 913 340 920.5 313.5 c 0,28,29
 928 287 928 287 928 266 c 0,30,31
 928 217 928 217 899.5 165.5 c 0,32,33
 871 114 871 114 822 72 c 0,34,35
 773 30 773 30 709 3.5 c 0,36,37
 645 -23 645 -23 573 -23 c 0,38,39
 521 -23 521 -23 474.5 -9.5 c 0,40,41
 428 4 428 4 391 20 c 0,42,43
 354 36 354 36 328.5 49.5 c 0,44,45
 303 63 303 63 293 63 c 0,46,47
 279 63 279 63 267.5 61.5 c 0,48,49
 256 60 256 60 250 51 c 0,50,-1
 174 -80 l 0,51,-1
 -33 33 l 0,52,-1
 643 811 l 0,53,-1
 514 784 l 0,54,55
 460 813 460 813 424.5 831.5 c 0,56,57
 389 850 389 850 354 850 c 0,58,59
 343 850 343 850 324 845 c 0,60,61
 305 840 305 840 285 831.5 c 0,62,63
 265 823 265 823 247.5 812.5 c 0,64,65
 230 802 230 802 223 791 c 0,66,-1
 344 662 l 0,67,68
 339 653 339 653 324 639.5 c 0,69,70
 309 626 309 626 287 613.5 c 0,71,72
 265 601 265 601 239 591.5 c 0,73,74
 213 582 213 582 188 582 c 0,75,76
 155 582 155 582 131 598 c 0,77,78
 107 614 107 614 91.5 637 c 0,79,80
 76 660 76 660 68.5 686 c 0,81,82
 61 712 61 712 61 733 c 0,83,84
 61 782 61 782 89.5 833.5 c 0,85,86
 118 885 118 885 167 927.5 c 0,87,88
 216 970 216 970 280 997 c 0,89,90
 344 1024 344 1024 416 1024 c 0,91,92
 468 1024 468 1024 514.5 1010 c 0,93,94
 561 996 561 996 598 979.5 c 0,95,96
 635 963 635 963 660.5 949.5 c 0,97,98
 686 936 686 936 696 936 c 0,99,100
 710 936 710 936 720.5 938 c 0,101,102
 731 940 731 940 739 948 c 0,103,-1
 795 1077 l 0,104,-1
 1020 963 l 0,105,-1
 344 188 l 0,0,-1
EndSplineSet
EndChar

StartChar: braceleft
Encoding: 94 123 94
Width: 1014
Flags: W
LayerCount: 2
Fore
SplineSet
1022 1333 m 0,0,1
 984 1333 984 1333 947 1328 c 0,2,3
 915 1323 915 1323 879.5 1312 c 0,4,5
 844 1301 844 1301 815 1278 c 0,6,7
 779 1248 779 1248 759 1203.5 c 0,8,9
 739 1159 739 1159 726.5 1106.5 c 0,10,11
 714 1054 714 1054 704 997 c 0,12,13
 694 940 694 940 677 884.5 c 0,14,15
 660 829 660 829 631.5 778 c 0,16,17
 603 727 603 727 553 688 c 0,18,19
 514 657 514 657 475.5 639 c 0,20,21
 437 621 437 621 405 612 c 0,22,23
 373 603 373 603 349 600 c 0,24,25
 332 598 332 598 323 598 c 0,26,27
 332 597 332 597 348 595 c 0,28,29
 370 592 370 592 398.5 582.5 c 0,30,31
 427 573 427 573 458.5 555 c 0,32,33
 490 537 490 537 516 506 c 0,34,35
 550 466 550 466 558.5 415.5 c 0,36,37
 567 365 567 365 562.5 309.5 c 0,38,39
 558 254 558 254 545 197.5 c 0,40,41
 532 141 532 141 524.5 89 c 0,42,43
 517 37 517 37 519.5 -7.5 c 0,44,45
 522 -52 522 -52 547 -82 c 0,46,47
 566 -105 566 -105 597 -116 c 0,48,49
 628 -127 628 -127 657 -132 c 0,50,51
 691 -137 691 -137 729 -137 c 0,52,-1
 707 -250 l 0,53,-1
 667 -250 l 0,54,55
 640 -250 640 -250 604 -248.5 c 0,56,57
 568 -247 568 -247 526.5 -242.5 c 0,58,59
 485 -238 485 -238 446 -228.5 c 0,60,61
 407 -219 407 -219 373.5 -204 c 0,62,63
 340 -189 340 -189 319 -166 c 0,64,65
 281 -125 281 -125 271 -69 c 0,66,67
 261 -13 261 -13 266.5 48.5 c 0,68,69
 272 110 272 110 286.5 173.5 c 0,70,71
 301 237 301 237 311.5 295 c 0,72,73
 322 353 322 353 321.5 401 c 0,74,75
 321 449 321 449 297 479 c 0,76,77
 273 509 273 509 236.5 521.5 c 0,78,79
 200 534 200 534 166 538 c 0,80,81
 126 542 126 542 84 537 c 0,82,-1
 106 659 l 0,83,84
 148 653 148 653 189 657 c 0,85,86
 224 660 224 660 265.5 672.5 c 0,87,88
 307 685 307 685 342 715 c 0,89,90
 378 745 378 745 397.5 793.5 c 0,91,92
 417 842 417 842 429.5 900 c 0,93,94
 442 958 442 958 453.5 1022 c 0,95,96
 465 1086 465 1086 484 1147.5 c 0,97,98
 503 1209 503 1209 535.5 1265 c 0,99,100
 568 1321 568 1321 623 1362 c 0,101,102
 653 1385 653 1385 692.5 1400 c 0,103,104
 732 1415 732 1415 774.5 1424.5 c 0,105,106
 817 1434 817 1434 860 1438.5 c 0,107,108
 903 1443 903 1443 939.5 1444.5 c 0,109,110
 976 1446 976 1446 1003 1446 c 0,111,-1
 1042 1446 l 0,112,-1
 1022 1333 l 0,0,1
EndSplineSet
EndChar

StartChar: bar
Encoding: 95 124 95
Width: 815
Flags: W
LayerCount: 2
Fore
SplineSet
320 -528 m 0,0,-1
 320 1630 l 0,1,-1
 495 1630 l 0,2,-1
 495 -528 l 0,3,-1
 320 -528 l 0,0,-1
EndSplineSet
EndChar

StartChar: braceright
Encoding: 96 125 96
Width: 1014
Flags: W
LayerCount: 2
Fore
SplineSet
930 537 m 0,0,1
 888 542 888 542 847 538 c 0,2,3
 811 534 811 534 769.5 521.5 c 0,4,5
 728 509 728 509 692 479 c 0,6,7
 656 448 656 448 637 400 c 0,8,9
 618 352 618 352 605.5 294 c 0,10,11
 593 236 593 236 582 172.5 c 0,12,13
 571 109 571 109 552 47.5 c 0,14,15
 533 -14 533 -14 501.5 -69.5 c 0,16,17
 470 -125 470 -125 416 -166 c 0,18,19
 386 -189 386 -189 346 -204 c 0,20,21
 306 -219 306 -219 263 -228.5 c 0,22,23
 220 -238 220 -238 177 -242.5 c 0,24,25
 134 -247 134 -247 97.5 -248.5 c 0,26,27
 61 -250 61 -250 33 -250 c 0,28,-1
 -6 -250 l 0,29,-1
 16 -137 l 0,30,31
 53 -137 53 -137 90 -132 c 0,32,33
 122 -127 122 -127 157 -116 c 0,34,35
 192 -105 192 -105 221 -82 c 0,36,37
 257 -52 257 -52 277 -8 c 0,38,39
 297 36 297 36 309.5 88 c 0,40,41
 322 140 322 140 331.5 196.5 c 0,42,43
 341 253 341 253 358 308.5 c 0,44,45
 375 364 375 364 403 415 c 0,46,47
 431 466 431 466 481 506 c 0,48,49
 518 536 518 536 556 554 c 0,50,51
 594 572 594 572 626.5 581.5 c 0,52,53
 659 591 659 591 683 594 c 0,54,55
 707 597 707 597 717 598 c 0,56,57
 710 598 710 598 688 600 c 0,58,59
 666 602 666 602 637 611 c 0,60,61
 608 620 608 620 576.5 638 c 0,62,63
 545 656 545 656 518 688 c 0,64,65
 484 728 484 728 475.5 779 c 0,66,67
 467 830 467 830 472 885.5 c 0,68,69
 477 941 477 941 489.5 998 c 0,70,71
 502 1055 502 1055 510 1107.5 c 0,72,73
 518 1160 518 1160 516 1204 c 0,74,75
 514 1248 514 1248 489 1278 c 0,76,77
 470 1301 470 1301 439.5 1312 c 0,78,79
 409 1323 409 1323 380 1328 c 0,80,81
 346 1333 346 1333 307 1333 c 0,82,-1
 330 1446 l 0,83,-1
 369 1446 l 0,84,85
 397 1446 397 1446 433 1444.5 c 0,86,87
 469 1443 469 1443 510 1438.5 c 0,88,89
 551 1434 551 1434 590.5 1424.5 c 0,90,91
 630 1415 630 1415 663.5 1400 c 0,92,93
 697 1385 697 1385 719 1362 c 0,94,95
 757 1320 757 1320 766.5 1264.5 c 0,96,97
 776 1209 776 1209 770 1147.5 c 0,98,99
 764 1086 764 1086 749.5 1022 c 0,100,101
 735 958 735 958 724.5 900 c 0,102,103
 714 842 714 842 714.5 793.5 c 0,104,105
 715 745 715 745 739 715 c 0,106,107
 763 685 763 685 799 672.5 c 0,108,109
 835 660 835 660 869 657 c 0,110,111
 909 653 909 653 952 659 c 0,112,-1
 930 537 l 0,0,1
EndSplineSet
EndChar

StartChar: asciitilde
Encoding: 97 126 97
Width: 1706
Flags: W
LayerCount: 2
Fore
SplineSet
1530 612 m 1,0,1
 1469 569 1469 569 1415.5 539.5 c 128,-1,2
 1362 510 1362 510 1315 492.5 c 128,-1,3
 1268 475 1268 475 1225 468 c 128,-1,4
 1182 461 1182 461 1141 461 c 0,5,6
 1067 461 1067 461 997.5 481.5 c 128,-1,7
 928 502 928 502 859.5 526.5 c 128,-1,8
 791 551 791 551 720 571.5 c 128,-1,9
 649 592 649 592 575 592 c 0,10,11
 505 592 505 592 412 549 c 128,-1,12
 319 506 319 506 193 410 c 1,13,-1
 193 602 l 1,14,15
 308 688 308 688 407 723 c 128,-1,16
 506 758 506 758 588 758 c 0,17,18
 645 758 645 758 699.5 745.5 c 128,-1,19
 754 733 754 733 807 715.5 c 128,-1,20
 860 698 860 698 912.5 677.5 c 128,-1,21
 965 657 965 657 1018 643 c 0,22,23
 1049 635 1049 635 1080.5 630 c 128,-1,24
 1112 625 1112 625 1143 625 c 0,25,26
 1176 625 1176 625 1213.5 632 c 128,-1,27
 1251 639 1251 639 1298.5 659.5 c 128,-1,28
 1346 680 1346 680 1403 715 c 128,-1,29
 1460 750 1460 750 1532 803 c 1,30,-1
 1530 612 l 1,0,1
EndSplineSet
Refer: 348 -1 N 1 0 0 1 0 0 2
EndChar

StartChar: exclam.taml
Encoding: 99 -1 99
Width: 917
Flags: W
LayerCount: 2
Fore
SplineSet
889 1061 m 0,0,1
 832 907 832 907 752 670 c 0,2,3
 723 584 723 584 637 332 c 0,4,5
 612 260 612 260 590 190 c 1,6,-1
 518 190 l 1,7,8
 541 372 541 372 551 483 c 0,9,10
 584 823 584 823 584 1057 c 0,11,12
 584 1153 584 1153 642 1219.5 c 128,-1,13
 700 1286 700 1286 782 1286 c 0,14,15
 897 1286 897 1286 897 1153 c 0,16,17
 897 1130 897 1130 897 1112 c 0,18,19
 889 1079 889 1079 889 1061 c 0,0,1
637 -68 m 0,20,21
 623 -129 623 -129 575.5 -170 c 128,-1,22
 528 -211 528 -211 463 -211 c 0,23,24
 412 -211 412 -211 379 -178 c 128,-1,25
 346 -145 346 -145 346 -94 c 0,26,27
 346 -76 346 -76 353 -43 c 128,-1,28
 360 -10 360 -10 408.5 30 c 128,-1,29
 457 70 457 70 518 70 c 256,30,31
 579 70 579 70 612 31.5 c 128,-1,32
 645 -7 645 -7 637 -68 c 0,20,21
EndSplineSet
EndChar

StartChar: quoteleft.taml
Encoding: 100 -1 100
Width: 716
Flags: W
LayerCount: 2
Fore
SplineSet
920 1810 m 1,0,1
 752 1759 752 1759 641 1655 c 1,2,3
 608 1596 608 1596 575 1538 c 1,4,5
 589 1528 589 1528 606 1528 c 256,6,7
 622 1528 622 1528 667.5 1553.5 c 128,-1,8
 713 1579 713 1579 741 1579 c 0,9,10
 766 1579 766 1579 792.5 1560.5 c 128,-1,11
 819 1542 819 1542 835.5 1505 c 128,-1,12
 852 1468 852 1468 852 1432 c 0,13,14
 852 1352 852 1352 795 1292 c 0,15,16
 723 1212 723 1212 606 1212 c 0,17,18
 573 1212 573 1212 525 1217.5 c 128,-1,19
 477 1223 477 1223 439 1282 c 128,-1,20
 401 1341 401 1341 401 1423 c 0,21,22
 401 1489 401 1489 426 1546 c 0,23,24
 508 1741 508 1741 735 1860 c 0,25,26
 809 1897 809 1897 946 1939 c 1,27,-1
 920 1810 l 1,0,1
EndSplineSet
EndChar

StartChar: u20A8
Encoding: 101 8360 101
Width: 2293
Flags: W
LayerCount: 2
Fore
SplineSet
2081 262 m 1,0,1
 2052 139 2052 139 1944.5 60.5 c 128,-1,2
 1837 -18 1837 -18 1712 -18 c 0,3,4
 1659 -18 1659 -18 1585 4.5 c 128,-1,5
 1511 27 1511 27 1497 27 c 0,6,7
 1474 27 1474 27 1466 12 c 1,8,-1
 1415 20 l 1,9,-1
 1477 326 l 1,10,-1
 1530 326 l 1,11,12
 1530 183 1530 183 1589 121 c 0,13,14
 1640 70 1640 70 1735 70 c 0,15,16
 1786 70 1786 70 1836 106.5 c 128,-1,17
 1886 143 1886 143 1894 182 c 0,18,19
 1908 256 1908 256 1823 311 c 0,20,21
 1794 327 1794 327 1714 371 c 0,22,23
 1614 428 1614 428 1583 457 c 0,24,25
 1536 504 1536 504 1536 573 c 0,26,27
 1536 610 1536 610 1540 629 c 0,28,29
 1563 740 1563 740 1654 811.5 c 128,-1,30
 1745 883 1745 883 1864 883 c 0,31,32
 1907 883 1907 883 1962 867.5 c 128,-1,33
 2017 852 2017 852 2025 852 c 0,34,35
 2056 852 2056 852 2075 883 c 1,36,-1
 2150 883 l 1,37,-1
 2083 571 l 1,38,-1
 2007 571 l 1,39,40
 2007 700 2007 700 1966 751.5 c 128,-1,41
 1925 803 1925 803 1839 803 c 0,42,43
 1788 803 1788 803 1745 779.5 c 128,-1,44
 1702 756 1702 756 1697 727 c 128,-1,45
 1692 698 1692 698 1692 680 c 0,46,47
 1692 627 1692 627 1751 588 c 1,48,49
 1819 555 1819 555 1886 522 c 0,50,51
 1982 467 1982 467 2015 436 c 0,52,53
 2076 377 2076 377 2077 303 c 0,54,55
 2077 293 2077 293 2081 262 c 1,0,1
1303 12 m 1,56,-1
 932 12 l 1,57,-1
 621 594 l 1,58,-1
 518 590 l 1,59,-1
 438 250 l 2,60,61
 428 203 428 203 428 166 c 0,62,63
 428 125 428 125 449.5 113.5 c 128,-1,64
 471 102 471 102 522 102 c 2,65,-1
 594 102 l 1,66,-1
 578 20 l 1,67,-1
 -4 20 l 1,68,-1
 12 102 l 1,69,-1
 70 102 l 2,70,71
 152 102 152 102 180.5 139 c 128,-1,72
 209 176 209 176 225 252 c 2,73,-1
 395 1057 l 2,74,75
 403 1096 403 1096 403 1120 c 0,76,77
 403 1157 403 1157 387 1173.5 c 128,-1,78
 371 1190 371 1190 303 1190 c 2,79,-1
 238 1186 l 1,80,-1
 256 1280 l 1,81,-1
 737 1280 l 2,82,83
 993 1280 993 1280 1113 1224.5 c 128,-1,84
 1233 1169 1233 1169 1233 1032 c 0,85,86
 1233 999 1233 999 1225 956 c 0,87,88
 1202 847 1202 847 1116 766 c 0,89,90
 1020 672 1020 672 852 627 c 1,91,92
 950 441 950 441 1004 346 c 0,93,94
 1117 145 1117 145 1139 135 c 0,95,96
 1168 117 1168 117 1222 108.5 c 128,-1,97
 1276 100 1276 100 1313 96 c 1,98,-1
 1303 12 l 1,56,-1
971 936 m 0,99,100
 975 975 975 975 975 993 c 0,101,102
 975 1073 975 1073 924 1120 c 0,103,104
 863 1177 863 1177 733 1178 c 0,105,106
 690 1178 690 1178 633 1169 c 1,107,-1
 532 696 l 1,108,109
 706 696 706 696 826 761.5 c 128,-1,110
 946 827 946 827 971 936 c 0,99,100
EndSplineSet
EndChar

StartChar: percent.taml
Encoding: 102 -1 102
Width: 1665
Flags: W
LayerCount: 2
Fore
SplineSet
1556 461 m 0,0,1
 1511 244 1511 244 1380 133 c 0,2,3
 1276 43 1276 43 1153 43 c 0,4,5
 1077 43 1077 43 1034 70 c 0,6,7
 952 123 952 123 952 262 c 0,8,9
 952 315 952 315 969 397 c 0,10,11
 1016 628 1016 628 1155 745 c 0,12,13
 1257 831 1257 831 1366 831 c 0,14,15
 1446 831 1446 831 1499 788 c 0,16,17
 1573 729 1573 729 1573 598 c 0,18,19
 1572 541 1572 541 1556 461 c 0,0,1
1577 1440 m 1,20,-1
 420 31 l 1,21,-1
 238 31 l 1,22,-1
 1393 1440 l 1,23,-1
 1577 1440 l 1,20,-1
866 1079 m 0,24,25
 819 848 819 848 680 731 c 0,26,27
 578 645 578 645 469 645 c 0,28,29
 389 645 389 645 336 688 c 0,30,31
 262 747 262 747 262 879 c 0,32,33
 262 936 262 936 279 1018 c 0,34,35
 324 1235 324 1235 453 1346 c 0,36,37
 557 1436 557 1436 682 1436 c 0,38,39
 758 1436 758 1436 801 1407 c 0,40,41
 883 1354 883 1354 883 1214 c 0,42,43
 882 1161 882 1161 866 1079 c 0,24,25
1360 350 m 0,44,45
 1368 381 1368 381 1370 411.5 c 128,-1,46
 1372 442 1372 442 1372 473 c 0,47,48
 1372 555 1372 555 1339.5 593 c 128,-1,49
 1307 631 1307 631 1253 631 c 0,50,51
 1181 631 1181 631 1163 535.5 c 128,-1,52
 1145 440 1145 440 1145 387 c 0,53,54
 1145 225 1145 225 1270 225 c 0,55,56
 1331 225 1331 225 1360 350 c 0,44,45
664 944 m 0,57,58
 680 1020 680 1020 680 1073 c 0,59,60
 680 1241 680 1241 551 1241 c 0,61,62
 490 1241 490 1241 465 1116 c 0,63,64
 457 1085 457 1085 455 1054.5 c 128,-1,65
 453 1024 453 1024 453 993 c 0,66,67
 453 913 453 913 485.5 875.5 c 128,-1,68
 518 838 518 838 571 838 c 0,69,70
 644 838 644 838 664 944 c 0,57,58
EndSplineSet
EndChar

StartChar: ampersand.taml
Encoding: 103 -1 103
Width: 1447
Flags: W
LayerCount: 2
Fore
SplineSet
1481 272 m 1,0,1
 1409 135 1409 135 1315 65.5 c 128,-1,2
 1221 -4 1221 -4 1112 -4 c 0,3,4
 1030 -4 1030 -4 954 35 c 0,5,6
 917 60 917 60 893 82 c 0,7,8
 860 113 860 113 829 156 c 1,9,10
 591 -6 591 -6 395 -6 c 0,11,12
 250 -6 250 -6 162 82 c 0,13,14
 107 148 107 148 106 229 c 0,15,16
 106 295 106 295 139 363.5 c 128,-1,17
 172 432 172 432 244 504 c 0,18,19
 342 606 342 606 571 717 c 1,20,21
 561 774 561 774 556 805 c 128,-1,22
 551 836 551 836 551 874 c 0,23,24
 551 919 551 919 559 963 c 0,25,26
 588 1100 588 1100 706.5 1187 c 128,-1,27
 825 1274 825 1274 971 1274 c 0,28,29
 1073 1274 1073 1274 1135.5 1219.5 c 128,-1,30
 1198 1165 1198 1165 1198 1083 c 0,31,32
 1198 1073 1198 1073 1194 1040 c 0,33,34
 1171 946 1171 946 1092.5 872.5 c 128,-1,35
 1014 799 1014 799 834 717 c 1,36,37
 900 541 900 541 973 416 c 1,38,39
 1131 574 1131 574 1155 678 c 0,40,41
 1163 709 1163 709 1143.5 727 c 128,-1,42
 1124 745 1124 745 1092 750 c 1,43,-1
 1108 836 l 1,44,-1
 1542 836 l 1,45,-1
 1526 750 l 1,46,47
 1473 750 1473 750 1446 742.5 c 128,-1,48
 1419 735 1419 735 1388.5 716.5 c 128,-1,49
 1358 698 1358 698 1256.5 567 c 128,-1,50
 1155 436 1155 436 1036 319 c 1,51,52
 1059 286 1059 286 1082.5 263 c 128,-1,53
 1106 240 1106 240 1143 216.5 c 128,-1,54
 1180 193 1180 193 1233 193 c 0,55,56
 1350 193 1350 193 1417 334 c 1,57,-1
 1481 272 l 1,0,1
1030 1051 m 0,58,59
 1040 1098 1040 1098 1014.5 1130.5 c 128,-1,60
 989 1163 989 1163 942 1167 c 0,61,62
 887 1167 887 1167 843 1126 c 128,-1,63
 799 1085 799 1085 790.5 1045.5 c 128,-1,64
 782 1006 782 1006 782 969 c 0,65,66
 782 930 782 930 805 829 c 1,67,68
 1005 918 1005 918 1030 1051 c 0,58,59
766 248 m 1,69,70
 715 346 715 346 682 419 c 128,-1,71
 649 492 649 492 606 610 c 1,72,73
 530 565 530 565 522 561 c 0,74,75
 489 538 489 538 459 506 c 0,76,77
 379 418 379 418 379 317 c 0,78,79
 379 264 379 264 403 221 c 0,80,81
 454 153 454 153 530 154 c 0,82,83
 577 154 577 154 629.5 175.5 c 128,-1,84
 682 197 682 197 766 248 c 1,69,70
EndSplineSet
EndChar

StartChar: quoteright.taml
Encoding: 104 -1 104
Width: 716
Flags: W
LayerCount: 2
Fore
SplineSet
793 1573 m 0,0,1
 707 1378 707 1378 479 1260 c 0,2,3
 405 1223 405 1223 268 1180 c 1,4,-1
 297 1309 l 1,5,6
 469 1360 469 1360 580 1464 c 1,7,8
 611 1521 611 1521 643 1581 c 1,9,10
 629 1591 629 1591 612 1591 c 0,11,12
 594 1591 594 1591 549 1565.5 c 128,-1,13
 504 1540 504 1540 475 1540 c 0,14,15
 452 1540 452 1540 428 1556 c 0,16,17
 362 1603 362 1603 362 1690 c 0,18,19
 362 1766 362 1766 420 1825 c 0,20,21
 459 1868 459 1868 504 1886.5 c 128,-1,22
 549 1905 549 1905 608 1905 c 0,23,24
 645 1905 645 1905 692 1899.5 c 128,-1,25
 739 1894 739 1894 779 1835 c 128,-1,26
 819 1776 819 1776 819 1694 c 0,27,28
 820 1628 820 1628 793 1573 c 0,0,1
EndSplineSet
EndChar

StartChar: parenleft.taml
Encoding: 105 -1 105
Width: 802
Flags: W
LayerCount: 2
Fore
SplineSet
764 -664 m 1,0,-1
 698 -723 l 1,1,2
 444 -565 444 -565 320.5 -323.5 c 128,-1,3
 197 -82 197 -82 197 213 c 0,4,5
 197 373 197 373 229 541 c 0,6,7
 315 942 315 942 559 1262 c 0,8,9
 821 1606 821 1606 1233 1808 c 1,10,-1
 1278 1757 l 1,11,12
 911 1513 911 1513 690 1060.5 c 128,-1,13
 469 608 469 608 469 150 c 0,14,15
 469 -106 469 -106 539.5 -311.5 c 128,-1,16
 610 -517 610 -517 764 -664 c 1,0,-1
EndSplineSet
EndChar

StartChar: parenright.taml
Encoding: 106 -1 106
Width: 802
Flags: W
LayerCount: 2
Fore
SplineSet
688 541 m 0,0,1
 606 144 606 144 360 -176 c 0,2,3
 98 -516 98 -516 -315 -721 c 1,4,-1
 -354 -664 l 1,5,6
 21 -404 21 -404 244 63 c 0,7,8
 453 497 453 497 453 952 c 0,9,10
 453 1204 453 1204 380 1413 c 128,-1,11
 307 1622 307 1622 162 1755 c 1,12,-1
 227 1808 l 1,13,14
 483 1648 483 1648 606 1411 c 128,-1,15
 729 1174 729 1174 729 877 c 0,16,17
 729 791 729 791 722 721.5 c 128,-1,18
 715 652 715 652 688 541 c 0,0,1
EndSplineSet
EndChar

StartChar: asterisk.taml
Encoding: 107 -1 107
Width: 1720
Flags: W
LayerCount: 2
Fore
SplineSet
1481 948 m 0,0,1
 1434 891 1434 891 1362 891 c 0,2,3
 1323 891 1323 891 1300 915 c 0,4,5
 1253 962 1253 962 1210 1010 c 0,6,7
 1157 1071 1157 1071 1141 1085 c 1,8,9
 1141 1052 1141 1052 1146 966.5 c 128,-1,10
 1151 881 1151 881 1151 834 c 1,11,12
 1141 781 1141 781 1101 744 c 128,-1,13
 1061 707 1061 707 1014 707 c 0,14,15
 977 707 977 707 950.5 733.5 c 128,-1,16
 924 760 924 760 924 803 c 0,17,18
 924 821 924 821 926 831 c 0,19,20
 963 913 963 913 995.5 982 c 128,-1,21
 1028 1051 1028 1051 1042 1087 c 1,22,23
 997 1058 997 1058 946 1016 c 0,24,25
 829 922 829 922 815 911 c 0,26,27
 768 882 768 882 729 883 c 0,28,29
 663 883 663 883 641 934 c 0,30,31
 637 950 637 950 637 965 c 0,32,33
 637 1004 637 1004 666.5 1041.5 c 128,-1,34
 696 1079 696 1079 737 1091.5 c 128,-1,35
 778 1104 778 1104 872.5 1125.5 c 128,-1,36
 967 1147 967 1147 1014 1163 c 1,37,38
 991 1171 991 1171 914.5 1189.5 c 128,-1,39
 838 1208 838 1208 766 1231 c 0,40,41
 713 1256 713 1256 713 1315 c 0,42,43
 713 1352 713 1352 737 1391 c 1,44,45
 788 1442 788 1442 856 1442 c 0,46,47
 895 1442 895 1442 924 1419 c 0,48,49
 981 1358 981 1358 1012 1315 c 0,50,51
 1057 1256 1057 1256 1075 1239 c 1,52,53
 1075 1290 1075 1290 1071 1380 c 128,-1,54
 1067 1470 1067 1470 1067 1495 c 0,55,56
 1077 1552 1077 1552 1118 1586 c 128,-1,57
 1159 1620 1159 1620 1206 1620 c 0,58,59
 1245 1620 1245 1620 1268.5 1593.5 c 128,-1,60
 1292 1567 1292 1567 1292 1522 c 0,61,62
 1292 1504 1292 1504 1290 1495 c 0,63,64
 1253 1421 1253 1421 1219.5 1351.5 c 128,-1,65
 1186 1282 1186 1282 1171 1243 c 1,66,67
 1214 1272 1214 1272 1274 1319 c 0,68,69
 1368 1395 1368 1395 1407 1423 c 0,70,71
 1438 1439 1438 1439 1475 1440 c 0,72,73
 1549 1440 1549 1440 1573 1393 c 0,74,75
 1575 1383 1575 1383 1575 1364 c 0,76,77
 1575 1319 1575 1319 1546.5 1282 c 128,-1,78
 1518 1245 1518 1245 1473 1235 c 0,79,80
 1354 1210 1354 1210 1302.5 1199 c 128,-1,81
 1251 1188 1251 1188 1200 1171 c 1,82,83
 1247 1148 1247 1148 1315.5 1132 c 128,-1,84
 1384 1116 1384 1116 1443.5 1100.5 c 128,-1,85
 1503 1085 1503 1085 1503 1020 c 0,86,87
 1504 983 1504 983 1481 948 c 0,0,1
EndSplineSet
EndChar

StartChar: plus.taml
Encoding: 108 -1 108
Width: 1204
Flags: W
LayerCount: 2
Fore
SplineSet
1026 524 m 2,0,-1
 840 524 l 1,1,-1
 803 348 l 2,2,3
 799 315 799 315 759 297 c 128,-1,4
 719 279 719 279 666 279 c 0,5,6
 543 279 543 279 553 350 c 2,7,-1
 590 526 l 1,8,-1
 403 526 l 2,9,10
 378 526 378 526 366 547.5 c 128,-1,11
 354 569 354 569 354 602 c 0,12,13
 354 655 354 655 384 709.5 c 128,-1,14
 414 764 414 764 457 764 c 2,15,-1
 643 764 l 1,16,-1
 680 940 l 2,17,18
 688 971 688 971 729 990.5 c 128,-1,19
 770 1010 770 1010 817 1010 c 0,20,21
 868 1010 868 1010 902 991.5 c 128,-1,22
 936 973 936 973 928 940 c 2,23,-1
 891 764 l 1,24,-1
 1077 764 l 2,25,26
 1102 764 1102 764 1114 742.5 c 128,-1,27
 1126 721 1126 721 1126 688 c 0,28,29
 1126 635 1126 635 1096.5 580.5 c 128,-1,30
 1067 526 1067 526 1026 524 c 2,0,-1
EndSplineSet
EndChar

StartChar: comma.taml
Encoding: 109 -1 109
Width: 630
Flags: W
LayerCount: 2
Fore
SplineSet
489 90 m 0,0,1
 456 -72 456 -72 309 -188 c 0,2,3
 112 -342 112 -342 -33 -342 c 1,4,-1
 -4 -219 l 1,5,6
 62 -219 62 -219 172 -145 c 0,7,8
 303 -61 303 -61 322 35 c 1,9,-1
 317 39 l 1,10,11
 301 39 301 39 256 13.5 c 128,-1,12
 211 -12 211 -12 182 -12 c 0,13,14
 135 -12 135 -12 95 36 c 128,-1,15
 55 84 55 84 55 145 c 0,16,17
 55 161 55 161 57 170 c 0,18,19
 69 238 69 238 141 294 c 128,-1,20
 213 350 213 350 289 350 c 0,21,22
 389 350 389 350 443.5 286.5 c 128,-1,23
 498 223 498 223 498 133 c 0,24,25
 497 119 497 119 489 90 c 0,0,1
EndSplineSet
EndChar

StartChar: hyphen.taml
Encoding: 110 -1 110
Width: 1269
Flags: W
LayerCount: 2
Fore
SplineSet
1151 547 m 2,0,-1
 348 547 l 2,1,2
 280 547 280 547 244.5 570.5 c 128,-1,3
 209 594 209 594 209 633 c 0,4,5
 209 678 209 678 256 710.5 c 128,-1,6
 303 743 303 743 389 743 c 2,7,-1
 1192 743 l 2,8,9
 1337 743 1337 743 1337 653 c 0,10,11
 1337 610 1337 610 1289 577.5 c 128,-1,12
 1241 545 1241 545 1151 547 c 2,0,-1
EndSplineSet
EndChar

StartChar: period.taml
Encoding: 111 -1 111
Width: 630
Flags: W
LayerCount: 2
Fore
SplineSet
504 176 m 0,0,1
 490 102 490 102 416 51 c 128,-1,2
 342 0 342 0 256 0 c 0,3,4
 182 0 182 0 134 40 c 128,-1,5
 86 80 86 80 86 147 c 0,6,7
 86 163 86 163 88 174 c 0,8,9
 102 246 102 246 175 298 c 128,-1,10
 248 350 248 350 330 350 c 0,11,12
 404 350 404 350 455 307 c 128,-1,13
 506 264 506 264 506 203 c 0,14,15
 506 184 506 184 504 176 c 0,0,1
EndSplineSet
EndChar

StartChar: uni2215
Encoding: 113 8725 113
Width: 745
Flags: W
LayerCount: 2
Fore
SplineSet
1157 1759 m 1,0,-1
 23 -270 l 1,1,-1
 -150 -270 l 1,2,-1
 987 1759 l 1,3,-1
 1157 1759 l 1,0,-1
EndSplineSet
EndChar

StartChar: zero.taml
Encoding: 114 -1 114
Width: 1529
Flags: W
LayerCount: 2
Fore
SplineSet
1352 645 m 0,0,1
 1284 328 1284 328 1065 156 c 0,2,3
 864 2 864 2 588 2 c 0,4,5
 529 2 529 2 469 10 c 0,6,7
 266 35 266 35 176 137.5 c 128,-1,8
 86 240 86 240 86 414 c 0,9,10
 86 504 86 504 115 641 c 0,11,12
 174 926 174 926 311 1073 c 0,13,14
 463 1239 463 1239 737 1270 c 0,15,16
 768 1272 768 1272 804 1273 c 128,-1,17
 840 1274 840 1274 856 1274 c 0,18,19
 1110 1274 1110 1274 1241 1146 c 128,-1,20
 1372 1018 1372 1018 1372 807 c 0,21,22
 1372 774 1372 774 1368 733 c 128,-1,23
 1364 692 1364 692 1352 645 c 0,0,1
952 639 m 0,24,25
 970 727 970 727 971 813 c 0,26,27
 971 950 971 950 908.5 1026 c 128,-1,28
 846 1102 846 1102 700 1102 c 0,29,30
 538 1102 538 1102 424 963 c 0,31,32
 324 840 324 840 285 639 c 0,33,34
 269 557 269 557 268 485 c 0,35,36
 268 348 268 348 325.5 267 c 128,-1,37
 383 186 383 186 508 186 c 0,38,39
 690 186 690 186 809 330 c 0,40,41
 909 449 909 449 952 639 c 0,24,25
EndSplineSet
EndChar

StartChar: one.taml
Encoding: 115 -1 115
Width: 993
Flags: W
LayerCount: 2
Fore
SplineSet
922 1178 m 0,0,1
 875 1119 875 1119 842 1045 c 128,-1,2
 809 971 809 971 789.5 883 c 128,-1,3
 770 795 770 795 754 723 c 0,4,5
 686 455 686 455 676 395 c 0,6,7
 633 192 633 192 492 88 c 0,8,9
 369 -2 369 -2 221 -2 c 0,10,11
 139 -2 139 -2 139 43 c 0,12,13
 139 68 139 68 172 106 c 0,14,15
 217 163 217 163 254 239 c 128,-1,16
 291 315 291 315 309 403 c 0,17,18
 319 462 319 462 416 715 c 0,19,20
 453 817 453 817 492 920 c 1,21,22
 459 861 459 861 406 795 c 0,23,24
 340 719 340 719 279 674 c 0,25,26
 232 637 232 637 188 637 c 0,27,28
 137 637 137 637 129 682 c 1,29,30
 129 748 129 748 188 786 c 0,31,32
 221 804 221 804 254 827 c 0,33,34
 272 837 272 837 293.5 859 c 128,-1,35
 315 881 315 881 346 924 c 0,36,37
 432 1043 432 1043 465 1090 c 0,38,39
 524 1172 524 1172 583.5 1208.5 c 128,-1,40
 643 1245 643 1245 712.5 1264.5 c 128,-1,41
 782 1284 782 1284 877 1284 c 0,42,43
 953 1284 953 1284 952 1241 c 0,44,45
 953 1213 953 1213 922 1178 c 0,0,1
EndSplineSet
EndChar

StartChar: two.taml
Encoding: 116 -1 116
Width: 1361
Flags: W
LayerCount: 2
Fore
SplineSet
1042 68 m 0,0,1
 989 43 989 43 936 18 c 0,2,3
 889 2 889 2 778 2 c 0,4,5
 688 2 688 2 648 13.5 c 128,-1,6
 608 25 608 25 520 25 c 0,7,8
 418 25 418 25 320.5 9.5 c 128,-1,9
 223 -6 223 -6 170 -6 c 0,10,11
 104 -6 104 -6 68 16 c 0,12,13
 15 47 15 47 14 123 c 0,14,15
 14 156 14 156 18 174 c 0,16,17
 43 293 43 293 226.5 381 c 128,-1,18
 410 469 410 469 590 555 c 1,19,20
 791 680 791 680 829 874 c 0,21,22
 839 925 839 925 840.5 934.5 c 128,-1,23
 842 944 842 944 842 977 c 0,24,25
 842 1114 842 1114 682 1114 c 2,26,-1
 637 1114 l 2,27,28
 563 1114 563 1114 512 1092 c 0,29,30
 430 1055 430 1055 356 952 c 0,31,32
 338 923 338 923 309.5 907 c 128,-1,33
 281 891 281 891 258 891 c 0,34,35
 199 891 199 891 199 948 c 0,36,37
 199 981 199 981 229 1020 c 0,38,39
 342 1174 342 1174 453.5 1225 c 128,-1,40
 565 1276 565 1276 711 1276 c 0,41,42
 973 1276 973 1276 1092.5 1200 c 128,-1,43
 1212 1124 1212 1124 1212 971 c 0,44,45
 1212 946 1212 946 1212 922 c 0,46,47
 1204 883 1204 883 1202 864 c 0,48,49
 1149 606 1149 606 893 489 c 1,50,51
 604 380 604 380 319 272 c 0,52,53
 237 233 237 233 238 190 c 0,54,55
 238 151 238 151 297 152 c 0,56,57
 322 152 322 152 348.5 160 c 128,-1,58
 375 168 375 168 404.5 177 c 128,-1,59
 434 186 434 186 449 186 c 0,60,61
 486 182 486 182 551 182 c 0,62,63
 623 182 623 182 656.5 171 c 128,-1,64
 690 160 690 160 756 160 c 0,65,66
 836 160 836 160 881 176 c 0,67,68
 932 201 932 201 965 215 c 0,69,70
 1024 244 1024 244 1075 244 c 0,71,72
 1155 244 1155 244 1155 182 c 0,73,74
 1155 149 1155 149 1128 118.5 c 128,-1,75
 1101 88 1101 88 1042 68 c 0,0,1
EndSplineSet
EndChar

StartChar: three.taml
Encoding: 117 -1 117
Width: 1214
Flags: W
LayerCount: 2
Fore
SplineSet
862 647 m 1,0,1
 985 532 985 532 985 401 c 0,2,3
 985 235 985 235 811 112.5 c 128,-1,4
 637 -10 637 -10 397 -10 c 0,5,6
 354 -10 354 -10 311 -10 c 1,7,8
 272 -2 272 -2 256 0 c 0,9,10
 45 37 45 37 23 205 c 0,11,12
 19 248 19 248 51.5 289 c 128,-1,13
 84 330 84 330 127 330 c 0,14,15
 174 330 174 330 199 254 c 0,16,17
 215 209 215 209 243.5 187.5 c 128,-1,18
 272 166 272 166 338 166 c 0,19,20
 426 166 426 166 520 246 c 128,-1,21
 614 326 614 326 614 428 c 0,22,23
 614 483 614 483 583.5 537.5 c 128,-1,24
 553 592 553 592 483 643 c 1,25,26
 608 717 608 717 667.5 797 c 128,-1,27
 727 877 727 877 727 944 c 0,28,29
 727 1018 727 1018 675 1062 c 128,-1,30
 623 1106 623 1106 543 1106 c 0,31,32
 514 1106 514 1106 485 1106 c 0,33,34
 452 1098 452 1098 416 1061 c 0,35,36
 365 1008 365 1008 317 1008 c 0,37,38
 258 1008 258 1008 258 1073 c 0,39,40
 258 1112 258 1112 287.5 1150 c 128,-1,41
 317 1188 317 1188 394 1225 c 128,-1,42
 471 1262 471 1262 540.5 1274 c 128,-1,43
 610 1286 610 1286 684 1286 c 0,44,45
 874 1286 874 1286 990 1206 c 128,-1,46
 1106 1126 1106 1126 1106 997 c 0,47,48
 1106 911 1106 911 1048.5 821 c 128,-1,49
 991 731 991 731 862 647 c 1,0,1
EndSplineSet
EndChar

StartChar: four.taml
Encoding: 118 -1 118
Width: 1458
Flags: W
LayerCount: 2
Fore
SplineSet
1214 401 m 0,0,1
 1095 340 1095 340 993 340 c 2,2,-1
 975 340 l 1,3,4
 922 166 922 166 788 72 c 0,5,6
 673 -8 673 -8 535 -8 c 0,7,8
 453 -8 453 -8 453 37 c 0,9,10
 453 62 453 62 485 100 c 0,11,12
 565 196 565 196 608 336 c 1,13,-1
 135 326 l 2,14,15
 65 326 65 326 66 387 c 0,16,17
 66 418 66 418 96 457 c 1,18,19
 323 645 323 645 557 871.5 c 128,-1,20
 791 1098 791 1098 893 1198 c 0,21,22
 944 1245 944 1245 1018 1263.5 c 128,-1,23
 1092 1282 1092 1282 1196 1282 c 0,24,25
 1272 1282 1272 1282 1272 1239 c 0,26,27
 1272 1210 1272 1210 1239 1171 c 0,28,29
 1192 1112 1192 1112 1159 1038.5 c 128,-1,30
 1126 965 1126 965 1108 877 c 2,31,-1
 1012 481 l 1,32,-1
 997 481 l 2,33,34
 1040 481 1040 481 1081 499.5 c 128,-1,35
 1122 518 1122 518 1147 528 c 0,36,37
 1194 551 1194 551 1237 551 c 0,38,39
 1303 551 1303 551 1303 500 c 0,40,41
 1302 440 1302 440 1214 401 c 0,0,1
854 1004 m 1,42,43
 754 887 754 887 597 731 c 128,-1,44
 440 575 440 575 309 473 c 1,45,-1
 649 496 l 1,46,47
 682 598 682 598 813 903 c 0,48,49
 831 951 831 951 854 1004 c 1,42,43
EndSplineSet
EndChar

StartChar: five.taml
Encoding: 119 -1 119
Width: 1384
Flags: W
LayerCount: 2
Fore
SplineSet
1161 434 m 1,0,1
 1118 231 1118 231 971 127 c 0,2,3
 789 -4 789 -4 418 -4 c 0,4,5
 279 -4 279 -4 206 15.5 c 128,-1,6
 133 35 133 35 68 96 c 0,7,8
 50 114 50 114 49 139 c 0,9,10
 49 172 49 172 86 202.5 c 128,-1,11
 123 233 123 233 162 233 c 0,12,13
 187 233 187 233 203 217 c 0,14,15
 250 172 250 172 292 163 c 128,-1,16
 334 154 334 154 449 154 c 0,17,18
 558 154 558 154 651.5 229.5 c 128,-1,19
 745 305 745 305 770 430 c 0,20,21
 778 469 778 469 778 502 c 0,22,23
 778 635 778 635 641 694 c 0,24,25
 541 737 541 737 381 737 c 0,26,27
 270 737 270 737 270 788 c 0,28,29
 270 819 270 819 324 879 c 1,30,-1
 506 1161 l 1,31,-1
 573 1200 l 2,32,33
 606 1216 606 1216 653 1217 c 0,34,35
 678 1217 678 1217 725 1212.5 c 128,-1,36
 772 1208 772 1208 780 1208 c 0,37,38
 837 1208 837 1208 874 1206 c 128,-1,39
 911 1204 911 1204 950 1202 c 0,40,41
 1003 1202 1003 1202 1044 1211.5 c 128,-1,42
 1085 1221 1085 1221 1144.5 1249.5 c 128,-1,43
 1204 1278 1204 1278 1251 1278 c 0,44,45
 1333 1278 1333 1278 1333 1217 c 0,46,47
 1333 1184 1333 1184 1306.5 1153 c 128,-1,48
 1280 1122 1280 1122 1223 1100 c 0,49,50
 1080 1043 1080 1043 971 1042 c 0,51,52
 910 1042 910 1042 845 1046.5 c 128,-1,53
 780 1051 780 1051 748 1051 c 2,54,-1
 608 1047 l 1,55,-1
 485 905 l 1,56,57
 553 913 553 913 618 913 c 0,58,59
 858 913 858 913 1007.5 816 c 128,-1,60
 1157 719 1157 719 1157 530 c 0,61,62
 1157 505 1157 505 1157 483 c 0,63,64
 1149 450 1149 450 1161 434 c 1,0,1
EndSplineSet
EndChar

StartChar: six.taml
Encoding: 120 -1 120
Width: 1071
Flags: W
LayerCount: 2
Fore
SplineSet
1001 483 m 0,0,1
 956 260 956 260 852 145 c 0,2,3
 721 0 721 0 477 0 c 0,4,5
 268 0 268 0 185 76 c 128,-1,6
 102 152 102 152 102 303 c 0,7,8
 102 340 102 340 106.5 391 c 128,-1,9
 111 442 111 442 121 510 c 0,10,11
 174 866 174 866 377 1067 c 0,12,13
 596 1284 596 1284 969 1284 c 0,14,15
 1071 1284 1071 1284 1071 1212 c 0,16,17
 1071 1175 1071 1175 1034 1148.5 c 128,-1,18
 997 1122 997 1122 930 1122 c 0,19,20
 721 1122 721 1122 578 1026 c 0,21,22
 451 940 451 940 393 801 c 1,23,24
 475 832 475 832 592 831 c 0,25,26
 764 831 764 831 879 764 c 0,27,28
 1010 684 1010 684 1010 551 c 0,29,30
 1009 520 1009 520 1001 483 c 0,0,1
618 430 m 0,31,32
 626 469 626 469 627 500 c 0,33,34
 627 631 627 631 487 631 c 0,35,36
 335 631 335 631 307 444 c 0,37,38
 303 411 303 411 301 382.5 c 128,-1,39
 299 354 299 354 299 322 c 0,40,41
 299 248 299 248 320.5 208 c 128,-1,42
 342 168 342 168 387 168 c 0,43,44
 498 168 498 168 542.5 223 c 128,-1,45
 587 278 587 278 618 430 c 0,31,32
EndSplineSet
EndChar

StartChar: seven.taml
Encoding: 121 -1 121
Width: 1304
Flags: W
LayerCount: 2
Fore
SplineSet
1229 1163 m 0,0,1
 1186 1120 1186 1120 1150 1063 c 128,-1,2
 1114 1006 1114 1006 1092 938 c 2,3,-1
 860 297 l 2,4,5
 809 152 809 152 700 78 c 0,6,7
 606 12 606 12 496 12 c 0,8,9
 471 12 471 12 431 17.5 c 128,-1,10
 391 23 391 23 391 61 c 0,11,12
 391 84 391 84 430 117 c 0,13,14
 520 211 520 211 565 340 c 2,15,-1
 797 981 l 2,16,17
 801 999 801 999 815 1033 c 128,-1,18
 829 1067 829 1067 844 1094 c 1,19,20
 713 1069 713 1069 661.5 1065 c 128,-1,21
 610 1061 610 1061 549 1061 c 0,22,23
 502 1061 502 1061 422 1077.5 c 128,-1,24
 342 1094 342 1094 311 1108 c 0,25,26
 241 1131 241 1131 242 1174 c 0,27,28
 242 1192 242 1192 258 1217 c 0,29,30
 291 1268 291 1268 338 1268 c 0,31,32
 356 1268 356 1268 393 1256.5 c 128,-1,33
 430 1245 430 1245 446 1241 c 0,34,35
 479 1237 479 1237 530.5 1232 c 128,-1,36
 582 1227 582 1227 641 1227 c 0,37,38
 727 1227 727 1227 795 1241 c 0,39,40
 899 1264 899 1264 909 1264 c 0,41,42
 1003 1272 1003 1272 1098 1280 c 0,43,44
 1170 1280 1170 1280 1212.5 1256.5 c 128,-1,45
 1255 1233 1255 1233 1255 1214 c 256,46,47
 1256 1196 1256 1196 1229 1163 c 0,0,1
EndSplineSet
EndChar

StartChar: eight.taml
Encoding: 122 -1 122
Width: 1142
Flags: W
LayerCount: 2
Fore
SplineSet
926 362 m 0,0,1
 887 174 887 174 733 78 c 0,2,3
 602 -4 602 -4 420 -4 c 0,4,5
 361 -4 361 -4 309 4 c 0,6,7
 178 20 178 20 111.5 90 c 128,-1,8
 45 160 45 160 45 272 c 0,9,10
 45 297 45 297 55 358 c 0,11,12
 78 462 78 462 136.5 532 c 128,-1,13
 195 602 195 602 285 649 c 1,14,15
 240 688 240 688 211 743.5 c 128,-1,16
 182 799 182 799 182 864 c 0,17,18
 182 882 182 882 186 915 c 0,19,20
 215 1054 215 1054 310.5 1149.5 c 128,-1,21
 406 1245 406 1245 565 1268 c 0,22,23
 631 1276 631 1276 684 1276 c 0,24,25
 858 1276 858 1276 942 1199 c 128,-1,26
 1026 1122 1026 1122 1026 999 c 0,27,28
 1026 956 1026 956 1018 913 c 0,29,30
 1000 829 1000 829 928 757.5 c 128,-1,31
 856 686 856 686 760 649 c 1,32,33
 842 612 842 612 881 565 c 0,34,35
 932 506 932 506 932 418 c 0,36,37
 932 387 932 387 926 362 c 0,0,1
655 913 m 0,38,39
 665 974 665 974 666 997 c 0,40,41
 666 1050 666 1050 637 1079 c 128,-1,42
 608 1108 608 1108 535 1108 c 256,43,44
 461 1108 461 1108 417 1053.5 c 128,-1,45
 373 999 373 999 360.5 938 c 128,-1,46
 348 877 348 877 348 846 c 0,47,48
 348 789 348 789 374.5 751 c 128,-1,49
 401 713 401 713 455 713 c 0,50,51
 529 723 529 723 583 780 c 128,-1,52
 637 837 637 837 655 913 c 0,38,39
561 346 m 0,53,54
 565 364 565 364 567 393 c 128,-1,55
 569 422 569 422 569 440 c 0,56,57
 569 510 569 510 538.5 547 c 128,-1,58
 508 584 508 584 434 584 c 0,59,60
 348 584 348 584 296 515 c 128,-1,61
 244 446 244 446 221 342 c 0,62,63
 213 309 213 309 213 281 c 0,64,65
 213 150 213 150 346 150 c 0,66,67
 440 150 440 150 488 201 c 128,-1,68
 536 252 536 252 561 346 c 0,53,54
EndSplineSet
EndChar

StartChar: nine.taml
Encoding: 123 -1 123
Width: 1247
Flags: W
LayerCount: 2
Fore
SplineSet
1104 803 m 0,0,1
 1047 436 1047 436 842 231 c 0,2,3
 604 -2 604 -2 180 -2 c 0,4,5
 78 -2 78 -2 78 68 c 0,6,7
 78 105 78 105 115 131.5 c 128,-1,8
 152 158 152 158 219 158 c 0,9,10
 446 158 446 158 608 260 c 0,11,12
 745 344 745 344 811 487 c 1,13,14
 680 405 680 405 528 406 c 0,15,16
 366 406 366 406 250.5 498 c 128,-1,17
 135 590 135 590 135 727 c 0,18,19
 135 758 135 758 143 791 c 0,20,21
 188 1016 188 1016 293 1130 c 0,22,23
 422 1273 422 1273 668 1274 c 0,24,25
 908 1274 908 1274 1009 1191 c 128,-1,26
 1110 1108 1110 1108 1110 932 c 0,27,28
 1110 903 1110 903 1106 862 c 128,-1,29
 1102 821 1102 821 1104 803 c 0,0,1
913 868 m 0,30,31
 917 907 917 907 918 922 c 0,32,33
 918 1008 918 1008 869.5 1059 c 128,-1,34
 821 1110 821 1110 760 1110 c 0,35,36
 649 1110 649 1110 597 1044.5 c 128,-1,37
 545 979 545 979 514 836 c 0,38,39
 510 813 510 813 510 774 c 0,40,41
 510 698 510 698 554 654 c 128,-1,42
 598 610 598 610 666 606 c 0,43,44
 768 606 768 606 836 688 c 0,45,46
 893 759 893 759 913 868 c 0,30,31
EndSplineSet
EndChar

StartChar: colon.taml
Encoding: 124 -1 124
Width: 673
Flags: W
LayerCount: 2
Fore
SplineSet
684 930 m 0,0,1
 668 848 668 848 595 792.5 c 128,-1,2
 522 737 522 737 434 737 c 0,3,4
 360 737 360 737 313 781 c 128,-1,5
 266 825 266 825 266 893 c 0,6,7
 266 916 266 916 268 928 c 0,8,9
 284 1010 284 1010 358 1066 c 128,-1,10
 432 1122 432 1122 514 1122 c 0,11,12
 588 1122 588 1122 636 1077 c 128,-1,13
 684 1032 684 1032 684 961 c 0,14,15
 684 938 684 938 684 930 c 0,0,1
522 164 m 0,16,17
 504 82 504 82 430 24.5 c 128,-1,18
 356 -33 356 -33 270 -33 c 0,19,20
 198 -33 198 -33 150 10 c 128,-1,21
 102 53 102 53 102 123 c 0,22,23
 102 133 102 133 111.5 187.5 c 128,-1,24
 121 242 121 242 193.5 298 c 128,-1,25
 266 354 266 354 352 354 c 0,26,27
 428 354 428 354 476 309 c 128,-1,28
 524 264 524 264 524 193 c 0,29,30
 524 174 524 174 522 164 c 0,16,17
EndSplineSet
EndChar

StartChar: semicolon.taml
Encoding: 125 -1 125
Width: 673
Flags: W
LayerCount: 2
Fore
SplineSet
668 930 m 0,0,1
 652 848 652 848 576 789.5 c 128,-1,2
 500 731 500 731 414 731 c 0,3,4
 340 731 340 731 295 774 c 128,-1,5
 250 817 250 817 250 893 c 0,6,7
 250 916 250 916 252 928 c 0,8,9
 268 1004 268 1004 344 1063 c 128,-1,10
 420 1122 420 1122 500 1122 c 0,11,12
 574 1122 574 1122 622 1077 c 128,-1,13
 670 1032 670 1032 670 961 c 0,14,15
 670 938 670 938 668 930 c 0,0,1
494 104 m 0,16,17
 461 -64 461 -64 309 -186 c 0,18,19
 112 -346 112 -346 -33 -346 c 1,20,-1
 -10 -246 l 1,21,22
 51 -242 51 -242 168 -154 c 0,23,24
 305 -52 305 -52 324 49 c 1,25,-1
 319 53 l 1,26,27
 301 53 301 53 256 26.5 c 128,-1,28
 211 0 211 0 186 0 c 0,29,30
 141 0 141 0 101 50 c 128,-1,31
 61 100 61 100 61 162 c 0,32,33
 61 180 61 180 63 190 c 0,34,35
 77 264 77 264 149 321.5 c 128,-1,36
 221 379 221 379 297 379 c 0,37,38
 393 379 393 379 447.5 313.5 c 128,-1,39
 502 248 502 248 502 158 c 0,40,41
 502 141 502 141 494 104 c 0,16,17
EndSplineSet
EndChar

StartChar: less.taml
Encoding: 126 -1 126
Width: 1509
Flags: W
LayerCount: 2
Fore
SplineSet
1249 -16 m 1,0,-1
 143 500 l 1,1,-1
 176 662 l 1,2,-1
 1499 1174 l 1,3,-1
 1456 973 l 1,4,-1
 444 578 l 1,5,-1
 1290 182 l 1,6,-1
 1249 -16 l 1,0,-1
EndSplineSet
EndChar

StartChar: equal.taml
Encoding: 127 -1 127
Width: 1615
Flags: W
LayerCount: 2
Fore
SplineSet
1593 840 m 1,0,-1
 379 840 l 1,1,-1
 418 1028 l 1,2,-1
 1632 1028 l 1,3,-1
 1593 840 l 1,0,-1
1503 422 m 1,4,-1
 289 422 l 1,5,-1
 328 610 l 1,6,-1
 1542 610 l 1,7,-1
 1503 422 l 1,4,-1
EndSplineSet
EndChar

StartChar: greater.taml
Encoding: 128 -1 128
Width: 1509
Flags: W
LayerCount: 2
Fore
SplineSet
1358 498 m 1,0,-1
 35 -18 l 1,1,-1
 78 182 l 1,2,-1
 1090 578 l 1,3,-1
 244 973 l 1,4,-1
 287 1174 l 1,5,-1
 1393 662 l 1,6,-1
 1358 498 l 1,0,-1
EndSplineSet
EndChar

StartChar: question.taml
Encoding: 129 -1 129
Width: 1140
Flags: W
LayerCount: 2
Fore
SplineSet
1104 897 m 1,0,1
 1088 821 1088 821 1001 707 c 0,2,3
 933 617 933 617 852 541 c 0,4,5
 733 432 733 432 676 356 c 0,6,7
 604 260 604 260 551 115 c 1,8,-1
 457 115 l 1,9,10
 473 197 473 197 513 292 c 128,-1,11
 553 387 553 387 600 463 c 2,12,-1
 696 606 l 2,13,14
 747 692 747 692 780 764 c 0,15,16
 827 864 827 864 836.5 909 c 128,-1,17
 846 954 846 954 846 991 c 0,18,19
 846 1067 846 1067 803 1119 c 128,-1,20
 760 1171 760 1171 670 1171 c 0,21,22
 604 1171 604 1171 539.5 1140.5 c 128,-1,23
 475 1110 475 1110 465 1065 c 0,24,25
 461 1042 461 1042 479 1012 c 0,26,27
 524 940 524 940 516 901 c 0,28,29
 506 858 506 858 470 822 c 128,-1,30
 434 786 434 786 375 786 c 0,31,32
 260 786 260 786 260 895 c 0,33,34
 260 913 260 913 264 946 c 0,35,36
 297 1112 297 1112 457 1208 c 0,37,38
 590 1290 590 1290 737 1290 c 0,39,40
 837 1290 837 1290 931.5 1249 c 128,-1,41
 1026 1208 1026 1208 1063 1157 c 0,42,43
 1110 1075 1110 1075 1110 1004 c 0,44,45
 1110 975 1110 975 1105 947.5 c 128,-1,46
 1100 920 1100 920 1104 897 c 1,0,1
598 -129 m 0,47,48
 584 -197 584 -197 529.5 -232.5 c 128,-1,49
 475 -268 475 -268 418 -268 c 0,50,51
 373 -268 373 -268 333 -239.5 c 128,-1,52
 293 -211 293 -211 293 -158 c 0,53,54
 293 -142 293 -142 300 -106 c 128,-1,55
 307 -70 307 -70 361.5 -27 c 128,-1,56
 416 16 416 16 477 16 c 0,57,58
 530 16 530 16 564 -17.5 c 128,-1,59
 598 -51 598 -51 598 -98 c 0,60,61
 598 -117 598 -117 598 -129 c 0,47,48
EndSplineSet
EndChar

StartChar: uni0952
Encoding: 133 2386 133
Width: 26
Flags: W
LayerCount: 2
Fore
SplineSet
-825 -326 m 1,0,-1
 -1810 -326 l 1,1,-1
 -1888 -135 l 1,2,-1
 -903 -135 l 1,3,-1
 -825 -326 l 1,0,-1
EndSplineSet
EndChar

StartChar: u0B83
Encoding: 136 2947 136
Width: 1751
Flags: W
LayerCount: 2
Fore
SplineSet
1294 1042 m 0,0,1
 1276 942 1276 942 1185 870.5 c 128,-1,2
 1094 799 1094 799 989 799 c 0,3,4
 895 799 895 799 836.5 854 c 128,-1,5
 778 909 778 909 778 991 c 0,6,7
 778 1005 778 1005 782 1038 c 0,8,9
 805 1136 805 1136 896 1209 c 128,-1,10
 987 1282 987 1282 1092 1282 c 0,11,12
 1182 1282 1182 1282 1240 1226.5 c 128,-1,13
 1298 1171 1298 1171 1298 1085 c 0,14,15
 1298 1071 1298 1071 1294 1042 c 0,0,1
1485 238 m 0,16,17
 1467 140 1467 140 1375.5 68 c 128,-1,18
 1284 -4 1284 -4 1180 -4 c 0,19,20
 1086 -4 1086 -4 1027.5 51 c 128,-1,21
 969 106 969 106 969 188 c 0,22,23
 969 202 969 202 973 236 c 0,24,25
 996 338 996 338 1083.5 409.5 c 128,-1,26
 1171 481 1171 481 1280 481 c 0,27,28
 1370 481 1370 481 1429.5 424 c 128,-1,29
 1489 367 1489 367 1489 281 c 0,30,31
 1489 271 1489 271 1485 238 c 0,16,17
711 238 m 0,32,33
 693 140 693 140 601.5 68 c 128,-1,34
 510 -4 510 -4 406 -4 c 0,35,36
 312 -4 312 -4 253.5 51 c 128,-1,37
 195 106 195 106 195 188 c 0,38,39
 195 202 195 202 199 236 c 0,40,41
 222 338 222 338 309.5 409.5 c 128,-1,42
 397 481 397 481 506 481 c 0,43,44
 596 481 596 481 655.5 424 c 128,-1,45
 715 367 715 367 715 281 c 0,46,47
 715 271 715 271 711 238 c 0,32,33
EndSplineSet
EndChar

StartChar: u0B85
Encoding: 137 2949 137
Width: 2603
Flags: HW
AnchorPoint: "V" 1319 1305 basechar 0
AnchorPoint: "N" 1319 -87.4426 basechar 0
LayerCount: 2
Fore
SplineSet
2540 1219 m 1,0,1
 2444 1094 2444 1094 2406 918 c 2,2,-1
 2241 141 l 2,3,4
 2202 -56 2202 -56 2056 -166 c 0,5,6
 1933 -260 1933 -260 1786 -260 c 0,7,8
 1704 -260 1704 -260 1704 -215 c 0,9,10
 1704 -192 1704 -192 1744 -141 c 128,-1,11
 1784 -90 1784 -90 1822 -13.5 c 128,-1,12
 1860 63 1860 63 1876 147 c 2,13,-1
 1921 358 l 1,14,15
 1868 333 1868 333 1802.5 318 c 128,-1,16
 1737 303 1737 303 1661 303 c 1,17,18
 1528 113 1528 113 1255.5 -20.5 c 128,-1,19
 983 -154 983 -154 664 -154 c 0,20,21
 318 -154 318 -154 156 18 c 0,22,23
 47 131 47 131 47 276 c 0,24,25
 47 299 47 299 49 303 c 0,26,27
 65 383 65 383 126.5 424 c 128,-1,28
 188 465 188 465 276 465 c 2,29,-1
 1366 465 l 1,30,31
 1391 516 1391 516 1421 616 c 0,32,33
 1444 688 1444 688 1458.5 757.5 c 128,-1,34
 1473 827 1473 827 1473 889 c 0,35,36
 1473 1008 1473 1008 1420.5 1063 c 128,-1,37
 1368 1118 1368 1118 1280 1118 c 2,38,-1
 1235 1116 l 1,39,40
 1280 1087 1280 1087 1308.5 1044 c 128,-1,41
 1337 1001 1337 1001 1337 934 c 0,42,43
 1337 901 1337 901 1328 849 c 128,-1,44
 1319 797 1319 797 1280 735 c 0,45,46
 1233 655 1233 655 1161 616 c 0,47,48
 1079 563 1079 563 934 563 c 0,49,50
 838 563 838 563 782.5 621.5 c 128,-1,51
 727 680 727 680 727 770 c 0,52,53
 727 799 727 799 735 831 c 0,54,55
 780 1056 780 1056 956.5 1172 c 128,-1,56
 1133 1288 1133 1288 1372 1288 c 0,57,58
 1845 1288 1845 1288 1845 862 c 0,59,60
 1845 782 1845 782 1823 674 c 0,61,62
 1815 637 1815 637 1798.5 572.5 c 128,-1,63
 1782 508 1782 508 1767 465 c 1,64,65
 1884 465 1884 465 1972 530 c 1,66,-1
 2052 920 l 2,67,68
 2095 1121 2095 1121 2241 1231 c 0,69,70
 2366 1327 2366 1327 2511 1327 c 0,71,72
 2591 1327 2591 1327 2591 1284 c 0,73,74
 2591 1254 2591 1254 2540 1219 c 1,0,1
1069 862 m 0,75,76
 1073 895 1073 895 1073 918 c 0,77,78
 1073 957 1073 957 1062 980.5 c 128,-1,79
 1051 1004 1051 1004 1022 1006 c 1,80,81
 979 996 979 996 945 944.5 c 128,-1,82
 911 893 911 893 897 834 c 0,83,84
 895 824 895 824 895 801 c 0,85,86
 895 725 895 725 956 725 c 0,87,88
 995 725 995 725 1024 762 c 128,-1,89
 1053 799 1053 799 1069 862 c 0,75,76
1262 297 m 1,90,-1
 358 297 l 2,91,92
 333 297 333 297 317 280.5 c 128,-1,93
 301 264 301 264 297 240 c 0,94,95
 281 154 281 154 362 88 c 0,96,97
 464 8 464 8 684 8 c 0,98,99
 864 8 864 8 1024 98 c 0,100,101
 1151 172 1151 172 1262 297 c 1,90,-1
EndSplineSet
EndChar

StartChar: u0B86
Encoding: 138 2950 138
Width: 3012
Flags: HW
AnchorPoint: "V" 1391.5 1305 basechar 0
AnchorPoint: "N" 1391.5 -539.404 basechar 0
LayerCount: 2
Fore
SplineSet
2738 186 m 1,0,1
 2664 -162 2664 -162 2349 -360 c 0,2,3
 2066 -540 2066 -540 1706 -541 c 0,4,5
 1432 -541 1432 -541 1255 -481 c 0,6,7
 1054 -413 1054 -413 1055 -285 c 0,8,9
 1055 -262 1055 -262 1057 -250 c 0,10,11
 1073 -162 1073 -162 1156 -115 c 128,-1,12
 1239 -68 1239 -68 1350 -68 c 0,13,14
 1418 -68 1418 -68 1476 -77 c 128,-1,15
 1534 -86 1534 -86 1581 -109 c 0,16,17
 1597 -123 1597 -123 1597 -139 c 0,18,19
 1597 -168 1597 -168 1570.5 -191.5 c 128,-1,20
 1544 -215 1544 -215 1511 -215 c 0,21,22
 1501 -215 1501 -215 1481.5 -208 c 128,-1,23
 1462 -201 1462 -201 1410 -193.5 c 128,-1,24
 1358 -186 1358 -186 1325 -186 c 0,25,26
 1266 -186 1266 -186 1229 -195.5 c 128,-1,27
 1192 -205 1192 -205 1188 -233 c 0,28,29
 1172 -315 1172 -315 1311 -348 c 0,30,31
 1413 -373 1413 -373 1589 -373 c 0,32,33
 1949 -373 1949 -373 2179 -213 c 0,34,35
 2384 -70 2384 -70 2431 156 c 0,36,37
 2435 195 2435 195 2435 209 c 0,38,39
 2435 334 2435 334 2345 334 c 0,40,41
 2312 334 2312 334 2281 311 c 1,42,-1
 2245 137 l 2,43,44
 2200 -66 2200 -66 2060 -174 c 0,45,46
 1937 -268 1937 -268 1790 -268 c 0,47,48
 1708 -268 1708 -268 1708 -221 c 0,49,50
 1708 -196 1708 -196 1741 -158 c 0,51,52
 1841 -39 1841 -39 1878 141 c 2,53,-1
 1923 352 l 1,54,55
 1876 327 1876 327 1807.5 312 c 128,-1,56
 1739 297 1739 297 1665 297 c 1,57,58
 1532 107 1532 107 1270 -23 c 0,59,60
 985 -162 985 -162 670 -162 c 0,61,62
 379 -162 379 -162 217 -37 c 0,63,64
 20 117 20 117 53 299 c 0,65,66
 69 379 69 379 131 420 c 128,-1,67
 193 461 193 461 281 461 c 2,68,-1
 1370 461 l 1,69,70
 1399 518 1399 518 1430 612 c 0,71,72
 1448 671 1448 671 1463.5 748 c 128,-1,73
 1479 825 1479 825 1479 887 c 0,74,75
 1479 1004 1479 1004 1424.5 1061 c 128,-1,76
 1370 1118 1370 1118 1282 1118 c 2,77,-1
 1239 1116 l 1,78,79
 1284 1091 1284 1091 1312.5 1047.5 c 128,-1,80
 1341 1004 1341 1004 1341 936 c 0,81,82
 1341 903 1341 903 1333 860 c 0,83,84
 1317 788 1317 788 1284 735 c 0,85,86
 1237 659 1237 659 1163 616 c 0,87,88
 1081 559 1081 559 936 559 c 0,89,90
 836 559 836 559 783.5 617.5 c 128,-1,91
 731 676 731 676 731 766 c 0,92,93
 731 797 731 797 739 829 c 0,94,95
 784 1054 784 1054 960.5 1170 c 128,-1,96
 1137 1286 1137 1286 1376 1286 c 0,97,98
 1609 1286 1609 1286 1728 1177.5 c 128,-1,99
 1847 1069 1847 1069 1847 864 c 0,100,101
 1847 782 1847 782 1825 674 c 0,102,103
 1817 623 1817 623 1809.5 597 c 128,-1,104
 1802 571 1802 571 1765 463 c 1,105,106
 1876 463 1876 463 1970 530 c 1,107,-1
 2052 920 l 2,108,109
 2095 1121 2095 1121 2241 1235 c 0,110,111
 2364 1331 2364 1331 2511 1331 c 0,112,113
 2587 1331 2587 1331 2587 1286 c 0,114,115
 2587 1257 2587 1257 2554 1219 c 0,116,117
 2458 1096 2458 1096 2421 913 c 2,118,-1
 2331 487 l 1,119,120
 2413 532 2413 532 2509 532 c 0,121,122
 2618 532 2618 532 2690.5 470 c 128,-1,123
 2763 408 2763 408 2763 283 c 0,124,125
 2763 260 2763 260 2738 186 c 1,0,1
1069 866 m 0,126,127
 1073 899 1073 899 1073 922 c 0,128,129
 1073 961 1073 961 1062 984.5 c 128,-1,130
 1051 1008 1051 1008 1022 1010 c 0,131,132
 983 1002 983 1002 946 949.5 c 128,-1,133
 909 897 909 897 902 861 c 128,-1,134
 895 825 895 825 895 803 c 0,135,136
 895 766 895 766 909.5 744.5 c 128,-1,137
 924 723 924 723 956 723 c 0,138,139
 999 723 999 723 1026 759.5 c 128,-1,140
 1053 796 1053 796 1069 866 c 0,126,127
1262 295 m 1,141,-1
 358 295 l 2,142,143
 335 295 335 295 317 278.5 c 128,-1,144
 299 262 299 262 291 238 c 0,145,146
 275 152 275 152 356 86 c 0,147,148
 460 4 460 4 678 4 c 0,149,150
 854 4 854 4 1016 98 c 0,151,152
 1147 172 1147 172 1262 295 c 1,141,-1
EndSplineSet
EndChar

StartChar: u0B87
Encoding: 139 2951 139
Width: 2166
Flags: HW
AnchorPoint: "V" 1026 1763.72 basechar 0
AnchorPoint: "N" 1026 -444.008 basechar 0
LayerCount: 2
Fore
SplineSet
2091 1069 m 0,0,1
 2073 973 2073 973 2036 867.5 c 128,-1,2
 1999 762 1999 762 1952 659 c 1,3,4
 1948 622 1948 622 1957 591.5 c 128,-1,5
 1966 561 1966 561 1966 551 c 0,6,7
 1966 535 1966 535 1962 511 c 128,-1,8
 1958 487 1958 487 1922 457.5 c 128,-1,9
 1886 428 1886 428 1843 428 c 0,10,11
 1804 428 1804 428 1782.5 456.5 c 128,-1,12
 1761 485 1761 485 1761 530 c 0,13,14
 1761 548 1761 548 1775.5 586.5 c 128,-1,15
 1790 625 1790 625 1809.5 686.5 c 128,-1,16
 1829 748 1829 748 1841 810 c 128,-1,17
 1853 872 1853 872 1853 948 c 0,18,19
 1853 1173 1853 1173 1720 1311 c 0,20,21
 1577 1456 1577 1456 1317 1456 c 0,22,23
 936 1456 936 1456 668 1204 c 0,24,25
 430 981 430 981 358 647 c 0,26,27
 342 561 342 561 342 485 c 0,28,29
 342 383 342 383 367 293 c 1,30,31
 521 361 521 361 722.5 390.5 c 128,-1,32
 924 420 924 420 1147 420 c 1,33,34
 1184 496 1184 496 1207.5 571.5 c 128,-1,35
 1231 647 1231 647 1247 721 c 0,36,37
 1255 750 1255 750 1257.5 783.5 c 128,-1,38
 1260 817 1260 817 1260 854 c 0,39,40
 1260 956 1260 956 1223 1010 c 0,41,42
 1178 1076 1178 1076 1090 1075 c 2,43,-1
 1047 1075 l 1,44,45
 1086 1050 1086 1050 1109.5 1007.5 c 128,-1,46
 1133 965 1133 965 1133 897 c 0,47,48
 1133 864 1133 864 1123.5 810 c 128,-1,49
 1114 756 1114 756 1069 688 c 0,50,51
 1016 608 1016 608 948 569 c 0,52,53
 866 516 866 516 721 516 c 0,54,55
 625 516 625 516 573.5 573.5 c 128,-1,56
 522 631 522 631 522 719 c 0,57,58
 522 750 522 750 530 788 c 0,59,60
 577 1005 577 1005 754 1135 c 0,61,62
 916 1252 916 1252 1124 1251 c 0,63,64
 1370 1251 1370 1251 1489 1165 c 0,65,66
 1626 1069 1626 1069 1626 854 c 0,67,68
 1626 780 1626 780 1604 666 c 0,69,70
 1571 506 1571 506 1481 340 c 1,71,72
 1571 295 1571 295 1622 225.5 c 128,-1,73
 1673 156 1673 156 1673 59 c 0,74,75
 1673 34 1673 34 1663 -27 c 0,76,77
 1624 -217 1624 -217 1464 -326 c 0,78,79
 1290 -445 1290 -445 995 -444 c 0,80,81
 821 -444 821 -444 668 -365 c 1,82,83
 453 -445 453 -445 240 -444 c 0,84,85
 93 -444 93 -444 17 -383 c 128,-1,86
 -59 -322 -59 -322 -59 -217 c 0,87,88
 -59 -184 -59 -184 -51 -145 c 0,89,90
 -8 60 -8 60 195 199 c 1,91,92
 177 267 177 267 168.5 346.5 c 128,-1,93
 160 426 160 426 160 500 c 0,94,95
 160 637 160 637 178 737 c 0,96,97
 223 954 223 954 319 1143 c 0,98,99
 464 1430 464 1430 702 1602 c 0,100,101
 1005 1821 1005 1821 1425 1821 c 0,102,103
 1728 1821 1728 1821 1919.5 1665 c 128,-1,104
 2111 1509 2111 1509 2111 1235 c 0,105,106
 2111 1159 2111 1159 2091 1069 c 0,0,1
868 821 m 0,107,108
 868 831 868 831 872.5 857 c 128,-1,109
 877 883 877 883 877 897 c 0,110,111
 877 969 877 969 834 969 c 0,112,113
 791 961 791 961 750 906.5 c 128,-1,114
 709 852 709 852 700.5 809 c 128,-1,115
 692 766 692 766 692 752 c 0,116,117
 692 680 692 680 745 680 c 0,118,119
 788 680 788 680 821 717.5 c 128,-1,120
 854 755 854 755 868 821 c 0,107,108
1399 -72 m 0,121,122
 1403 -43 1403 -43 1403 -29 c 0,123,124
 1403 47 1403 47 1341 123 c 1,125,126
 1247 6 1247 6 1135.5 -93.5 c 128,-1,127
 1024 -193 1024 -193 895 -266 c 1,128,129
 967 -280 967 -280 1042 -281 c 0,130,131
 1194 -281 1194 -281 1287.5 -221.5 c 128,-1,132
 1381 -162 1381 -162 1399 -72 c 0,121,122
1063 256 m 1,133,134
 1020 264 1020 264 963 264 c 0,135,136
 836 264 836 264 697.5 229.5 c 128,-1,137
 559 195 559 195 430 123 c 1,138,139
 477 37 477 37 549 -43 c 0,140,141
 610 -111 610 -111 684 -168 c 1,142,143
 795 -88 795 -88 889 19.5 c 128,-1,144
 983 127 983 127 1063 256 c 1,133,134
496 -268 m 1,145,146
 428 -211 428 -211 366.5 -135 c 128,-1,147
 305 -59 305 -59 272 6 c 1,148,149
 200 -68 200 -68 191 -123 c 128,-1,150
 182 -178 182 -178 182 -193 c 0,151,152
 182 -240 182 -240 209 -269.5 c 128,-1,153
 236 -299 236 -299 291 -299 c 0,154,155
 352 -299 352 -299 400.5 -289.5 c 128,-1,156
 449 -280 449 -280 496 -268 c 1,145,146
EndSplineSet
EndChar

StartChar: u0B88
Encoding: 140 2952 140
Width: 1796
Flags: HW
AnchorPoint: "V" 807 1305 basechar 0
AnchorPoint: "N" 807 4 basechar 0
LayerCount: 2
Fore
SplineSet
1614 621 m 0,0,1
 1604 560 1604 560 1541.5 511.5 c 128,-1,2
 1479 463 1479 463 1413 463 c 0,3,4
 1354 463 1354 463 1316 501 c 128,-1,5
 1278 539 1278 539 1278 596 c 0,6,7
 1278 612 1278 612 1280 621 c 0,8,9
 1294 682 1294 682 1353.5 730 c 128,-1,10
 1413 778 1413 778 1481 778 c 0,11,12
 1538 778 1538 778 1578 738 c 128,-1,13
 1618 698 1618 698 1618 645 c 0,14,15
 1618 629 1618 629 1614 621 c 0,0,1
1432 1124 m 0,16,17
 1346 1091 1346 1091 1288 1001 c 0,18,19
 1243 927 1243 927 1204 799 c 0,20,21
 1188 740 1188 740 1158 624 c 128,-1,22
 1128 508 1128 508 1106 397 c 0,23,24
 1065 198 1065 198 926 94 c 0,25,26
 803 4 803 4 655 4 c 0,27,28
 573 4 573 4 573 49 c 0,29,30
 573 74 573 74 606 113 c 0,31,32
 706 236 706 236 743 408 c 2,33,-1
 844 813 l 2,34,35
 869 901 869 901 901.5 969.5 c 128,-1,36
 934 1038 934 1038 985 1106 c 1,37,38
 891 1124 891 1124 780 1124 c 0,39,40
 633 1124 633 1124 550 1052.5 c 128,-1,41
 467 981 467 981 430 813 c 0,42,43
 369 512 369 512 324 379 c 0,44,45
 263 195 263 195 160 63 c 0,46,47
 135 30 135 30 104.5 14 c 128,-1,48
 74 -2 74 -2 49 -2 c 0,49,50
 -4 -2 -4 -2 -4 45 c 0,51,52
 -4 84 -4 84 35 131 c 0,53,54
 123 242 123 242 178 442 c 0,55,56
 201 522 201 522 274 868 c 0,57,58
 311 1042 311 1042 412 1141 c 0,59,60
 557 1286 557 1286 825 1286 c 0,61,62
 934 1286 934 1286 1034 1270 c 0,63,64
 1267 1231 1267 1231 1270 1231 c 0,65,66
 1342 1231 1342 1231 1423 1270 c 0,67,68
 1470 1295 1470 1295 1501 1294 c 0,69,70
 1552 1294 1552 1294 1552 1247 c 0,71,72
 1552 1216 1552 1216 1523.5 1182.5 c 128,-1,73
 1495 1149 1495 1149 1432 1124 c 0,16,17
762 625 m 0,74,75
 752 564 752 564 689.5 515.5 c 128,-1,76
 627 467 627 467 561 467 c 0,77,78
 502 467 502 467 464 505 c 128,-1,79
 426 543 426 543 426 600 c 0,80,81
 426 616 426 616 428 625 c 0,82,83
 442 686 442 686 501.5 734 c 128,-1,84
 561 782 561 782 629 782 c 0,85,86
 686 782 686 782 726 742 c 128,-1,87
 766 702 766 702 766 649 c 0,88,89
 766 633 766 633 762 625 c 0,74,75
EndSplineSet
EndChar

StartChar: u0B89
Encoding: 141 2953 141
Width: 2766
Flags: HW
AnchorPoint: "V" 1284 1305 basechar 0
AnchorPoint: "N" 1284 16.5064 basechar 0
LayerCount: 2
Fore
SplineSet
2447 68 m 0,0,1
 2365 31 2365 31 2278 15.5 c 128,-1,2
 2191 0 2191 0 2066 0 c 0,3,4
 1970 0 1970 0 1626 12.5 c 128,-1,5
 1282 25 1282 25 1151 25 c 0,6,7
 946 25 946 25 697.5 13.5 c 128,-1,8
 449 2 449 2 168 -8 c 0,9,10
 102 -8 102 -8 66 14 c 0,11,12
 13 45 13 45 12 121 c 0,13,14
 12 154 12 154 16 172 c 0,15,16
 47 317 47 317 424 346 c 0,17,18
 557 350 557 350 694 358 c 1,19,20
 895 387 895 387 1004 516 c 0,21,22
 1090 616 1090 616 1126 784 c 0,23,24
 1130 802 1130 802 1132.5 831 c 128,-1,25
 1135 860 1135 860 1135 883 c 0,26,27
 1135 992 1135 992 1073.5 1053 c 128,-1,28
 1012 1114 1012 1114 901 1114 c 0,29,30
 821 1114 821 1114 745.5 1098.5 c 128,-1,31
 670 1083 670 1083 602 1051 c 1,32,-1
 633 1053 l 2,33,34
 721 1053 721 1053 779.5 997.5 c 128,-1,35
 838 942 838 942 838 852 c 0,36,37
 838 813 838 813 834 795 c 0,38,39
 797 615 797 615 715 526 c 0,40,41
 615 417 615 417 432 418 c 0,42,43
 215 418 215 418 215 659 c 0,44,45
 215 720 215 720 231 797 c 0,46,47
 274 994 274 994 449 1126 c 0,48,49
 646 1278 646 1278 928 1278 c 0,50,51
 1233 1278 1233 1278 1380 1153 c 0,52,53
 1503 1049 1503 1049 1503 874 c 0,54,55
 1503 845 1503 845 1499 815.5 c 128,-1,56
 1495 786 1495 786 1493 770 c 0,57,58
 1460 612 1460 612 1389 504 c 0,59,60
 1309 385 1309 385 1171 313 c 0,61,62
 944 190 944 190 496 190 c 0,63,64
 453 190 453 190 417 189 c 128,-1,65
 381 188 381 188 373 164 c 1,66,67
 459 162 459 162 625 170 c 0,68,69
 1078 188 1078 188 1180 188 c 0,70,71
 1332 188 1332 188 1572 179 c 128,-1,72
 1812 170 1812 170 2071 162 c 0,73,74
 2167 162 2167 162 2233.5 176 c 128,-1,75
 2300 190 2300 190 2362.5 219 c 128,-1,76
 2425 248 2425 248 2476 248 c 0,77,78
 2556 248 2556 248 2556 186 c 0,79,80
 2556 153 2556 153 2529 123 c 128,-1,81
 2502 93 2502 93 2447 68 c 0,0,1
526 760 m 0,82,83
 530 789 530 789 530 799 c 0,84,85
 530 856 530 856 473 856 c 0,86,87
 436 856 436 856 418 813 c 0,88,89
 414 803 414 803 399 750 c 0,90,91
 391 699 391 699 391 666 c 0,92,93
 391 607 391 607 428 606 c 0,94,95
 473 606 473 606 496 651 c 0,96,97
 510 680 510 680 526 760 c 0,82,83
EndSplineSet
EndChar

StartChar: u0B8A
Encoding: 142 2954 142
Width: 3641
Flags: HW
AnchorPoint: "V" 1809.5 1305 basechar 0
AnchorPoint: "N" 1809.5 19.159 basechar 0
LayerCount: 2
Fore
SplineSet
3551 1149 m 0,0,1
 3485 1124 3485 1124 3441 1051 c 0,2,3
 3410 998 3410 998 3377 893 c 0,4,5
 3363 850 3363 850 3341.5 763 c 128,-1,6
 3320 676 3320 676 3297 571 c 0,7,8
 3264 411 3264 411 3135 324 c 0,9,10
 3024 248 3024 248 2900 248 c 0,11,12
 2863 248 2863 248 2837.5 264.5 c 128,-1,13
 2812 281 2812 281 2812 305 c 0,14,15
 2812 321 2812 321 2828 344 c 0,16,17
 2904 434 2904 434 2935 573 c 2,18,-1
 3017 903 l 2,19,20
 3033 964 3033 964 3052.5 1014.5 c 128,-1,21
 3072 1065 3072 1065 3105 1112 c 1,22,23
 3029 1126 3029 1126 2941 1126 c 1,24,25
 2880 1101 2880 1101 2850 1047 c 128,-1,26
 2820 993 2820 993 2789 891 c 0,27,28
 2775 848 2775 848 2753.5 761 c 128,-1,29
 2732 674 2732 674 2710 569 c 0,30,31
 2677 413 2677 413 2546 324 c 0,32,33
 2435 248 2435 248 2312 248 c 0,34,35
 2224 248 2224 248 2224 305 c 0,36,37
 2224 323 2224 323 2241 346 c 0,38,39
 2315 432 2315 432 2345 578 c 2,40,-1
 2427 907 l 2,41,42
 2437 944 2437 944 2446.5 974 c 128,-1,43
 2456 1004 2456 1004 2472 1028 c 1,44,45
 2443 1067 2443 1067 2378.5 1097.5 c 128,-1,46
 2314 1128 2314 1128 2241 1128 c 0,47,48
 2130 1128 2130 1128 2027.5 1070 c 128,-1,49
 1925 1012 1925 1012 1858 918 c 1,50,51
 1915 936 1915 936 1974 936 c 0,52,53
 2064 936 2064 936 2125.5 886 c 128,-1,54
 2187 836 2187 836 2187 733 c 0,55,56
 2187 708 2187 708 2177 647 c 0,57,58
 2138 465 2138 465 2052 371 c 0,59,60
 1948 254 1948 254 1767 254 c 0,61,62
 1552 254 1552 254 1552 487 c 0,63,64
 1552 534 1552 534 1554 561 c 128,-1,65
 1556 588 1556 588 1571 649 c 0,66,67
 1630 936 1630 936 1827.5 1113 c 128,-1,68
 2025 1290 2025 1290 2292 1290 c 0,69,70
 2394 1290 2394 1290 2473 1259.5 c 128,-1,71
 2552 1229 2552 1229 2595 1184 c 1,72,73
 2661 1237 2661 1237 2752 1263.5 c 128,-1,74
 2843 1290 2843 1290 2968 1290 c 0,75,76
 3056 1290 3056 1290 3151 1276 c 128,-1,77
 3246 1262 3246 1262 3357 1247 c 0,78,79
 3414 1247 3414 1247 3480 1276 c 0,80,81
 3513 1292 3513 1292 3541 1292 c 0,82,83
 3572 1292 3572 1292 3594.5 1272.5 c 128,-1,84
 3617 1253 3617 1253 3617 1229 c 0,85,86
 3617 1182 3617 1182 3551 1149 c 0,0,1
3211 74 m 0,87,88
 3129 37 3129 37 3042 21.5 c 128,-1,89
 2955 6 2955 6 2830 6 c 0,90,91
 2721 6 2721 6 2583 8 c 128,-1,92
 2445 10 2445 10 2022 19.5 c 128,-1,93
 1599 29 1599 29 1542 29 c 0,94,95
 1317 29 1317 29 946 17.5 c 128,-1,96
 575 6 575 6 158 -4 c 0,97,98
 92 -4 92 -4 55 18 c 0,99,100
 2 49 2 49 2 125 c 0,101,102
 2 158 2 158 6 176 c 0,103,104
 37 321 37 321 414 350 c 0,105,106
 547 354 547 354 684 362 c 1,107,108
 881 391 881 391 991 522 c 0,109,110
 1077 624 1077 624 1114 786 c 0,111,112
 1118 804 1118 804 1120 833 c 128,-1,113
 1122 862 1122 862 1122 885 c 0,114,115
 1122 994 1122 994 1060.5 1055 c 128,-1,116
 999 1116 999 1116 889 1116 c 0,117,118
 809 1116 809 1116 733 1100.5 c 128,-1,119
 657 1085 657 1085 590 1053 c 1,120,-1
 621 1055 l 2,121,122
 709 1055 709 1055 767 999.5 c 128,-1,123
 825 944 825 944 825 854 c 0,124,125
 825 815 825 815 821 797 c 0,126,127
 784 617 784 617 702 528 c 0,128,129
 602 419 602 419 420 420 c 0,130,131
 203 420 203 420 203 662 c 0,132,133
 203 723 203 723 219 799 c 0,134,135
 262 996 262 996 436 1128 c 0,136,137
 633 1280 633 1280 915 1280 c 0,138,139
 1220 1280 1220 1280 1368 1155 c 0,140,141
 1491 1051 1491 1051 1491 877 c 0,142,143
 1491 848 1491 848 1487 818 c 128,-1,144
 1483 788 1483 788 1481 772 c 0,145,146
 1448 614 1448 614 1376 506 c 0,147,148
 1296 387 1296 387 1159 315 c 0,149,150
 930 192 930 192 481 193 c 0,151,152
 438 193 438 193 402.5 191.5 c 128,-1,153
 367 190 367 190 358 166 c 1,154,-1
 389 166 l 2,155,156
 563 166 563 166 869.5 173 c 128,-1,157
 1176 180 1176 180 1565 190 c 0,158,159
 1719 190 1719 190 2079 181 c 128,-1,160
 2439 172 2439 172 2826 164 c 0,161,162
 2922 164 2922 164 2989 178.5 c 128,-1,163
 3056 193 3056 193 3118.5 221.5 c 128,-1,164
 3181 250 3181 250 3232 250 c 0,165,166
 3312 250 3312 250 3312 188 c 0,167,168
 3312 155 3312 155 3285 124.5 c 128,-1,169
 3258 94 3258 94 3211 74 c 0,87,88
1839 594 m 0,170,171
 1843 633 1843 633 1843 647 c 0,172,173
 1843 694 1843 694 1796 694 c 0,174,175
 1753 694 1753 694 1731 651 c 0,176,177
 1723 633 1723 633 1711.5 582.5 c 128,-1,178
 1700 532 1700 532 1700 487 c 0,179,180
 1700 434 1700 434 1737 434 c 0,181,182
 1782 434 1782 434 1806 481 c 0,183,184
 1821 506 1821 506 1839 594 c 0,170,171
506 758 m 0,185,186
 510 787 510 787 510 797 c 0,187,188
 510 854 510 854 453 854 c 0,189,190
 416 854 416 854 397 811 c 0,191,192
 393 801 393 801 379 748 c 0,193,194
 371 697 371 697 371 664 c 0,195,196
 371 605 371 605 408 604 c 0,197,198
 451 604 451 604 475 651 c 0,199,200
 490 680 490 680 506 758 c 0,185,186
EndSplineSet
EndChar

StartChar: u0B8E
Encoding: 143 2958 143
Width: 1808
Flags: HW
AnchorPoint: "V" 942 1305 basechar 0
AnchorPoint: "N" 942 0 basechar 0
LayerCount: 2
Fore
SplineSet
1716 1126 m 0,0,1
 1630 1093 1630 1093 1573 1004 c 0,2,3
 1528 930 1528 930 1489 799 c 0,4,5
 1473 740 1473 740 1443 624 c 128,-1,6
 1413 508 1413 508 1391 397 c 0,7,8
 1348 194 1348 194 1204 90 c 0,9,10
 1081 0 1081 0 934 0 c 0,11,12
 852 0 852 0 852 45 c 0,13,14
 852 70 852 70 885 109 c 0,15,16
 985 232 985 232 1022 403 c 0,17,18
 1045 514 1045 514 1070.5 613.5 c 128,-1,19
 1096 713 1096 713 1122.5 806 c 128,-1,20
 1149 899 1149 899 1181.5 968.5 c 128,-1,21
 1214 1038 1214 1038 1266 1106 c 1,22,23
 1172 1124 1172 1124 1026 1124 c 0,24,25
 823 1124 823 1124 657.5 1041 c 128,-1,26
 492 958 492 958 387 815 c 1,27,28
 418 825 418 825 459 833.5 c 128,-1,29
 500 842 500 842 530 842 c 0,30,31
 663 842 663 842 747 779.5 c 128,-1,32
 831 717 831 717 831 584 c 0,33,34
 831 555 831 555 831 526 c 0,35,36
 823 497 823 497 821 487 c 0,37,38
 774 264 774 264 672 147 c 0,39,40
 543 4 543 4 324 4 c 0,41,42
 58 4 58 4 57 293 c 0,43,44
 57 383 57 383 82 494 c 0,45,46
 156 850 156 850 408 1061 c 0,47,48
 674 1284 674 1284 1065 1284 c 0,49,50
 1212 1284 1212 1284 1321 1265.5 c 128,-1,51
 1430 1247 1430 1247 1544 1229 c 1,52,53
 1616 1229 1616 1229 1698 1268 c 0,54,55
 1745 1293 1745 1293 1776 1292 c 0,56,57
 1827 1292 1827 1292 1827 1245 c 0,58,59
 1827 1214 1827 1214 1798 1180 c 128,-1,60
 1769 1146 1769 1146 1716 1126 c 0,0,1
461 428 m 0,61,62
 465 467 465 467 467 483.5 c 128,-1,63
 469 500 469 500 469 514 c 0,64,65
 469 600 469 600 383 600 c 0,66,67
 324 600 324 600 284 555 c 128,-1,68
 244 510 244 510 227.5 420 c 128,-1,69
 211 330 211 330 211 276 c 0,70,71
 211 165 211 165 283 166 c 0,72,73
 357 166 357 166 399 246 c 0,74,75
 430 303 430 303 461 428 c 0,61,62
EndSplineSet
EndChar

StartChar: u0B8F
Encoding: 144 2959 144
Width: 1808
Flags: HW
AnchorPoint: "V" 941 1305 basechar 0
AnchorPoint: "N" 941 -160.717 basechar 0
LayerCount: 2
Fore
SplineSet
1714 1122 m 0,0,1
 1628 1089 1628 1089 1571 995 c 0,2,3
 1528 927 1528 927 1485 791 c 1,4,-1
 1384 381 l 2,5,6
 1351 215 1351 215 1247 113 c 0,7,8
 1208 70 1208 70 1110 29 c 128,-1,9
 1012 -12 1012 -12 915 -55 c 0,10,11
 849 -84 849 -84 763.5 -132 c 128,-1,12
 678 -180 678 -180 598 -231 c 1,13,14
 567 -262 567 -262 531.5 -295 c 128,-1,15
 496 -328 496 -328 463 -328 c 0,16,17
 453 -328 453 -328 430 -324 c 0,18,19
 385 -308 385 -308 385 -256 c 0,20,21
 385 -213 385 -213 428 -180 c 0,22,23
 504 -137 504 -137 598 -78 c 0,24,25
 637 -53 637 -53 811 66 c 0,26,27
 893 125 893 125 948.5 211 c 128,-1,28
 1004 297 1004 297 1022 385 c 2,29,-1
 1122 797 l 2,30,31
 1169 965 1169 965 1266 1096 c 1,32,33
 1223 1104 1223 1104 1163.5 1109 c 128,-1,34
 1104 1114 1104 1114 1028 1114 c 0,35,36
 831 1114 831 1114 659 1028 c 128,-1,37
 487 942 487 942 387 803 c 1,38,39
 463 834 463 834 530 834 c 0,40,41
 661 834 661 834 745 771.5 c 128,-1,42
 829 709 829 709 829 575 c 0,43,44
 829 544 829 544 829 516 c 0,45,46
 821 485 821 485 819 475 c 0,47,48
 772 248 772 248 670 131 c 0,49,50
 545 -12 545 -12 322 -12 c 0,51,52
 56 -12 56 -12 55 283 c 0,53,54
 55 369 55 369 80 485 c 0,55,56
 156 847 156 847 403 1059 c 0,57,58
 669 1284 669 1284 1065 1284 c 0,59,60
 1212 1284 1212 1284 1321 1265.5 c 128,-1,61
 1430 1247 1430 1247 1544 1229 c 1,62,63
 1616 1229 1616 1229 1698 1268 c 0,64,65
 1741 1291 1741 1291 1774 1290 c 0,66,67
 1827 1290 1827 1290 1827 1243 c 0,68,69
 1827 1167 1827 1167 1714 1122 c 0,0,1
457 420 m 0,70,71
 467 465 467 465 467 510 c 0,72,73
 467 596 467 596 383 596 c 0,74,75
 307 596 307 596 264 520 c 0,76,77
 248 487 248 487 229.5 406.5 c 128,-1,78
 211 326 211 326 211 268 c 0,79,80
 211 157 211 157 283 158 c 0,81,82
 359 158 359 158 401 238 c 0,83,84
 432 293 432 293 457 420 c 0,70,71
EndSplineSet
EndChar

StartChar: u0B90
Encoding: 145 2960 145
Width: 2076
Flags: HW
AnchorPoint: "V" 957.5 1305 basechar 0
AnchorPoint: "N" 957.5 -429.873 basechar 0
LayerCount: 2
Fore
SplineSet
1759 -14 m 0,0,1
 1716 -215 1716 -215 1582 -322.5 c 128,-1,2
 1448 -430 1448 -430 1200 -430 c 0,3,4
 1046 -430 1046 -430 959 -376 c 128,-1,5
 872 -322 872 -322 842 -223 c 1,6,7
 768 -317 768 -317 668 -369 c 0,8,9
 539 -430 539 -430 358 -430 c 0,10,11
 157 -430 157 -430 60 -342 c 128,-1,12
 -37 -254 -37 -254 -37 -111 c 0,13,14
 -37 -74 -37 -74 -35 -55 c 0,15,16
 -27 -30 -27 -30 -27 -20 c 0,17,18
 12 160 12 160 197 260 c 0,19,20
 334 334 334 334 589 378 c 128,-1,21
 844 422 844 422 1075 463 c 1,22,23
 1270 510 1270 510 1386 604 c 0,24,25
 1523 715 1523 715 1561 887 c 0,26,27
 1575 967 1575 967 1575 1012 c 0,28,29
 1575 1108 1575 1108 1499 1108 c 0,30,31
 1431 1108 1431 1108 1378 1057 c 0,32,33
 1339 1018 1339 1018 1311 961 c 1,34,35
 1313 947 1313 947 1313 924 c 0,36,37
 1313 910 1313 910 1313 895 c 0,38,39
 1309 877 1309 877 1309 872 c 2,40,-1
 1290 776 l 2,41,42
 1267 674 1267 674 1180.5 598 c 128,-1,43
 1094 522 1094 522 971 522 c 0,44,45
 910 522 910 522 836 547 c 1,46,47
 893 608 893 608 918 662 c 0,48,49
 932 695 932 695 950 782 c 2,50,-1
 973 893 l 2,51,52
 981 936 981 936 981 969 c 0,53,54
 981 1106 981 1106 834 1106 c 0,55,56
 740 1106 740 1106 653 1081 c 1,57,58
 827 1056 827 1056 827 881 c 0,59,60
 827 848 827 848 819 805 c 0,61,62
 786 658 786 658 657 582 c 0,63,64
 553 521 553 521 420 520 c 0,65,66
 303 520 303 520 248 563 c 128,-1,67
 193 606 193 606 193 709 c 0,68,69
 193 756 193 756 203 809 c 0,70,71
 248 1026 248 1026 435.5 1152 c 128,-1,72
 623 1278 623 1278 881 1278 c 0,73,74
 1014 1278 1014 1278 1104 1238 c 128,-1,75
 1194 1198 1194 1198 1247 1130 c 1,76,77
 1300 1191 1300 1191 1387.5 1234.5 c 128,-1,78
 1475 1278 1475 1278 1585 1278 c 0,79,80
 1952 1278 1952 1278 1952 995 c 0,81,82
 1952 950 1952 950 1937 881 c 0,83,84
 1892 672 1892 672 1638 526 c 0,85,86
 1443 417 1443 417 1155.5 352 c 128,-1,87
 868 287 868 287 596 227 c 1,88,89
 381 155 381 155 344 -18 c 0,90,91
 334 -63 334 -63 334 -123 c 0,92,93
 334 -184 334 -184 355.5 -224 c 128,-1,94
 377 -264 377 -264 424 -264 c 0,95,96
 518 -264 518 -264 602 -213 c 128,-1,97
 686 -162 686 -162 729 -66 c 1,98,-1
 745 8 l 2,99,100
 770 121 770 121 854 194.5 c 128,-1,101
 938 268 938 268 1067 268 c 0,102,103
 1143 268 1143 268 1229 242 c 1,104,105
 1163 174 1163 174 1132.5 112.5 c 128,-1,106
 1102 51 1102 51 1089.5 -10.5 c 128,-1,107
 1077 -72 1077 -72 1077 -111 c 0,108,109
 1077 -181 1077 -181 1108 -221.5 c 128,-1,110
 1139 -262 1139 -262 1219 -262 c 0,111,112
 1309 -262 1309 -262 1360 -178 c 0,113,114
 1393 -119 1393 -119 1421 12 c 0,115,116
 1439 92 1439 92 1440 152 c 0,117,118
 1440 205 1440 205 1421 252 c 1,119,120
 1450 254 1450 254 1475.5 258 c 128,-1,121
 1501 262 1501 262 1532 262 c 0,122,123
 1651 262 1651 262 1708 208 c 128,-1,124
 1765 154 1765 154 1765 57 c 0,125,126
 1765 25 1765 25 1759 -14 c 0,0,1
485 846 m 0,127,128
 489 869 489 869 489 883 c 0,129,130
 489 938 489 938 444 938 c 0,131,132
 415 938 415 938 393 904 c 128,-1,133
 371 870 371 870 363.5 827 c 128,-1,134
 356 784 356 784 352 760.5 c 128,-1,135
 348 737 348 737 348 735 c 0,136,137
 348 690 348 690 385 690 c 0,138,139
 430 690 430 690 453 735 c 0,140,141
 467 764 467 764 485 846 c 0,127,128
EndSplineSet
EndChar

StartChar: u0B92
Encoding: 146 2962 146
Width: 1990
Flags: HW
AnchorPoint: "V" 944.5 1305 basechar 0
AnchorPoint: "N" 944.5 -370.608 basechar 0
LayerCount: 2
Fore
SplineSet
1815 647 m 0,0,1
 1770 428 1770 428 1615 301 c 128,-1,2
 1460 174 1460 174 1206 174 c 0,3,4
 1077 174 1077 174 1017.5 238.5 c 128,-1,5
 958 303 958 303 950 412 c 1,6,7
 936 281 936 281 1053 205 c 0,8,9
 1157 137 1157 137 1305 137 c 0,10,11
 1334 137 1334 137 1348 120.5 c 128,-1,12
 1362 104 1362 104 1362 80 c 0,13,14
 1362 47 1362 47 1339.5 21.5 c 128,-1,15
 1317 -4 1317 -4 1278 -4 c 2,16,-1
 1139 -4 l 2,17,18
 1063 -4 1063 -4 917.5 -209 c 128,-1,19
 772 -414 772 -414 477 -414 c 0,20,21
 325 -414 325 -414 247.5 -315.5 c 128,-1,22
 170 -217 170 -217 170 -51 c 1,23,-1
 289 -18 l 1,24,25
 289 -249 289 -249 489 -250 c 0,26,27
 579 -250 579 -250 647 -131 c 0,28,29
 684 -63 684 -63 723 2 c 0,30,31
 748 43 748 43 785.5 66.5 c 128,-1,32
 823 90 823 90 895 104 c 1,33,34
 850 143 850 143 820.5 198.5 c 128,-1,35
 791 254 791 254 791 326 c 0,36,37
 791 357 791 357 799 395 c 0,38,39
 830 549 830 549 918 674 c 0,40,41
 973 756 973 756 1081 860 c 0,42,43
 1138 913 1138 913 1196 913 c 0,44,45
 1262 913 1262 913 1262 860 c 0,46,47
 1262 842 1262 842 1247 827 c 0,48,49
 1179 755 1179 755 1171 741 c 0,50,51
 1134 688 1134 688 1106 555 c 0,52,53
 1098 512 1098 512 1098 475 c 0,54,55
 1098 409 1098 409 1128.5 372.5 c 128,-1,56
 1159 336 1159 336 1231 336 c 0,57,58
 1311 336 1311 336 1368 438 c 0,59,60
 1415 522 1415 522 1446 668 c 0,61,62
 1450 691 1450 691 1452 731.5 c 128,-1,63
 1454 772 1454 772 1454 774 c 0,64,65
 1454 926 1454 926 1364 1012 c 0,66,67
 1255 1114 1255 1114 1026 1114 c 0,68,69
 838 1114 838 1114 682 1042.5 c 128,-1,70
 526 971 526 971 444 868 c 1,71,72
 477 876 477 876 510 877 c 0,73,74
 614 877 614 877 690 812.5 c 128,-1,75
 766 748 766 748 766 625 c 0,76,77
 766 588 766 588 758 545 c 0,78,79
 725 383 725 383 602 279 c 0,80,81
 469 162 469 162 274 162 c 0,82,83
 184 162 184 162 127 221.5 c 128,-1,84
 70 281 70 281 70 403 c 0,85,86
 70 432 70 432 72 463 c 128,-1,87
 74 494 74 494 82 530 c 0,88,89
 158 892 158 892 455 1096 c 0,90,91
 721 1278 721 1278 1075 1278 c 0,92,93
 1394 1278 1394 1278 1595 1159 c 0,94,95
 1818 1026 1818 1026 1819 774 c 0,96,97
 1819 745 1819 745 1817 709.5 c 128,-1,98
 1815 674 1815 674 1815 647 c 0,0,1
399 520 m 0,99,100
 407 563 407 563 408 594 c 0,101,102
 408 666 408 666 350 666 c 0,103,104
 303 666 303 666 272 590 c 0,105,106
 258 553 258 553 246 494 c 0,107,108
 244 476 244 476 238.5 447 c 128,-1,109
 233 418 233 418 233 401 c 0,110,111
 233 329 233 329 293 330 c 0,112,113
 344 330 344 330 369 391 c 0,114,115
 379 420 379 420 399 520 c 0,99,100
EndSplineSet
EndChar

